<svg width="167" height="126" viewBox="0 0 167 126" fill="none" xmlns="http://www.w3.org/2000/svg">
<g filter="url(#filter0_d)">
<rect x="3" y="2" width="160" height="118" rx="1.69153" fill="white"/>
<rect x="3.24277" y="2.24277" width="159.514" height="117.514" rx="1.44877" stroke="#DED3EB" stroke-width="0.485533"/>
</g>
<path d="M37.3194 106.389V106.68H37.2563C36.9887 106.685 36.7756 106.765 36.617 106.918C36.4584 107.072 36.3667 107.288 36.3419 107.567C36.4844 107.403 36.6789 107.321 36.9255 107.321C37.1609 107.321 37.3486 107.404 37.4886 107.57C37.6298 107.736 37.7004 107.951 37.7004 108.213C37.7004 108.492 37.6242 108.715 37.4718 108.882C37.3207 109.05 37.1175 109.133 36.8623 109.133C36.6033 109.133 36.3934 109.034 36.2323 108.836C36.0712 108.637 35.9907 108.38 35.9907 108.067V107.935C35.9907 107.437 36.0966 107.056 36.3085 106.794C36.5216 106.53 36.8381 106.395 37.2581 106.389H37.3194ZM36.8679 107.608C36.7502 107.608 36.6418 107.643 36.5426 107.714C36.4435 107.784 36.3748 107.873 36.3364 107.979V108.106C36.3364 108.329 36.3865 108.508 36.4869 108.645C36.5872 108.781 36.7124 108.849 36.8623 108.849C37.0171 108.849 37.1386 108.792 37.2265 108.678C37.3157 108.564 37.3603 108.415 37.3603 108.23C37.3603 108.044 37.3151 107.894 37.2247 107.78C37.1355 107.665 37.0165 107.608 36.8679 107.608Z" fill="#B3BBCD"/>
<path d="M49.0121 106.583L47.8915 109.095H47.5309L48.6478 106.672H47.1834V106.389H49.0121V106.583Z" fill="#B3BBCD"/>
<path d="M60.1986 107.096C60.1986 107.231 60.1627 107.351 60.0908 107.456C60.0202 107.561 59.9242 107.644 59.8028 107.703C59.944 107.764 60.0555 107.853 60.1373 107.969C60.2203 108.085 60.2618 108.217 60.2618 108.365C60.2618 108.599 60.1825 108.785 60.0239 108.924C59.8666 109.063 59.6591 109.132 59.4014 109.132C59.1412 109.132 58.9324 109.063 58.7751 108.924C58.619 108.784 58.5409 108.598 58.5409 108.365C58.5409 108.219 58.5806 108.087 58.6599 107.969C58.7404 107.851 58.8513 107.762 58.9925 107.701C58.8724 107.642 58.7776 107.56 58.7082 107.454C58.6388 107.349 58.6041 107.229 58.6041 107.096C58.6041 106.868 58.6772 106.687 58.8234 106.553C58.9696 106.419 59.1623 106.352 59.4014 106.352C59.6392 106.352 59.8313 106.419 59.9775 106.553C60.1249 106.687 60.1986 106.868 60.1986 107.096ZM59.918 108.357C59.918 108.206 59.8697 108.083 59.773 107.988C59.6776 107.892 59.5525 107.845 59.3977 107.845C59.2428 107.845 59.1183 107.892 59.0241 107.986C58.9312 108.08 58.8847 108.204 58.8847 108.357C58.8847 108.511 58.93 108.632 59.0204 108.72C59.1121 108.808 59.2391 108.852 59.4014 108.852C59.5624 108.852 59.6888 108.808 59.7805 108.72C59.8722 108.631 59.918 108.51 59.918 108.357ZM59.4014 106.635C59.2663 106.635 59.1567 106.677 59.0724 106.761C58.9894 106.844 58.9479 106.957 58.9479 107.101C58.9479 107.239 58.9888 107.35 59.0706 107.436C59.1536 107.52 59.2638 107.562 59.4014 107.562C59.5389 107.562 59.6485 107.52 59.7303 107.436C59.8133 107.35 59.8548 107.239 59.8548 107.101C59.8548 106.964 59.8121 106.852 59.7266 106.765C59.6411 106.678 59.5327 106.635 59.4014 106.635Z" fill="#B3BBCD"/>
<path d="M71.1702 107.906C71.0983 107.991 71.0122 108.06 70.9119 108.112C70.8127 108.164 70.7037 108.19 70.5848 108.19C70.4287 108.19 70.2924 108.152 70.1759 108.075C70.0607 107.998 69.9715 107.89 69.9083 107.752C69.8452 107.612 69.8136 107.457 69.8136 107.289C69.8136 107.108 69.8476 106.945 69.9158 106.8C69.9852 106.655 70.083 106.544 70.2094 106.467C70.3358 106.391 70.4832 106.352 70.6517 106.352C70.9193 106.352 71.1299 106.453 71.2835 106.653C71.4384 106.853 71.5158 107.125 71.5158 107.471V107.571C71.5158 108.098 71.4118 108.483 71.2036 108.725C70.9955 108.967 70.6814 109.091 70.2614 109.097H70.1945V108.807H70.267C70.5507 108.802 70.7688 108.728 70.9212 108.586C71.0735 108.442 71.1565 108.216 71.1702 107.906ZM70.6405 107.906C70.7558 107.906 70.8617 107.871 70.9583 107.8C71.0562 107.729 71.1274 107.642 71.172 107.538V107.4C71.172 107.175 71.1231 106.992 71.0252 106.85C70.9273 106.709 70.8035 106.638 70.6535 106.638C70.5024 106.638 70.381 106.697 70.2893 106.813C70.1976 106.928 70.1518 107.081 70.1518 107.27C70.1518 107.455 70.1958 107.607 70.2837 107.727C70.3729 107.846 70.4919 107.906 70.6405 107.906Z" fill="#B3BBCD"/>
<path d="M81.2083 109.095H80.8627V106.804L80.1695 107.058V106.746L81.1545 106.376H81.2083V109.095ZM83.9123 107.941C83.9123 108.344 83.8435 108.643 83.706 108.839C83.5685 109.035 83.3535 109.132 83.0611 109.132C82.7725 109.132 82.5588 109.037 82.42 108.846C82.2812 108.654 82.2094 108.368 82.2044 107.988V107.529C82.2044 107.131 82.2732 106.835 82.4107 106.642C82.5482 106.449 82.7638 106.352 83.0574 106.352C83.3486 106.352 83.5629 106.446 83.7004 106.633C83.8379 106.819 83.9086 107.106 83.9123 107.495V107.941ZM83.5685 107.471C83.5685 107.18 83.5276 106.968 83.4458 106.835C83.3641 106.702 83.2346 106.635 83.0574 106.635C82.8815 106.635 82.7533 106.701 82.6727 106.834C82.5922 106.966 82.5507 107.17 82.5482 107.445V107.995C82.5482 108.287 82.5904 108.504 82.6746 108.644C82.7601 108.782 82.8889 108.852 83.0611 108.852C83.2309 108.852 83.3566 108.786 83.4384 108.655C83.5214 108.523 83.5648 108.317 83.5685 108.034V107.471Z" fill="#B3BBCD"/>
<path d="M92.9725 109.095H92.6268V106.804L91.9337 107.058V106.746L92.9186 106.376H92.9725V109.095ZM95.1096 109.095H94.764V106.804L94.0708 107.058V106.746L95.0557 106.376H95.1096V109.095Z" fill="#B3BBCD"/>
<path d="M103.796 109.095H103.45V106.804L102.757 107.058V106.746L103.742 106.376H103.796V109.095ZM106.576 109.095H104.803V108.848L105.74 107.807C105.878 107.65 105.974 107.522 106.026 107.425C106.079 107.325 106.106 107.223 106.106 107.118C106.106 106.977 106.063 106.861 105.977 106.77C105.892 106.68 105.778 106.635 105.636 106.635C105.465 106.635 105.331 106.684 105.236 106.782C105.142 106.878 105.095 107.013 105.095 107.187H104.751C104.751 106.938 104.831 106.736 104.991 106.583C105.152 106.429 105.367 106.352 105.636 106.352C105.887 106.352 106.086 106.419 106.232 106.551C106.378 106.682 106.451 106.858 106.451 107.077C106.451 107.343 106.282 107.661 105.942 108.029L105.217 108.815H106.576V109.095Z" fill="#B3BBCD"/>
<path d="M115.09 109.095H114.745V106.804L114.051 107.058V106.746L115.036 106.376H115.09V109.095ZM116.597 107.575H116.856C117.018 107.573 117.146 107.53 117.238 107.447C117.331 107.364 117.378 107.252 117.378 107.11C117.378 106.793 117.22 106.635 116.904 106.635C116.755 106.635 116.636 106.677 116.547 106.763C116.459 106.847 116.415 106.959 116.415 107.099H116.071C116.071 106.885 116.149 106.707 116.306 106.566C116.463 106.423 116.662 106.352 116.904 106.352C117.159 106.352 117.359 106.42 117.504 106.555C117.649 106.69 117.722 106.878 117.722 107.118C117.722 107.236 117.683 107.35 117.606 107.46C117.531 107.57 117.427 107.652 117.296 107.707C117.445 107.754 117.559 107.832 117.64 107.941C117.722 108.05 117.763 108.183 117.763 108.341C117.763 108.584 117.683 108.776 117.525 108.919C117.366 109.061 117.16 109.132 116.906 109.132C116.652 109.132 116.445 109.064 116.285 108.926C116.127 108.789 116.047 108.607 116.047 108.382H116.393C116.393 108.524 116.439 108.638 116.532 108.724C116.625 108.809 116.75 108.852 116.906 108.852C117.072 108.852 117.199 108.808 117.287 108.722C117.375 108.635 117.419 108.51 117.419 108.348C117.419 108.191 117.37 108.07 117.274 107.986C117.177 107.902 117.038 107.858 116.856 107.856H116.597V107.575Z" fill="#B3BBCD"/>
<path d="M126.854 109.095H126.509V106.804L125.816 107.058V106.746L126.8 106.376H126.854V109.095ZM129.313 108.186H129.688V108.467H129.313V109.095H128.967V108.467H127.735V108.265L128.947 106.389H129.313V108.186ZM128.125 108.186H128.967V106.86L128.926 106.934L128.125 108.186Z" fill="#B3BBCD"/>
<path d="M137.68 109.095H137.334V106.804L136.641 107.058V106.746L137.626 106.376H137.68V109.095ZM138.845 107.739L138.982 106.389H140.369V106.707H139.274L139.192 107.445C139.325 107.367 139.475 107.328 139.644 107.328C139.89 107.328 140.086 107.41 140.231 107.573C140.376 107.736 140.449 107.955 140.449 108.233C140.449 108.512 140.373 108.732 140.222 108.893C140.072 109.052 139.862 109.132 139.592 109.132C139.353 109.132 139.158 109.066 139.006 108.934C138.855 108.801 138.769 108.618 138.748 108.383H139.073C139.094 108.538 139.15 108.655 139.239 108.735C139.328 108.813 139.446 108.852 139.592 108.852C139.752 108.852 139.877 108.797 139.967 108.688C140.059 108.579 140.105 108.429 140.105 108.237C140.105 108.056 140.055 107.911 139.956 107.802C139.858 107.692 139.727 107.636 139.564 107.636C139.414 107.636 139.296 107.669 139.211 107.735L139.12 107.809L138.845 107.739Z" fill="#B3BBCD"/>
<path d="M149.442 109.095H149.096V106.804L148.403 107.058V106.746L149.388 106.376H149.442V109.095ZM151.798 106.388V106.679H151.735C151.467 106.684 151.254 106.764 151.096 106.917C150.937 107.071 150.845 107.287 150.821 107.566C150.963 107.402 151.158 107.32 151.404 107.32C151.64 107.32 151.827 107.403 151.967 107.569C152.109 107.736 152.179 107.95 152.179 108.212C152.179 108.491 152.103 108.714 151.951 108.882C151.799 109.049 151.596 109.132 151.341 109.132C151.082 109.132 150.872 109.033 150.711 108.835C150.55 108.636 150.469 108.379 150.469 108.066V107.934C150.469 107.436 150.575 107.055 150.787 106.793C151 106.529 151.317 106.394 151.737 106.388H151.798ZM151.347 107.607C151.229 107.607 151.12 107.642 151.021 107.713C150.922 107.783 150.853 107.872 150.815 107.978V108.105C150.815 108.328 150.865 108.507 150.966 108.644C151.066 108.78 151.191 108.848 151.341 108.848C151.496 108.848 151.617 108.791 151.705 108.677C151.794 108.563 151.839 108.414 151.839 108.229C151.839 108.043 151.794 107.893 151.703 107.779C151.614 107.664 151.495 107.607 151.347 107.607Z" fill="#B3BBCD"/>
<path d="M19.0232 18.5763C19.0232 19.0476 18.9439 19.4595 18.7853 19.8119C18.6268 20.1621 18.4021 20.4297 18.1114 20.6147C17.8206 20.7997 17.4815 20.8922 17.0938 20.8922C16.715 20.8922 16.3791 20.7997 16.0862 20.6147C15.7932 20.4275 15.5653 20.1621 15.4023 19.8185C15.2415 19.4727 15.1589 19.073 15.1545 18.6192V18.2724C15.1545 17.8098 15.2349 17.4013 15.3957 17.0466C15.5565 16.692 15.7833 16.4211 16.0762 16.2339C16.3714 16.0445 16.7084 15.9498 17.0872 15.9498C17.4726 15.9498 17.8118 16.0434 18.1048 16.2306C18.3999 16.4156 18.6268 16.6854 18.7853 17.04C18.9439 17.3924 19.0232 17.8032 19.0232 18.2724V18.5763ZM18.3922 18.2657C18.3922 17.6953 18.2777 17.2581 18.0486 16.9541C17.8195 16.648 17.4991 16.4949 17.0872 16.4949C16.6863 16.4949 16.3703 16.648 16.139 16.9541C15.91 17.2581 15.7921 17.681 15.7855 18.2228V18.5763C15.7855 19.1291 15.9011 19.5641 16.1324 19.8813C16.3659 20.1963 16.6863 20.3537 17.0938 20.3537C17.5035 20.3537 17.8206 20.2051 18.0453 19.9077C18.27 19.6082 18.3856 19.1798 18.3922 18.6226V18.2657ZM21.6068 17.7999C21.5143 17.7845 21.4141 17.7768 21.3061 17.7768C20.9053 17.7768 20.6333 17.9475 20.4901 18.2889V20.8262H19.8789V17.2515H20.4736L20.4835 17.6645C20.6839 17.3451 20.968 17.1854 21.3359 17.1854C21.4548 17.1854 21.5451 17.2008 21.6068 17.2317V17.7999ZM21.9603 19.0091C21.9603 18.4519 22.0891 18.0092 22.3468 17.681C22.6045 17.3506 22.9459 17.1854 23.371 17.1854C23.8071 17.1854 24.1474 17.3396 24.3919 17.6479L24.4216 17.2515H24.9799V20.7403C24.9799 21.2028 24.8423 21.5673 24.567 21.8338C24.2938 22.1003 23.926 22.2336 23.4635 22.2336C23.2058 22.2336 22.9536 22.1785 22.7069 22.0684C22.4602 21.9583 22.2719 21.8074 22.142 21.6158L22.4591 21.2491C22.7212 21.5728 23.0417 21.7347 23.4205 21.7347C23.7179 21.7347 23.9492 21.651 24.1143 21.4836C24.2817 21.3162 24.3654 21.0806 24.3654 20.7766V20.4694C24.1209 20.7513 23.7873 20.8922 23.3644 20.8922C22.9459 20.8922 22.6067 20.7238 22.3468 20.3868C22.0891 20.0498 21.9603 19.5906 21.9603 19.0091ZM22.5748 19.0785C22.5748 19.4815 22.6574 19.7987 22.8226 20.03C22.9878 20.259 23.219 20.3736 23.5164 20.3736C23.9018 20.3736 24.1848 20.1985 24.3654 19.8483V18.2162C24.1782 17.8748 23.8974 17.7041 23.523 17.7041C23.2256 17.7041 22.9933 17.8197 22.8259 18.051C22.6585 18.2823 22.5748 18.6248 22.5748 19.0785ZM28.1119 20.8262C28.0767 20.7557 28.048 20.6301 28.026 20.4495C27.7419 20.7447 27.4027 20.8922 27.0085 20.8922C26.656 20.8922 26.3664 20.7931 26.1396 20.5949C25.9149 20.3945 25.8026 20.1412 25.8026 19.835C25.8026 19.4628 25.9435 19.1743 26.2255 18.9694C26.5096 18.7624 26.9082 18.6589 27.4214 18.6589H28.0161V18.3781C28.0161 18.1644 27.9522 17.9948 27.8245 17.8693C27.6967 17.7415 27.5084 17.6777 27.2595 17.6777C27.0415 17.6777 26.8587 17.7327 26.7111 17.8429C26.5635 17.953 26.4898 18.0862 26.4898 18.2426H25.8753C25.8753 18.0642 25.938 17.8924 26.0636 17.7272C26.1913 17.5598 26.3631 17.4277 26.579 17.3308C26.797 17.2339 27.036 17.1854 27.2959 17.1854C27.7078 17.1854 28.0304 17.2889 28.2639 17.496C28.4974 17.7008 28.6185 17.9838 28.6273 18.345V19.9903C28.6273 20.3185 28.6692 20.5795 28.7528 20.7733V20.8262H28.1119ZM27.0977 20.3603C27.2893 20.3603 27.471 20.3108 27.6428 20.2117C27.8146 20.1126 27.939 19.9837 28.0161 19.8251V19.0917H27.5371C26.7882 19.0917 26.4138 19.3108 26.4138 19.7491C26.4138 19.9408 26.4776 20.0905 26.6054 20.1985C26.7331 20.3064 26.8972 20.3603 27.0977 20.3603ZM30.1636 17.2515L30.1834 17.7008C30.4565 17.3572 30.8133 17.1854 31.2538 17.1854C32.0093 17.1854 32.3903 17.6116 32.3969 18.464V20.8262H31.7857V18.4607C31.7835 18.203 31.724 18.0125 31.6073 17.8891C31.4928 17.7658 31.3133 17.7041 31.0688 17.7041C30.8706 17.7041 30.6966 17.757 30.5468 17.8627C30.397 17.9684 30.2803 18.1072 30.1966 18.279V20.8262H29.5854V17.2515H30.1636ZM33.9827 20.8262H33.3715V17.2515H33.9827V20.8262ZM33.322 16.3033C33.322 16.2042 33.3517 16.1205 33.4112 16.0522C33.4728 15.9839 33.5631 15.9498 33.6821 15.9498C33.801 15.9498 33.8913 15.9839 33.953 16.0522C34.0147 16.1205 34.0455 16.2042 34.0455 16.3033C34.0455 16.4024 34.0147 16.485 33.953 16.5511C33.8913 16.6172 33.801 16.6502 33.6821 16.6502C33.5631 16.6502 33.4728 16.6172 33.4112 16.5511C33.3517 16.485 33.322 16.4024 33.322 16.3033ZM36.3978 20.3934C36.6158 20.3934 36.8064 20.3273 36.9693 20.1952C37.1323 20.063 37.2226 19.8978 37.2403 19.6996H37.8184C37.8074 19.9044 37.7369 20.0993 37.607 20.2844C37.477 20.4694 37.303 20.6169 37.085 20.7271C36.8691 20.8372 36.6401 20.8922 36.3978 20.8922C35.911 20.8922 35.5234 20.7304 35.2349 20.4066C34.9485 20.0806 34.8054 19.6357 34.8054 19.0719V18.9694C34.8054 18.6215 34.8692 18.312 34.997 18.0411C35.1247 17.7702 35.3075 17.5598 35.5454 17.4101C35.7855 17.2603 36.0685 17.1854 36.3945 17.1854C36.7953 17.1854 37.1279 17.3054 37.3922 17.5455C37.6587 17.7856 37.8008 18.0973 37.8184 18.4805H37.2403C37.2226 18.2492 37.1345 18.0598 36.976 17.9122C36.8196 17.7625 36.6258 17.6876 36.3945 17.6876C36.0839 17.6876 35.8428 17.7999 35.671 18.0246C35.5014 18.247 35.4166 18.5697 35.4166 18.9926V19.1082C35.4166 19.5201 35.5014 19.8372 35.671 20.0597C35.8406 20.2821 36.0828 20.3934 36.3978 20.3934ZM42.2653 19.878C42.2653 19.7128 42.2025 19.5851 42.077 19.4947C41.9536 19.4022 41.7367 19.323 41.4261 19.2569C41.1178 19.1908 40.8722 19.1115 40.6894 19.019C40.5088 18.9265 40.3744 18.8164 40.2863 18.6886C40.2004 18.5609 40.1575 18.4089 40.1575 18.2327C40.1575 17.9398 40.2808 17.692 40.5275 17.4894C40.7764 17.2867 41.0936 17.1854 41.479 17.1854C41.8843 17.1854 42.2124 17.29 42.4635 17.4993C42.7168 17.7085 42.8435 17.9761 42.8435 18.3021H42.229C42.229 18.1347 42.1574 17.9904 42.0142 17.8693C41.8733 17.7482 41.6948 17.6876 41.479 17.6876C41.2565 17.6876 41.0825 17.736 40.957 17.8329C40.8315 17.9299 40.7687 18.0565 40.7687 18.2129C40.7687 18.3605 40.8271 18.4717 40.9438 18.5466C41.0605 18.6215 41.2709 18.693 41.5748 18.7613C41.881 18.8296 42.1287 18.9111 42.3182 19.0058C42.5076 19.1005 42.6474 19.215 42.7377 19.3494C42.8302 19.4815 42.8765 19.6434 42.8765 19.835C42.8765 20.1544 42.7488 20.411 42.4933 20.6048C42.2378 20.7964 41.9063 20.8922 41.4988 20.8922C41.2125 20.8922 40.9592 20.8416 40.739 20.7403C40.5187 20.639 40.3458 20.498 40.2203 20.3174C40.0969 20.1346 40.0352 19.9375 40.0352 19.726H40.6464C40.6575 19.9308 40.739 20.0938 40.8909 20.215C41.0451 20.3339 41.2477 20.3934 41.4988 20.3934C41.7301 20.3934 41.9151 20.3471 42.0539 20.2546C42.1948 20.1599 42.2653 20.0344 42.2653 19.878ZM45.8796 20.8262C45.8444 20.7557 45.8158 20.6301 45.7937 20.4495C45.5096 20.7447 45.1704 20.8922 44.7762 20.8922C44.4238 20.8922 44.1341 20.7931 43.9073 20.5949C43.6826 20.3945 43.5703 20.1412 43.5703 19.835C43.5703 19.4628 43.7113 19.1743 43.9932 18.9694C44.2773 18.7624 44.676 18.6589 45.1891 18.6589H45.7838V18.3781C45.7838 18.1644 45.72 17.9948 45.5922 17.8693C45.4645 17.7415 45.2761 17.6777 45.0273 17.6777C44.8092 17.6777 44.6264 17.7327 44.4788 17.8429C44.3313 17.953 44.2575 18.0862 44.2575 18.2426H43.643C43.643 18.0642 43.7057 17.8924 43.8313 17.7272C43.959 17.5598 44.1308 17.4277 44.3467 17.3308C44.5647 17.2339 44.8037 17.1854 45.0636 17.1854C45.4755 17.1854 45.7981 17.2889 46.0316 17.496C46.2651 17.7008 46.3862 17.9838 46.395 18.345V19.9903C46.395 20.3185 46.4369 20.5795 46.5206 20.7733V20.8262H45.8796ZM44.8654 20.3603C45.057 20.3603 45.2387 20.3108 45.4105 20.2117C45.5823 20.1126 45.7067 19.9837 45.7838 19.8251V19.0917H45.3048C44.5559 19.0917 44.1815 19.3108 44.1815 19.7491C44.1815 19.9408 44.2454 20.0905 44.3731 20.1985C44.5009 20.3064 44.6649 20.3603 44.8654 20.3603ZM48.0172 20.8262H47.406V15.7516H48.0172V20.8262ZM50.4818 20.8922C49.9972 20.8922 49.603 20.7337 49.299 20.4165C48.9951 20.0971 48.8431 19.671 48.8431 19.1379V19.0256C48.8431 18.671 48.9103 18.3549 49.0447 18.0774C49.1812 17.7977 49.3706 17.5797 49.6129 17.4233C49.8574 17.2647 50.1217 17.1854 50.4058 17.1854C50.8705 17.1854 51.2318 17.3385 51.4894 17.6446C51.7471 17.9508 51.876 18.3891 51.876 18.9595V19.2139H49.4543C49.4631 19.5663 49.5655 19.8516 49.7616 20.0696C49.9598 20.2855 50.2109 20.3934 50.5148 20.3934C50.7307 20.3934 50.9135 20.3493 51.0633 20.2612C51.213 20.1731 51.3441 20.0564 51.4564 19.911L51.8297 20.2018C51.5302 20.6621 51.0809 20.8922 50.4818 20.8922ZM50.4058 17.6876C50.1591 17.6876 49.9521 17.7779 49.7847 17.9585C49.6173 18.1369 49.5138 18.388 49.4741 18.7118H51.2648V18.6655C51.2472 18.3549 51.1635 18.1149 51.0137 17.9453C50.8639 17.7735 50.6613 17.6876 50.4058 17.6876ZM54.6677 19.878C54.6677 19.7128 54.6049 19.5851 54.4794 19.4947C54.356 19.4022 54.1391 19.323 53.8285 19.2569C53.5202 19.1908 53.2746 19.1115 53.0918 19.019C52.9112 18.9265 52.7768 18.8164 52.6887 18.6886C52.6028 18.5609 52.5599 18.4089 52.5599 18.2327C52.5599 17.9398 52.6832 17.692 52.9299 17.4894C53.1788 17.2867 53.4959 17.1854 53.8814 17.1854C54.2866 17.1854 54.6148 17.29 54.8659 17.4993C55.1192 17.7085 55.2458 17.9761 55.2458 18.3021H54.6313C54.6313 18.1347 54.5598 17.9904 54.4166 17.8693C54.2756 17.7482 54.0972 17.6876 53.8814 17.6876C53.6589 17.6876 53.4849 17.736 53.3594 17.8329C53.2338 17.9299 53.1711 18.0565 53.1711 18.2129C53.1711 18.3605 53.2294 18.4717 53.3462 18.5466C53.4629 18.6215 53.6732 18.693 53.9772 18.7613C54.2833 18.8296 54.5311 18.9111 54.7205 19.0058C54.91 19.1005 55.0498 19.215 55.1401 19.3494C55.2326 19.4815 55.2789 19.6434 55.2789 19.835C55.2789 20.1544 55.1511 20.411 54.8956 20.6048C54.6402 20.7964 54.3087 20.8922 53.9012 20.8922C53.6149 20.8922 53.3616 20.8416 53.1413 20.7403C52.9211 20.639 52.7482 20.498 52.6226 20.3174C52.4993 20.1346 52.4376 19.9375 52.4376 19.726H53.0488C53.0598 19.9308 53.1413 20.0938 53.2933 20.215C53.4475 20.3339 53.6501 20.3934 53.9012 20.3934C54.1325 20.3934 54.3175 20.3471 54.4562 20.2546C54.5972 20.1599 54.6677 20.0344 54.6677 19.878ZM58.9329 19.9969L59.8183 17.2515H60.4427L59.1608 20.8262H58.695L57.3999 17.2515H58.0243L58.9329 19.9969ZM63.1121 19.878C63.1121 19.7128 63.0494 19.5851 62.9238 19.4947C62.8005 19.4022 62.5835 19.323 62.273 19.2569C61.9646 19.1908 61.719 19.1115 61.5362 19.019C61.3556 18.9265 61.2213 18.8164 61.1332 18.6886C61.0473 18.5609 61.0043 18.4089 61.0043 18.2327C61.0043 17.9398 61.1277 17.692 61.3744 17.4894C61.6232 17.2867 61.9404 17.1854 62.3258 17.1854C62.7311 17.1854 63.0593 17.29 63.3104 17.4993C63.5637 17.7085 63.6903 17.9761 63.6903 18.3021H63.0758C63.0758 18.1347 63.0042 17.9904 62.8611 17.8693C62.7201 17.7482 62.5417 17.6876 62.3258 17.6876C62.1034 17.6876 61.9294 17.736 61.8038 17.8329C61.6783 17.9299 61.6155 18.0565 61.6155 18.2129C61.6155 18.3605 61.6739 18.4717 61.7906 18.5466C61.9074 18.6215 62.1177 18.693 62.4217 18.7613C62.7278 18.8296 62.9756 18.9111 63.165 19.0058C63.3544 19.1005 63.4943 19.215 63.5846 19.3494C63.6771 19.4815 63.7233 19.6434 63.7233 19.835C63.7233 20.1544 63.5956 20.411 63.3401 20.6048C63.0846 20.7964 62.7531 20.8922 62.3457 20.8922C62.0593 20.8922 61.806 20.8416 61.5858 20.7403C61.3655 20.639 61.1926 20.498 61.0671 20.3174C60.9438 20.1346 60.8821 19.9375 60.8821 19.726H61.4933C61.5043 19.9308 61.5858 20.0938 61.7378 20.215C61.8919 20.3339 62.0946 20.3934 62.3457 20.3934C62.5769 20.3934 62.7619 20.3471 62.9007 20.2546C63.0417 20.1599 63.1121 20.0344 63.1121 19.878ZM66.928 18.943V20.8262H66.2937V16.0159H68.0678C68.5942 16.0159 69.0061 16.1502 69.3034 16.4189C69.603 16.6876 69.7527 17.0433 69.7527 17.4861C69.7527 17.953 69.6063 18.3131 69.3133 18.5664C69.0226 18.8175 68.6052 18.943 68.0612 18.943H66.928ZM66.928 18.4243H68.0678C68.407 18.4243 68.6669 18.345 68.8475 18.1865C69.0281 18.0257 69.1184 17.7944 69.1184 17.4927C69.1184 17.2063 69.0281 16.9773 68.8475 16.8055C68.6669 16.6337 68.4191 16.5445 68.1041 16.5379H66.928V18.4243ZM71.1965 18.943V20.8262H70.5622V16.0159H72.3363C72.8627 16.0159 73.2746 16.1502 73.5719 16.4189C73.8714 16.6876 74.0212 17.0433 74.0212 17.4861C74.0212 17.953 73.8747 18.3131 73.5818 18.5664C73.2911 18.8175 72.8737 18.943 72.3297 18.943H71.1965ZM71.1965 18.4243H72.3363C72.6755 18.4243 72.9354 18.345 73.116 18.1865C73.2966 18.0257 73.3869 17.7944 73.3869 17.4927C73.3869 17.2063 73.2966 16.9773 73.116 16.8055C72.9354 16.6337 72.6876 16.5445 72.3726 16.5379H71.1965V18.4243ZM78.369 19.2998C78.3095 19.8086 78.1212 20.2018 77.804 20.4793C77.4891 20.7546 77.0695 20.8922 76.5453 20.8922C75.9771 20.8922 75.5211 20.6885 75.1775 20.281C74.8361 19.8736 74.6655 19.3285 74.6655 18.6457V18.1831C74.6655 17.736 74.7447 17.3429 74.9033 17.0037C75.0641 16.6645 75.291 16.4046 75.5839 16.224C75.8768 16.0412 76.216 15.9498 76.6015 15.9498C77.1125 15.9498 77.5221 16.093 77.8305 16.3793C78.1388 16.6634 78.3183 17.0577 78.369 17.562H77.7314C77.6763 17.1788 77.5563 16.9013 77.3712 16.7295C77.1884 16.5577 76.9318 16.4718 76.6015 16.4718C76.1962 16.4718 75.8779 16.6216 75.6467 16.9211C75.4176 17.2206 75.3031 17.6468 75.3031 18.1997V18.6655C75.3031 19.1875 75.4121 19.6027 75.6302 19.911C75.8482 20.2194 76.1533 20.3736 76.5453 20.3736C76.8977 20.3736 77.1675 20.2943 77.3547 20.1357C77.5441 19.9749 77.6697 19.6963 77.7314 19.2998H78.369ZM82.9018 19.878C82.9018 19.7128 82.839 19.5851 82.7135 19.4947C82.5901 19.4022 82.3732 19.323 82.0626 19.2569C81.7543 19.1908 81.5087 19.1115 81.3259 19.019C81.1453 18.9265 81.0109 18.8164 80.9228 18.6886C80.8369 18.5609 80.794 18.4089 80.794 18.2327C80.794 17.9398 80.9173 17.692 81.164 17.4894C81.4129 17.2867 81.73 17.1854 82.1155 17.1854C82.5207 17.1854 82.8489 17.29 83.1 17.4993C83.3533 17.7085 83.4799 17.9761 83.4799 18.3021H82.8654C82.8654 18.1347 82.7939 17.9904 82.6507 17.8693C82.5097 17.7482 82.3313 17.6876 82.1155 17.6876C81.893 17.6876 81.719 17.736 81.5935 17.8329C81.4679 17.9299 81.4052 18.0565 81.4052 18.2129C81.4052 18.3605 81.4635 18.4717 81.5803 18.5466C81.697 18.6215 81.9073 18.693 82.2113 18.7613C82.5174 18.8296 82.7652 18.9111 82.9546 19.0058C83.1441 19.1005 83.2839 19.215 83.3742 19.3494C83.4667 19.4815 83.513 19.6434 83.513 19.835C83.513 20.1544 83.3852 20.411 83.1297 20.6048C82.8742 20.7964 82.5428 20.8922 82.1353 20.8922C81.849 20.8922 81.5957 20.8416 81.3754 20.7403C81.1552 20.639 80.9823 20.498 80.8567 20.3174C80.7334 20.1346 80.6717 19.9375 80.6717 19.726H81.2829C81.2939 19.9308 81.3754 20.0938 81.5274 20.215C81.6816 20.3339 81.8842 20.3934 82.1353 20.3934C82.3666 20.3934 82.5516 20.3471 82.6903 20.2546C82.8313 20.1599 82.9018 20.0344 82.9018 19.878ZM86.5161 20.8262C86.4809 20.7557 86.4522 20.6301 86.4302 20.4495C86.1461 20.7447 85.8069 20.8922 85.4126 20.8922C85.0602 20.8922 84.7706 20.7931 84.5438 20.5949C84.3191 20.3945 84.2068 20.1412 84.2068 19.835C84.2068 19.4628 84.3477 19.1743 84.6297 18.9694C84.9138 18.7624 85.3124 18.6589 85.8256 18.6589H86.4203V18.3781C86.4203 18.1644 86.3564 17.9948 86.2287 17.8693C86.1009 17.7415 85.9126 17.6777 85.6637 17.6777C85.4457 17.6777 85.2629 17.7327 85.1153 17.8429C84.9677 17.953 84.894 18.0862 84.894 18.2426H84.2795C84.2795 18.0642 84.3422 17.8924 84.4678 17.7272C84.5955 17.5598 84.7673 17.4277 84.9832 17.3308C85.2012 17.2339 85.4402 17.1854 85.7001 17.1854C86.1119 17.1854 86.4346 17.2889 86.6681 17.496C86.9016 17.7008 87.0227 17.9838 87.0315 18.345V19.9903C87.0315 20.3185 87.0733 20.5795 87.157 20.7733V20.8262H86.5161ZM85.5018 20.3603C85.6935 20.3603 85.8752 20.3108 86.047 20.2117C86.2188 20.1126 86.3432 19.9837 86.4203 19.8251V19.0917H85.9413C85.1924 19.0917 84.818 19.3108 84.818 19.7491C84.818 19.9408 84.8818 20.0905 85.0096 20.1985C85.1373 20.3064 85.3014 20.3603 85.5018 20.3603ZM88.6536 20.8262H88.0425V15.7516H88.6536V20.8262ZM91.1183 20.8922C90.6337 20.8922 90.2395 20.7337 89.9355 20.4165C89.6316 20.0971 89.4796 19.671 89.4796 19.1379V19.0256C89.4796 18.671 89.5468 18.3549 89.6811 18.0774C89.8177 17.7977 90.0071 17.5797 90.2494 17.4233C90.4939 17.2647 90.7582 17.1854 91.0423 17.1854C91.507 17.1854 91.8682 17.3385 92.1259 17.6446C92.3836 17.9508 92.5125 18.3891 92.5125 18.9595V19.2139H90.0908C90.0996 19.5663 90.202 19.8516 90.398 20.0696C90.5963 20.2855 90.8474 20.3934 91.1513 20.3934C91.3672 20.3934 91.55 20.3493 91.6997 20.2612C91.8495 20.1731 91.9806 20.0564 92.0929 19.911L92.4662 20.2018C92.1667 20.6621 91.7174 20.8922 91.1183 20.8922ZM91.0423 17.6876C90.7956 17.6876 90.5886 17.7779 90.4212 17.9585C90.2538 18.1369 90.1503 18.388 90.1106 18.7118H91.9013V18.6655C91.8836 18.3549 91.8 18.1149 91.6502 17.9453C91.5004 17.7735 91.2978 17.6876 91.0423 17.6876ZM95.3042 19.878C95.3042 19.7128 95.2414 19.5851 95.1158 19.4947C94.9925 19.4022 94.7756 19.323 94.465 19.2569C94.1566 19.1908 93.9111 19.1115 93.7283 19.019C93.5476 18.9265 93.4133 18.8164 93.3252 18.6886C93.2393 18.5609 93.1963 18.4089 93.1963 18.2327C93.1963 17.9398 93.3197 17.692 93.5664 17.4894C93.8153 17.2867 94.1324 17.1854 94.5179 17.1854C94.9231 17.1854 95.2513 17.29 95.5024 17.4993C95.7557 17.7085 95.8823 17.9761 95.8823 18.3021H95.2678C95.2678 18.1347 95.1962 17.9904 95.0531 17.8693C94.9121 17.7482 94.7337 17.6876 94.5179 17.6876C94.2954 17.6876 94.1214 17.736 93.9959 17.8329C93.8703 17.9299 93.8075 18.0565 93.8075 18.2129C93.8075 18.3605 93.8659 18.4717 93.9826 18.5466C94.0994 18.6215 94.3097 18.693 94.6137 18.7613C94.9198 18.8296 95.1676 18.9111 95.357 19.0058C95.5464 19.1005 95.6863 19.215 95.7766 19.3494C95.8691 19.4815 95.9154 19.6434 95.9154 19.835C95.9154 20.1544 95.7876 20.411 95.5321 20.6048C95.2766 20.7964 94.9451 20.8922 94.5377 20.8922C94.2514 20.8922 93.9981 20.8416 93.7778 20.7403C93.5576 20.639 93.3847 20.498 93.2591 20.3174C93.1358 20.1346 93.0741 19.9375 93.0741 19.726H93.6853C93.6963 19.9308 93.7778 20.0938 93.9298 20.215C94.084 20.3339 94.2866 20.3934 94.5377 20.3934C94.7689 20.3934 94.954 20.3471 95.0927 20.2546C95.2337 20.1599 95.3042 20.0344 95.3042 19.878Z" fill="#323541"/>
<path d="M18.1411 40.419C18.1411 40.2924 18.0964 40.1857 18.0069 40.099C17.9188 40.0123 17.7694 39.9338 17.5588 39.8636C17.2656 39.7741 17.0515 39.6578 16.9166 39.5146C16.7831 39.3701 16.7163 39.187 16.7163 38.9654C16.7163 38.7396 16.7817 38.5545 16.9125 38.4099C17.0446 38.2654 17.2257 38.1794 17.4556 38.1518V37.6996H17.7632V38.1539C17.9945 38.1855 18.1741 38.2826 18.3021 38.445C18.4315 38.6075 18.4962 38.8298 18.4962 39.112H18.1163C18.1163 38.9179 18.0702 38.7637 17.978 38.6495C17.8857 38.5352 17.7612 38.4781 17.6042 38.4781C17.4404 38.4781 17.3151 38.5207 17.2284 38.6061C17.1417 38.6901 17.0983 38.8078 17.0983 38.9592C17.0983 39.0996 17.1438 39.2118 17.2346 39.2958C17.3268 39.3783 17.4776 39.4541 17.6868 39.5229C17.8974 39.5903 18.0612 39.6654 18.1783 39.748C18.2966 39.8292 18.3834 39.9242 18.4384 40.0329C18.4949 40.1417 18.5231 40.269 18.5231 40.4149C18.5231 40.6475 18.4529 40.8348 18.3125 40.9765C18.1734 41.1183 17.978 41.2023 17.7261 41.2285V41.6229H17.4205V41.2285C17.1644 41.2051 16.9634 41.1142 16.8175 40.9559C16.673 40.7962 16.6007 40.5801 16.6007 40.3075H16.9827C16.9827 40.4989 17.0329 40.6462 17.1334 40.7494C17.2339 40.8527 17.3764 40.9043 17.5609 40.9043C17.7412 40.9043 17.883 40.8609 17.9862 40.7742C18.0895 40.6875 18.1411 40.5691 18.1411 40.419ZM20.939 38.4017L19.6939 41.1934H19.2933L20.5343 38.5008H18.9072V38.1869H20.939V38.4017ZM21.5481 39.686L21.7009 38.1869H23.2413V38.54H22.0251L21.9342 39.3598C22.0815 39.273 22.2488 39.2297 22.436 39.2297C22.7099 39.2297 22.9274 39.3205 23.0885 39.5022C23.2496 39.6826 23.3301 39.9269 23.3301 40.2353C23.3301 40.545 23.2461 40.7893 23.0782 40.9683C22.9116 41.1459 22.6783 41.2347 22.3782 41.2347C22.1125 41.2347 21.8957 41.161 21.7278 41.0137C21.5598 40.8664 21.4641 40.6627 21.4407 40.4025H21.8021C21.8255 40.5746 21.8867 40.7047 21.9859 40.7928C22.085 40.8795 22.2157 40.9229 22.3782 40.9229C22.5558 40.9229 22.6948 40.8623 22.7953 40.7412C22.8972 40.62 22.9481 40.4528 22.9481 40.2394C22.9481 40.0384 22.893 39.8774 22.7829 39.7562C22.6741 39.6337 22.5289 39.5724 22.3472 39.5724C22.1806 39.5724 22.0499 39.6089 21.9549 39.6819L21.8537 39.7645L21.5481 39.686ZM23.774 41.7922L23.5572 41.6435C23.6866 41.4632 23.7541 41.2773 23.7596 41.086V40.7412H24.1333V41.0406C24.1333 41.1796 24.0989 41.3186 24.0301 41.4577C23.9626 41.5967 23.8773 41.7082 23.774 41.7922ZM26.4625 39.9111C26.4625 40.3585 26.3861 40.6909 26.2333 40.9084C26.0805 41.1259 25.8416 41.2347 25.5168 41.2347C25.196 41.2347 24.9586 41.1287 24.8044 40.9167C24.6502 40.7033 24.5704 40.3853 24.5649 39.9627V39.4527C24.5649 39.0108 24.6413 38.6825 24.7941 38.4677C24.9469 38.253 25.1864 38.1456 25.5126 38.1456C25.8361 38.1456 26.0743 38.2496 26.2271 38.4574C26.3799 38.6639 26.4584 38.9833 26.4625 39.4155V39.9111ZM26.0805 39.3887C26.0805 39.0652 26.0351 38.8298 25.9442 38.6825C25.8533 38.5338 25.7095 38.4595 25.5126 38.4595C25.3172 38.4595 25.1747 38.5331 25.0852 38.6804C24.9957 38.8277 24.9496 39.0542 24.9469 39.3598V39.971C24.9469 40.2958 24.9937 40.536 25.0873 40.6916C25.1823 40.8458 25.3254 40.9229 25.5168 40.9229C25.7054 40.9229 25.8451 40.8499 25.9359 40.704C26.0282 40.5581 26.0764 40.3282 26.0805 40.0143V39.3887ZM27.815 39.7954L27.4474 40.1774V41.1934H27.051V38.1869H27.4474V39.6736L28.7834 38.1869H29.2624L28.0793 39.5146L29.3554 41.1934H28.8804L27.815 39.7954Z" fill="#B3BBCD"/>
<path d="M18.1411 52.7979C18.1411 52.6713 18.0964 52.5646 18.0069 52.4779C17.9188 52.3912 17.7694 52.3127 17.5588 52.2425C17.2656 52.153 17.0515 52.0367 16.9166 51.8935C16.7831 51.749 16.7163 51.5659 16.7163 51.3443C16.7163 51.1185 16.7817 50.9334 16.9125 50.7888C17.0446 50.6443 17.2257 50.5583 17.4556 50.5307V50.0785H17.7632V50.5328C17.9945 50.5645 18.1741 50.6615 18.3021 50.8239C18.4315 50.9864 18.4962 51.2087 18.4962 51.4909H18.1163C18.1163 51.2968 18.0702 51.1426 17.978 51.0284C17.8857 50.9141 17.7612 50.857 17.6042 50.857C17.4404 50.857 17.3151 50.8996 17.2284 50.985C17.1417 51.069 17.0983 51.1867 17.0983 51.3381C17.0983 51.4785 17.1438 51.5907 17.2346 51.6747C17.3268 51.7573 17.4776 51.833 17.6868 51.9018C17.8974 51.9692 18.0612 52.0443 18.1783 52.1269C18.2966 52.2081 18.3834 52.3031 18.4384 52.4118C18.4949 52.5206 18.5231 52.6479 18.5231 52.7938C18.5231 53.0265 18.4529 53.2137 18.3125 53.3555C18.1734 53.4972 17.978 53.5812 17.7261 53.6074V54.0018H17.4205V53.6074C17.1644 53.584 16.9634 53.4931 16.8175 53.3348C16.673 53.1751 16.6007 52.959 16.6007 52.6864H16.9827C16.9827 52.8778 17.0329 53.0251 17.1334 53.1283C17.2339 53.2316 17.3764 53.2832 17.5609 53.2832C17.7412 53.2832 17.883 53.2398 17.9862 53.1531C18.0895 53.0664 18.1411 52.948 18.1411 52.7979ZM20.4971 50.5638V50.8879H20.4269C20.1296 50.8935 19.8928 50.9816 19.7166 51.1522C19.5404 51.3229 19.4385 51.5632 19.411 51.8729C19.5693 51.6912 19.7854 51.6003 20.0593 51.6003C20.3209 51.6003 20.5294 51.6926 20.685 51.877C20.8419 52.0615 20.9204 52.2996 20.9204 52.5915C20.9204 52.9012 20.8357 53.149 20.6664 53.3348C20.4985 53.5206 20.2727 53.6136 19.9891 53.6136C19.7014 53.6136 19.4681 53.5034 19.2892 53.2832C19.1102 53.0616 19.0207 52.7766 19.0207 52.4283V52.2817C19.0207 51.7283 19.1384 51.3057 19.3738 51.0139C19.6106 50.7207 19.9623 50.5706 20.429 50.5638H20.4971ZM19.9953 51.9183C19.8646 51.9183 19.7441 51.9575 19.634 52.036C19.5239 52.1145 19.4475 52.2129 19.4048 52.3313V52.4717C19.4048 52.7195 19.4605 52.9191 19.572 53.0705C19.6835 53.2219 19.8226 53.2976 19.9891 53.2976C20.1612 53.2976 20.2961 53.2343 20.3939 53.1077C20.493 52.981 20.5425 52.8151 20.5425 52.61C20.5425 52.4036 20.4923 52.237 20.3918 52.1103C20.2927 51.9823 20.1605 51.9183 19.9953 51.9183ZM23.2578 52.29C23.2578 52.7374 23.1814 53.0698 23.0286 53.2873C22.8758 53.5048 22.637 53.6136 22.3121 53.6136C21.9914 53.6136 21.7539 53.5076 21.5997 53.2956C21.4456 53.0822 21.3657 52.7642 21.3602 52.3416V51.8316C21.3602 51.3897 21.4366 51.0614 21.5894 50.8466C21.7422 50.6319 21.9817 50.5245 22.308 50.5245C22.6315 50.5245 22.8696 50.6285 23.0224 50.8363C23.1752 51.0428 23.2537 51.3622 23.2578 51.7944V52.29ZM22.8758 51.7676C22.8758 51.4441 22.8304 51.2087 22.7395 51.0614C22.6487 50.9127 22.5048 50.8384 22.308 50.8384C22.1125 50.8384 21.97 50.912 21.8806 51.0593C21.7911 51.2066 21.745 51.4331 21.7422 51.7387V52.3499C21.7422 52.6747 21.789 52.915 21.8826 53.0705C21.9776 53.2247 22.1208 53.3018 22.3121 53.3018C22.5007 53.3018 22.6404 53.2288 22.7313 53.0829C22.8235 52.937 22.8717 52.7071 22.8758 52.3932V51.7676ZM23.774 54.1711L23.5572 54.0224C23.6866 53.8421 23.7541 53.6562 23.7596 53.4649V53.1201H24.1333V53.4195C24.1333 53.5585 24.0989 53.6975 24.0301 53.8366C23.9626 53.9756 23.8773 54.0871 23.774 54.1711ZM26.4625 52.29C26.4625 52.7374 26.3861 53.0698 26.2333 53.2873C26.0805 53.5048 25.8416 53.6136 25.5168 53.6136C25.196 53.6136 24.9586 53.5076 24.8044 53.2956C24.6502 53.0822 24.5704 52.7642 24.5649 52.3416V51.8316C24.5649 51.3897 24.6413 51.0614 24.7941 50.8466C24.9469 50.6319 25.1864 50.5245 25.5126 50.5245C25.8361 50.5245 26.0743 50.6285 26.2271 50.8363C26.3799 51.0428 26.4584 51.3622 26.4625 51.7944V52.29ZM26.0805 51.7676C26.0805 51.4441 26.0351 51.2087 25.9442 51.0614C25.8533 50.9127 25.7095 50.8384 25.5126 50.8384C25.3172 50.8384 25.1747 50.912 25.0852 51.0593C24.9957 51.2066 24.9496 51.4331 24.9469 51.7387V52.3499C24.9469 52.6747 24.9937 52.915 25.0873 53.0705C25.1823 53.2247 25.3254 53.3018 25.5168 53.3018C25.7054 53.3018 25.8451 53.2288 25.9359 53.0829C26.0282 52.937 26.0764 52.7071 26.0805 52.3932V51.7676ZM27.815 52.1744L27.4474 52.5564V53.5723H27.051V50.5658H27.4474V52.0525L28.7834 50.5658H29.2624L28.0793 51.8935L29.3554 53.5723H28.8804L27.815 52.1744Z" fill="#B3BBCD"/>
<path d="M18.1411 65.1749C18.1411 65.0483 18.0964 64.9416 18.0069 64.8548C17.9188 64.7681 17.7694 64.6897 17.5588 64.6194C17.2656 64.53 17.0515 64.4137 16.9166 64.2705C16.7831 64.1259 16.7163 63.9429 16.7163 63.7212C16.7163 63.4955 16.7817 63.3103 16.9125 63.1658C17.0446 63.0212 17.2257 62.9352 17.4556 62.9077V62.4555H17.7632V62.9097C17.9945 62.9414 18.1741 63.0385 18.3021 63.2009C18.4315 63.3633 18.4962 63.5856 18.4962 63.8678H18.1163C18.1163 63.6737 18.0702 63.5196 17.978 63.4053C17.8857 63.2911 17.7612 63.2339 17.6042 63.2339C17.4404 63.2339 17.3151 63.2766 17.2284 63.3619C17.1417 63.4459 17.0983 63.5636 17.0983 63.715C17.0983 63.8554 17.1438 63.9676 17.2346 64.0516C17.3268 64.1342 17.4776 64.2099 17.6868 64.2787C17.8974 64.3462 18.0612 64.4212 18.1783 64.5038C18.2966 64.585 18.3834 64.68 18.4384 64.7888C18.4949 64.8975 18.5231 65.0248 18.5231 65.1708C18.5231 65.4034 18.4529 65.5906 18.3125 65.7324C18.1734 65.8742 17.978 65.9582 17.7261 65.9843V66.3787H17.4205V65.9843C17.1644 65.9609 16.9634 65.8701 16.8175 65.7118C16.673 65.5521 16.6007 65.336 16.6007 65.0634H16.9827C16.9827 65.2547 17.0329 65.402 17.1334 65.5053C17.2339 65.6085 17.3764 65.6601 17.5609 65.6601C17.7412 65.6601 17.883 65.6168 17.9862 65.5301C18.0895 65.4433 18.1411 65.3249 18.1411 65.1749ZM20.6107 64.9395H21.0278V65.2513H20.6107V65.9492H20.2266V65.2513H18.8576V65.0262L20.2039 62.9428H20.6107V64.9395ZM19.2912 64.9395H20.2266V63.4652L20.1812 63.5478L19.2912 64.9395ZM21.5481 64.4419L21.7009 62.9428H23.2413V63.2959H22.0251L21.9342 64.1156C22.0815 64.0289 22.2488 63.9855 22.436 63.9855C22.7099 63.9855 22.9274 64.0764 23.0885 64.2581C23.2496 64.4384 23.3301 64.6828 23.3301 64.9911C23.3301 65.3009 23.2461 65.5452 23.0782 65.7241C22.9116 65.9017 22.6783 65.9905 22.3782 65.9905C22.1125 65.9905 21.8957 65.9169 21.7278 65.7696C21.5598 65.6223 21.4641 65.4185 21.4407 65.1584H21.8021C21.8255 65.3304 21.8867 65.4605 21.9859 65.5486C22.085 65.6354 22.2157 65.6787 22.3782 65.6787C22.5558 65.6787 22.6948 65.6182 22.7953 65.497C22.8972 65.3759 22.9481 65.2086 22.9481 64.9953C22.9481 64.7943 22.893 64.6332 22.7829 64.5121C22.6741 64.3896 22.5289 64.3283 22.3472 64.3283C22.1806 64.3283 22.0499 64.3648 21.9549 64.4377L21.8537 64.5203L21.5481 64.4419ZM23.774 66.548L23.5572 66.3994C23.6866 66.219 23.7541 66.0332 23.7596 65.8418V65.497H24.1333V65.7964C24.1333 65.9355 24.0989 66.0745 24.0301 66.2135C23.9626 66.3526 23.8773 66.4641 23.774 66.548ZM26.4625 64.6669C26.4625 65.1143 26.3861 65.4468 26.2333 65.6643C26.0805 65.8818 25.8416 65.9905 25.5168 65.9905C25.196 65.9905 24.9586 65.8845 24.8044 65.6725C24.6502 65.4592 24.5704 65.1412 24.5649 64.7186V64.2085C24.5649 63.7667 24.6413 63.4383 24.7941 63.2236C24.9469 63.0089 25.1864 62.9015 25.5126 62.9015C25.8361 62.9015 26.0743 63.0054 26.2271 63.2133C26.3799 63.4198 26.4584 63.7391 26.4625 64.1714V64.6669ZM26.0805 64.1445C26.0805 63.821 26.0351 63.5856 25.9442 63.4383C25.8533 63.2897 25.7095 63.2153 25.5126 63.2153C25.3172 63.2153 25.1747 63.289 25.0852 63.4363C24.9957 63.5836 24.9496 63.81 24.9469 64.1156V64.7268C24.9469 65.0517 24.9937 65.2919 25.0873 65.4475C25.1823 65.6016 25.3254 65.6787 25.5168 65.6787C25.7054 65.6787 25.8451 65.6058 25.9359 65.4598C26.0282 65.3139 26.0764 65.084 26.0805 64.7702V64.1445ZM27.815 64.5513L27.4474 64.9333V65.9492H27.051V62.9428H27.4474V64.4295L28.7834 62.9428H29.2624L28.0793 64.2705L29.3554 65.9492H28.8804L27.815 64.5513Z" fill="#B3BBCD"/>
<path d="M18.1411 77.5523C18.1411 77.4257 18.0964 77.319 18.0069 77.2323C17.9188 77.1456 17.7694 77.0671 17.5588 76.9969C17.2656 76.9074 17.0515 76.7911 16.9166 76.6479C16.7831 76.5034 16.7163 76.3203 16.7163 76.0987C16.7163 75.8729 16.7817 75.6878 16.9125 75.5432C17.0446 75.3987 17.2257 75.3127 17.4556 75.2851V74.8329H17.7632V75.2872C17.9945 75.3188 18.1741 75.4159 18.3021 75.5783C18.4315 75.7408 18.4962 75.9631 18.4962 76.2453H18.1163C18.1163 76.0512 18.0702 75.897 17.978 75.7828C17.8857 75.6685 17.7612 75.6114 17.6042 75.6114C17.4404 75.6114 17.3151 75.654 17.2284 75.7394C17.1417 75.8234 17.0983 75.9411 17.0983 76.0925C17.0983 76.2329 17.1438 76.3451 17.2346 76.4291C17.3268 76.5116 17.4776 76.5874 17.6868 76.6562C17.8974 76.7236 18.0612 76.7987 18.1783 76.8813C18.2966 76.9625 18.3834 77.0575 18.4384 77.1662C18.4949 77.275 18.5231 77.4023 18.5231 77.5482C18.5231 77.7808 18.4529 77.9681 18.3125 78.1098C18.1734 78.2516 17.978 78.3356 17.7261 78.3618V78.7562H17.4205V78.3618C17.1644 78.3384 16.9634 78.2475 16.8175 78.0892C16.673 77.9295 16.6007 77.7134 16.6007 77.4408H16.9827C16.9827 77.6322 17.0329 77.7795 17.1334 77.8827C17.2339 77.986 17.3764 78.0376 17.5609 78.0376C17.7412 78.0376 17.883 77.9942 17.9862 77.9075C18.0895 77.8208 18.1411 77.7024 18.1411 77.5523ZM19.5535 76.6376H19.8405C20.0208 76.6349 20.1626 76.5874 20.2658 76.4951C20.3691 76.4029 20.4207 76.2783 20.4207 76.1214C20.4207 75.769 20.2452 75.5928 19.8942 75.5928C19.729 75.5928 19.5968 75.6403 19.4977 75.7353C19.4 75.8289 19.3511 75.9534 19.3511 76.109H18.9691C18.9691 75.8709 19.0558 75.6733 19.2293 75.5164C19.4041 75.3581 19.6257 75.2789 19.8942 75.2789C20.1777 75.2789 20.4 75.3539 20.5611 75.504C20.7222 75.654 20.8027 75.8626 20.8027 76.1296C20.8027 76.2604 20.76 76.3871 20.6747 76.5096C20.5907 76.6321 20.4758 76.7236 20.3298 76.7842C20.495 76.8365 20.6224 76.9232 20.7118 77.0444C20.8027 77.1655 20.8481 77.3135 20.8481 77.4883C20.8481 77.7581 20.76 77.9722 20.5838 78.1305C20.4076 78.2888 20.1784 78.368 19.8962 78.368C19.614 78.368 19.3841 78.2916 19.2066 78.1388C19.0304 77.986 18.9423 77.7843 18.9423 77.5338H19.3263C19.3263 77.6921 19.3779 77.8187 19.4812 77.9137C19.5844 78.0087 19.7228 78.0562 19.8962 78.0562C20.0807 78.0562 20.2218 78.008 20.3195 77.9116C20.4173 77.8153 20.4661 77.6769 20.4661 77.4966C20.4661 77.3218 20.4124 77.1875 20.3051 77.0939C20.1977 77.0003 20.0428 76.9522 19.8405 76.9494H19.5535V76.6376ZM23.2578 77.0444C23.2578 77.4918 23.1814 77.8242 23.0286 78.0417C22.8758 78.2592 22.637 78.368 22.3121 78.368C21.9914 78.368 21.7539 78.262 21.5997 78.05C21.4456 77.8366 21.3657 77.5186 21.3602 77.096V76.586C21.3602 76.1441 21.4366 75.8158 21.5894 75.601C21.7422 75.3863 21.9817 75.2789 22.308 75.2789C22.6315 75.2789 22.8696 75.3829 23.0224 75.5907C23.1752 75.7972 23.2537 76.1166 23.2578 76.5488V77.0444ZM22.8758 76.522C22.8758 76.1985 22.8304 75.9631 22.7395 75.8158C22.6487 75.6671 22.5048 75.5928 22.308 75.5928C22.1125 75.5928 21.97 75.6664 21.8806 75.8137C21.7911 75.961 21.745 76.1875 21.7422 76.4931V77.1043C21.7422 77.4291 21.789 77.6693 21.8826 77.8249C21.9776 77.9791 22.1208 78.0562 22.3121 78.0562C22.5007 78.0562 22.6404 77.9832 22.7313 77.8373C22.8235 77.6914 22.8717 77.4615 22.8758 77.1476V76.522ZM23.774 78.9255L23.5572 78.7768C23.6866 78.5965 23.7541 78.4106 23.7596 78.2193V77.8745H24.1333V78.1739C24.1333 78.3129 24.0989 78.4519 24.0301 78.591C23.9626 78.73 23.8773 78.8415 23.774 78.9255ZM26.4625 77.0444C26.4625 77.4918 26.3861 77.8242 26.2333 78.0417C26.0805 78.2592 25.8416 78.368 25.5168 78.368C25.196 78.368 24.9586 78.262 24.8044 78.05C24.6502 77.8366 24.5704 77.5186 24.5649 77.096V76.586C24.5649 76.1441 24.6413 75.8158 24.7941 75.601C24.9469 75.3863 25.1864 75.2789 25.5126 75.2789C25.8361 75.2789 26.0743 75.3829 26.2271 75.5907C26.3799 75.7972 26.4584 76.1166 26.4625 76.5488V77.0444ZM26.0805 76.522C26.0805 76.1985 26.0351 75.9631 25.9442 75.8158C25.8533 75.6671 25.7095 75.5928 25.5126 75.5928C25.3172 75.5928 25.1747 75.6664 25.0852 75.8137C24.9957 75.961 24.9496 76.1875 24.9469 76.4931V77.1043C24.9469 77.4291 24.9937 77.6693 25.0873 77.8249C25.1823 77.9791 25.3254 78.0562 25.5168 78.0562C25.7054 78.0562 25.8451 77.9832 25.9359 77.8373C26.0282 77.6914 26.0764 77.4615 26.0805 77.1476V76.522ZM27.815 76.9287L27.4474 77.3107V78.3267H27.051V75.3202H27.4474V76.8069L28.7834 75.3202H29.2624L28.0793 76.6479L29.3554 78.3267H28.8804L27.815 76.9287Z" fill="#B3BBCD"/>
<path d="M18.1411 89.9298C18.1411 89.8031 18.0964 89.6964 18.0069 89.6097C17.9188 89.523 17.7694 89.4445 17.5588 89.3743C17.2656 89.2849 17.0515 89.1685 16.9166 89.0254C16.7831 88.8808 16.7163 88.6977 16.7163 88.4761C16.7163 88.2504 16.7817 88.0652 16.9125 87.9207C17.0446 87.7761 17.2257 87.6901 17.4556 87.6626V87.2104H17.7632V87.6646C17.9945 87.6963 18.1741 87.7933 18.3021 87.9558C18.4315 88.1182 18.4962 88.3405 18.4962 88.6227H18.1163C18.1163 88.4286 18.0702 88.2744 17.978 88.1602C17.8857 88.0459 17.7612 87.9888 17.6042 87.9888C17.4404 87.9888 17.3151 88.0315 17.2284 88.1168C17.1417 88.2008 17.0983 88.3185 17.0983 88.4699C17.0983 88.6103 17.1438 88.7225 17.2346 88.8065C17.3268 88.8891 17.4776 88.9648 17.6868 89.0336C17.8974 89.1011 18.0612 89.1761 18.1783 89.2587C18.2966 89.3399 18.3834 89.4349 18.4384 89.5436C18.4949 89.6524 18.5231 89.7797 18.5231 89.9256C18.5231 90.1583 18.4529 90.3455 18.3125 90.4873C18.1734 90.6291 17.978 90.713 17.7261 90.7392V91.1336H17.4205V90.7392C17.1644 90.7158 16.9634 90.6249 16.8175 90.4666C16.673 90.307 16.6007 90.0908 16.6007 89.8183H16.9827C16.9827 90.0096 17.0329 90.1569 17.1334 90.2602C17.2339 90.3634 17.3764 90.415 17.5609 90.415C17.7412 90.415 17.883 90.3717 17.9862 90.2849C18.0895 90.1982 18.1411 90.0798 18.1411 89.9298ZM20.2534 90.7041H19.8694V88.1581L19.0992 88.441V88.0941L20.1936 87.6832H20.2534V90.7041ZM21.5481 89.1968L21.7009 87.6977H23.2413V88.0508H22.0251L21.9342 88.8705C22.0815 88.7838 22.2488 88.7404 22.436 88.7404C22.7099 88.7404 22.9274 88.8313 23.0885 89.013C23.2496 89.1933 23.3301 89.4377 23.3301 89.746C23.3301 90.0557 23.2461 90.3001 23.0782 90.479C22.9116 90.6566 22.6783 90.7454 22.3782 90.7454C22.1125 90.7454 21.8957 90.6718 21.7278 90.5245C21.5598 90.3772 21.4641 90.1734 21.4407 89.9133H21.8021C21.8255 90.0853 21.8867 90.2154 21.9859 90.3035C22.085 90.3902 22.2157 90.4336 22.3782 90.4336C22.5558 90.4336 22.6948 90.373 22.7953 90.2519C22.8972 90.1308 22.9481 89.9635 22.9481 89.7501C22.9481 89.5492 22.893 89.3881 22.7829 89.267C22.6741 89.1444 22.5289 89.0832 22.3472 89.0832C22.1806 89.0832 22.0499 89.1197 21.9549 89.1926L21.8537 89.2752L21.5481 89.1968ZM23.774 91.3029L23.5572 91.1542C23.6866 90.9739 23.7541 90.7881 23.7596 90.5967V90.2519H24.1333V90.5513C24.1333 90.6903 24.0989 90.8294 24.0301 90.9684C23.9626 91.1074 23.8773 91.2189 23.774 91.3029ZM26.4625 89.4218C26.4625 89.8692 26.3861 90.2017 26.2333 90.4192C26.0805 90.6366 25.8416 90.7454 25.5168 90.7454C25.196 90.7454 24.9586 90.6394 24.8044 90.4274C24.6502 90.214 24.5704 89.8961 24.5649 89.4734V88.9634C24.5649 88.5215 24.6413 88.1932 24.7941 87.9785C24.9469 87.7637 25.1864 87.6564 25.5126 87.6564C25.8361 87.6564 26.0743 87.7603 26.2271 87.9682C26.3799 88.1746 26.4584 88.494 26.4625 88.9263V89.4218ZM26.0805 88.8994C26.0805 88.5759 26.0351 88.3405 25.9442 88.1932C25.8533 88.0446 25.7095 87.9702 25.5126 87.9702C25.3172 87.9702 25.1747 88.0439 25.0852 88.1912C24.9957 88.3385 24.9496 88.5649 24.9469 88.8705V89.4817C24.9469 89.8066 24.9937 90.0468 25.0873 90.2023C25.1823 90.3565 25.3254 90.4336 25.5168 90.4336C25.7054 90.4336 25.8451 90.3606 25.9359 90.2147C26.0282 90.0688 26.0764 89.8389 26.0805 89.5251V88.8994ZM27.815 89.3062L27.4474 89.6882V90.7041H27.051V87.6977H27.4474V89.1844L28.7834 87.6977H29.2624L28.0793 89.0254L29.3554 90.7041H28.8804L27.815 89.3062Z" fill="#B3BBCD"/>
<path d="M26.3715 102.308C26.3715 102.182 26.3267 102.075 26.2373 101.988C26.1492 101.901 25.9998 101.823 25.7892 101.753C25.496 101.663 25.2819 101.547 25.147 101.404C25.0135 101.259 24.9467 101.076 24.9467 100.855C24.9467 100.629 25.0121 100.444 25.1429 100.299C25.275 100.155 25.4561 100.069 25.6859 100.041V99.5888H25.9936V100.043C26.2249 100.075 26.4045 100.172 26.5325 100.334C26.6619 100.497 26.7266 100.719 26.7266 101.001H26.3467C26.3467 100.807 26.3006 100.653 26.2084 100.539C26.1161 100.424 25.9915 100.367 25.8346 100.367C25.6708 100.367 25.5455 100.41 25.4588 100.495C25.3721 100.579 25.3287 100.697 25.3287 100.848C25.3287 100.989 25.3742 101.101 25.465 101.185C25.5572 101.268 25.708 101.343 25.9172 101.412C26.1278 101.479 26.2916 101.555 26.4087 101.637C26.527 101.718 26.6138 101.813 26.6688 101.922C26.7253 102.031 26.7535 102.158 26.7535 102.304C26.7535 102.537 26.6833 102.724 26.5429 102.866C26.4038 103.007 26.2084 103.091 25.9564 103.118V103.512H25.6508V103.118C25.3948 103.094 25.1938 103.003 25.0479 102.845C24.9034 102.685 24.8311 102.469 24.8311 102.197H25.2131C25.2131 102.388 25.2633 102.535 25.3638 102.639C25.4643 102.742 25.6068 102.793 25.7913 102.793C25.9716 102.793 26.1134 102.75 26.2166 102.663C26.3199 102.577 26.3715 102.458 26.3715 102.308ZM29.1136 101.8C29.1136 102.248 29.0372 102.58 28.8844 102.798C28.7316 103.015 28.4928 103.124 28.1679 103.124C27.8472 103.124 27.6097 103.018 27.4555 102.806C27.3014 102.592 27.2215 102.274 27.216 101.852V101.342C27.216 100.9 27.2924 100.572 27.4452 100.357C27.598 100.142 27.8375 100.035 28.1638 100.035C28.4873 100.035 28.7254 100.139 28.8782 100.347C29.031 100.553 29.1095 100.872 29.1136 101.305V101.8ZM28.7316 101.278C28.7316 100.954 28.6862 100.719 28.5953 100.572C28.5045 100.423 28.3606 100.349 28.1638 100.349C27.9683 100.349 27.8258 100.422 27.7364 100.57C27.6469 100.717 27.6008 100.943 27.598 101.249V101.86C27.598 102.185 27.6448 102.425 27.7384 102.581C27.8334 102.735 27.9766 102.812 28.1679 102.812C28.3565 102.812 28.4962 102.739 28.5871 102.593C28.6793 102.447 28.7275 102.217 28.7316 101.903V101.278Z" fill="#B3BBCD"/>
<line x1="36.1055" y1="41.2934" x2="150.929" y2="41.2934" stroke="#DBE2F1" stroke-width="0.422884"/>
<line x1="36.1055" y1="53.6069" x2="150.929" y2="53.6069" stroke="#DBE2F1" stroke-width="0.422884"/>
<line x1="36.1055" y1="65.9199" x2="150.929" y2="65.9199" stroke="#DBE2F1" stroke-width="0.422884"/>
<line x1="36.1055" y1="78.2319" x2="150.929" y2="78.2319" stroke="#DBE2F1" stroke-width="0.422884"/>
<line x1="36.1055" y1="91.0586" x2="150.929" y2="91.0586" stroke="#DBE2F1" stroke-width="0.422884"/>
<line x1="36.1055" y1="103.372" x2="150.929" y2="103.372" stroke="#DBE2F1" stroke-width="0.422884"/>
<rect x="37.9062" y="81.2856" width="3.78334" height="21.7757" fill="#19153E"/>
<rect x="37.9062" y="81.2856" width="3.78334" height="21.7757" fill="url(#paint0_linear)"/>
<rect x="81.1455" y="75.8418" width="3.78334" height="27.2196" fill="#19153E"/>
<rect x="81.1455" y="75.8418" width="3.78334" height="27.2196" fill="url(#paint1_linear)"/>
<rect x="59.5234" y="80.2656" width="3.78334" height="22.7964" fill="#19153E"/>
<rect x="59.5234" y="80.2656" width="3.78334" height="22.7964" fill="url(#paint2_linear)"/>
<rect x="102.763" y="60.5298" width="3.78334" height="42.5306" fill="#19153E"/>
<rect x="102.763" y="60.5298" width="3.78334" height="42.5306" fill="url(#paint3_linear)"/>
<rect x="140.595" y="44.5391" width="3.78334" height="58.5221" fill="#19153E"/>
<rect x="140.595" y="44.5391" width="3.78334" height="58.5221" fill="url(#paint4_linear)"/>
<rect x="124.383" y="51.3442" width="3.78334" height="51.7172" fill="#19153E"/>
<rect x="124.383" y="51.3442" width="3.78334" height="51.7172" fill="url(#paint5_linear)"/>
<rect x="43.3105" y="88.0898" width="3.78334" height="14.9708" fill="#19153E"/>
<rect x="43.3105" y="88.0898" width="3.78334" height="14.9708" fill="url(#paint6_linear)"/>
<rect x="86.5479" y="71.7593" width="3.78334" height="31.3025" fill="#19153E"/>
<rect x="86.5479" y="71.7593" width="3.78334" height="31.3025" fill="url(#paint7_linear)"/>
<rect x="64.9307" y="71.7593" width="3.78334" height="31.3025" fill="#19153E"/>
<rect x="64.9307" y="71.7593" width="3.78334" height="31.3025" fill="url(#paint8_linear)"/>
<rect x="108.168" y="70.7485" width="3.78334" height="32.3217" fill="#19153E"/>
<rect x="108.168" y="70.7485" width="3.78334" height="32.3217" fill="url(#paint9_linear)"/>
<rect x="146.002" y="36.3735" width="3.78334" height="66.688" fill="#19153E"/>
<rect x="146.002" y="36.3735" width="3.78334" height="66.688" fill="url(#paint10_linear)"/>
<rect x="129.788" y="41.8179" width="3.78334" height="61.2441" fill="#19153E"/>
<rect x="129.788" y="41.8179" width="3.78334" height="61.2441" fill="url(#paint11_linear)"/>
<rect x="48.7158" y="83.6685" width="3.78334" height="19.394" fill="#19153E"/>
<rect x="48.7158" y="83.6685" width="3.78334" height="19.394" fill="url(#paint12_linear)"/>
<rect x="91.9531" y="56.7896" width="3.78334" height="46.2733" fill="#19153E"/>
<rect x="91.9531" y="56.7896" width="3.78334" height="46.2733" fill="url(#paint13_linear)"/>
<rect x="70.3354" y="69.0376" width="3.78334" height="34.0245" fill="#19153E"/>
<rect x="70.3354" y="69.0376" width="3.78334" height="34.0245" fill="url(#paint14_linear)"/>
<rect x="113.573" y="60.5298" width="3.78334" height="42.5306" fill="#19153E"/>
<rect x="113.573" y="60.5298" width="3.78334" height="42.5306" fill="url(#paint15_linear)"/>
<rect x="54.1206" y="71.7593" width="3.78334" height="31.3025" fill="#19153E"/>
<rect x="54.1206" y="71.7593" width="3.78334" height="31.3025" fill="url(#paint16_linear)"/>
<rect x="97.3604" y="68.0166" width="3.78334" height="35.0452" fill="#19153E"/>
<rect x="97.3604" y="68.0166" width="3.78334" height="35.0452" fill="url(#paint17_linear)"/>
<rect x="135.192" y="62.5391" width="3.78334" height="40.5304" fill="#19153E"/>
<rect x="135.192" y="62.5391" width="3.78334" height="40.5304" fill="url(#paint18_linear)"/>
<rect x="75.7383" y="63.5928" width="3.78334" height="39.4684" fill="#19153E"/>
<rect x="75.7383" y="63.5928" width="3.78334" height="39.4684" fill="url(#paint19_linear)"/>
<rect x="118.978" y="54.0669" width="3.78334" height="48.9953" fill="#19153E"/>
<rect x="118.978" y="54.0669" width="3.78334" height="48.9953" fill="url(#paint20_linear)"/>
<rect width="3.78334" height="9.0184" transform="matrix(-1 0 0 1 111.951 94.0435)" fill="#E5E5E5"/>
<rect width="3.78334" height="9.0184" transform="matrix(-1 0 0 1 111.951 94.0435)" fill="#7E298C"/>
<rect width="3.78334" height="7.55291" transform="matrix(-1 0 0 1 133.573 95.5088)" fill="#E5E5E5"/>
<rect width="3.78334" height="7.55291" transform="matrix(-1 0 0 1 133.573 95.5088)" fill="#7E298C"/>
<rect width="3.78334" height="14.0913" transform="matrix(-1 0 0 1 90.333 88.9717)" fill="#E5E5E5"/>
<rect width="3.78334" height="14.0913" transform="matrix(-1 0 0 1 90.333 88.9717)" fill="#7E298C"/>
<rect width="3.78334" height="19.3896" transform="matrix(-1 0 0 1 52.501 83.6733)" fill="#E5E5E5"/>
<rect width="3.78334" height="19.3896" transform="matrix(-1 0 0 1 52.501 83.6733)" fill="#7E298C"/>
<rect width="3.78334" height="17.135" transform="matrix(-1 0 0 1 68.7139 85.9268)" fill="#E5E5E5"/>
<rect width="3.78334" height="17.135" transform="matrix(-1 0 0 1 68.7139 85.9268)" fill="#7E298C"/>
<rect width="3.78334" height="4.96012" transform="matrix(-1 0 0 1 149.785 98.1011)" fill="#E5E5E5"/>
<rect width="3.78334" height="4.96012" transform="matrix(-1 0 0 1 149.785 98.1011)" fill="#7E298C"/>
<rect width="3.78334" height="10.3712" transform="matrix(-1 0 0 1 106.548 92.6914)" fill="#E5E5E5"/>
<rect width="3.78334" height="10.3712" transform="matrix(-1 0 0 1 106.548 92.6914)" fill="#7E298C"/>
<rect width="3.78334" height="10.3712" transform="matrix(-1 0 0 1 128.166 92.6914)" fill="#E5E5E5"/>
<rect width="3.78334" height="10.3712" transform="matrix(-1 0 0 1 128.166 92.6914)" fill="#7E298C"/>
<rect width="3.78334" height="13.0767" transform="matrix(-1 0 0 1 84.9287 89.9858)" fill="#E5E5E5"/>
<rect width="3.78334" height="13.0767" transform="matrix(-1 0 0 1 84.9287 89.9858)" fill="#7E298C"/>
<rect width="3.78334" height="22.0951" transform="matrix(-1 0 0 1 47.0938 80.9673)" fill="#E5E5E5"/>
<rect width="3.78334" height="22.0951" transform="matrix(-1 0 0 1 47.0938 80.9673)" fill="#7E298C"/>
<rect width="3.78334" height="20.2914" transform="matrix(-1 0 0 1 63.3086 82.7715)" fill="#E5E5E5"/>
<rect width="3.78334" height="20.2914" transform="matrix(-1 0 0 1 63.3086 82.7715)" fill="#7E298C"/>
<rect width="3.78334" height="6.42561" transform="matrix(-1 0 0 1 144.38 96.6367)" fill="#E5E5E5"/>
<rect width="3.78334" height="6.42561" transform="matrix(-1 0 0 1 144.38 96.6367)" fill="#7E298C"/>
<rect width="3.78334" height="19.0005" transform="matrix(-1 0 0 1 101.143 84.0688)" fill="#E5E5E5"/>
<rect width="3.78334" height="19.0005" transform="matrix(-1 0 0 1 101.143 84.0688)" fill="#7E298C"/>
<rect width="3.78334" height="22.1026" transform="matrix(-1 0 0 1 122.761 80.9673)" fill="#E5E5E5"/>
<rect width="3.78334" height="22.1026" transform="matrix(-1 0 0 1 122.761 80.9673)" fill="#7E298C"/>
<rect width="3.78334" height="11.8" transform="matrix(-1 0 0 1 79.5234 91.27)" fill="#E5E5E5"/>
<rect width="3.78334" height="11.8" transform="matrix(-1 0 0 1 79.5234 91.27)" fill="#7E298C"/>
<rect width="3.78334" height="18.7132" transform="matrix(-1 0 0 1 41.689 84.3496)" fill="#E5E5E5"/>
<rect width="3.78334" height="18.7132" transform="matrix(-1 0 0 1 41.689 84.3496)" fill="#7E298C"/>
<rect width="3.78334" height="10.3712" transform="matrix(-1 0 0 1 138.976 92.6914)" fill="#E5E5E5"/>
<rect width="3.78334" height="10.3712" transform="matrix(-1 0 0 1 138.976 92.6914)" fill="#7E298C"/>
<rect width="3.78334" height="11.6112" transform="matrix(-1 0 0 1 95.7363 91.4512)" fill="#E5E5E5"/>
<rect width="3.78334" height="11.6112" transform="matrix(-1 0 0 1 95.7363 91.4512)" fill="#7E298C"/>
<rect width="3.78334" height="16.2331" transform="matrix(-1 0 0 1 57.9038 86.8296)" fill="#E5E5E5"/>
<rect width="3.78334" height="16.2331" transform="matrix(-1 0 0 1 57.9038 86.8296)" fill="#7E298C"/>
<rect width="3.78334" height="13.0767" transform="matrix(-1 0 0 1 117.358 89.9858)" fill="#E5E5E5"/>
<rect width="3.78334" height="13.0767" transform="matrix(-1 0 0 1 117.358 89.9858)" fill="#7E298C"/>
<rect width="3.78334" height="16.2331" transform="matrix(-1 0 0 1 74.1187 86.8296)" fill="#E5E5E5"/>
<rect width="3.78334" height="16.2331" transform="matrix(-1 0 0 1 74.1187 86.8296)" fill="#7E298C"/>
<defs>
<filter id="filter0_d" x="0.0398146" y="0.308465" width="166.766" height="124.766" filterUnits="userSpaceOnUse" color-interpolation-filters="sRGB">
<feFlood flood-opacity="0" result="BackgroundImageFix"/>
<feColorMatrix in="SourceAlpha" type="matrix" values="0 0 0 0 0 0 0 0 0 0 0 0 0 0 0 0 0 0 127 0"/>
<feOffset dx="0.422884" dy="1.69153"/>
<feGaussianBlur stdDeviation="1.69153"/>
<feColorMatrix type="matrix" values="0 0 0 0 0 0 0 0 0 0 0 0 0 0 0 0 0 0 0.05 0"/>
<feBlend mode="normal" in2="BackgroundImageFix" result="effect1_dropShadow"/>
<feBlend mode="normal" in="SourceGraphic" in2="effect1_dropShadow" result="shape"/>
</filter>
<linearGradient id="paint0_linear" x1="37.9063" y1="111.101" x2="44.8091" y2="110.531" gradientUnits="userSpaceOnUse">
<stop stop-color="#0094FF"/>
<stop offset="1" stop-color="#13B8FF"/>
</linearGradient>
<linearGradient id="paint1_linear" x1="81.1455" y1="113.11" x2="88.0652" y2="112.653" gradientUnits="userSpaceOnUse">
<stop stop-color="#0094FF"/>
<stop offset="1" stop-color="#13B8FF"/>
</linearGradient>
<linearGradient id="paint2_linear" x1="59.5234" y1="111.478" x2="66.4304" y2="110.933" gradientUnits="userSpaceOnUse">
<stop stop-color="#0094FF"/>
<stop offset="1" stop-color="#13B8FF"/>
</linearGradient>
<linearGradient id="paint3_linear" x1="102.763" y1="118.762" x2="109.7" y2="118.469" gradientUnits="userSpaceOnUse">
<stop stop-color="#0094FF"/>
<stop offset="1" stop-color="#13B8FF"/>
</linearGradient>
<linearGradient id="paint4_linear" x1="140.595" y1="124.667" x2="147.539" y2="124.453" gradientUnits="userSpaceOnUse">
<stop stop-color="#0094FF"/>
<stop offset="1" stop-color="#13B8FF"/>
</linearGradient>
<linearGradient id="paint5_linear" x1="124.383" y1="122.155" x2="131.324" y2="121.913" gradientUnits="userSpaceOnUse">
<stop stop-color="#0094FF"/>
<stop offset="1" stop-color="#13B8FF"/>
</linearGradient>
<linearGradient id="paint6_linear" x1="43.3105" y1="108.588" x2="50.1616" y2="107.765" gradientUnits="userSpaceOnUse">
<stop stop-color="#0094FF"/>
<stop offset="1" stop-color="#13B8FF"/>
</linearGradient>
<linearGradient id="paint7_linear" x1="86.5479" y1="114.618" x2="93.4749" y2="114.22" gradientUnits="userSpaceOnUse">
<stop stop-color="#0094FF"/>
<stop offset="1" stop-color="#13B8FF"/>
</linearGradient>
<linearGradient id="paint8_linear" x1="64.9307" y1="114.618" x2="71.8577" y2="114.22" gradientUnits="userSpaceOnUse">
<stop stop-color="#0094FF"/>
<stop offset="1" stop-color="#13B8FF"/>
</linearGradient>
<linearGradient id="paint9_linear" x1="108.168" y1="115.003" x2="115.096" y2="114.617" gradientUnits="userSpaceOnUse">
<stop stop-color="#0094FF"/>
<stop offset="1" stop-color="#13B8FF"/>
</linearGradient>
<linearGradient id="paint10_linear" x1="146.002" y1="127.682" x2="152.947" y2="127.494" gradientUnits="userSpaceOnUse">
<stop stop-color="#0094FF"/>
<stop offset="1" stop-color="#13B8FF"/>
</linearGradient>
<linearGradient id="paint11_linear" x1="129.788" y1="125.672" x2="136.732" y2="125.468" gradientUnits="userSpaceOnUse">
<stop stop-color="#0094FF"/>
<stop offset="1" stop-color="#13B8FF"/>
</linearGradient>
<linearGradient id="paint12_linear" x1="48.7158" y1="110.222" x2="55.6065" y2="109.583" gradientUnits="userSpaceOnUse">
<stop stop-color="#0094FF"/>
<stop offset="1" stop-color="#13B8FF"/>
</linearGradient>
<linearGradient id="paint13_linear" x1="91.9531" y1="120.146" x2="98.8925" y2="119.877" gradientUnits="userSpaceOnUse">
<stop stop-color="#0094FF"/>
<stop offset="1" stop-color="#13B8FF"/>
</linearGradient>
<linearGradient id="paint14_linear" x1="70.3354" y1="115.623" x2="77.266" y2="115.257" gradientUnits="userSpaceOnUse">
<stop stop-color="#0094FF"/>
<stop offset="1" stop-color="#13B8FF"/>
</linearGradient>
<linearGradient id="paint15_linear" x1="113.573" y1="118.762" x2="120.51" y2="118.469" gradientUnits="userSpaceOnUse">
<stop stop-color="#0094FF"/>
<stop offset="1" stop-color="#13B8FF"/>
</linearGradient>
<linearGradient id="paint16_linear" x1="54.1206" y1="114.618" x2="61.0476" y2="114.22" gradientUnits="userSpaceOnUse">
<stop stop-color="#0094FF"/>
<stop offset="1" stop-color="#13B8FF"/>
</linearGradient>
<linearGradient id="paint17_linear" x1="97.3604" y1="116" x2="104.292" y2="115.644" gradientUnits="userSpaceOnUse">
<stop stop-color="#0094FF"/>
<stop offset="1" stop-color="#13B8FF"/>
</linearGradient>
<linearGradient id="paint18_linear" x1="135.192" y1="118.033" x2="142.129" y2="117.725" gradientUnits="userSpaceOnUse">
<stop stop-color="#0094FF"/>
<stop offset="1" stop-color="#13B8FF"/>
</linearGradient>
<linearGradient id="paint19_linear" x1="75.7383" y1="117.632" x2="82.6738" y2="117.316" gradientUnits="userSpaceOnUse">
<stop stop-color="#0094FF"/>
<stop offset="1" stop-color="#13B8FF"/>
</linearGradient>
<linearGradient id="paint20_linear" x1="118.978" y1="121.15" x2="125.918" y2="120.896" gradientUnits="userSpaceOnUse">
<stop stop-color="#0094FF"/>
<stop offset="1" stop-color="#13B8FF"/>
</linearGradient>
</defs>
</svg>
