<svg width="68" height="68" viewBox="0 0 68 68" fill="none" xmlns="http://www.w3.org/2000/svg">
<path opacity="0.50086" d="M34 67C33.4983 67 32.9993 66.9888 32.5032 66.9667L32.4587 67.9657C28.9483 67.8091 25.5763 67.1201 22.4216 65.9777L22.7621 65.0374C21.821 64.6966 20.8997 64.3141 20.0006 63.8923L19.5758 64.7976C16.4527 63.3323 13.5889 61.406 11.072 59.1062L11.7466 58.368C11.0104 57.6953 10.3047 56.9896 9.632 56.2534L8.89377 56.928C6.59402 54.4111 4.66768 51.5473 3.20241 48.4242L4.10772 47.9994C3.68587 47.1003 3.30342 46.179 2.96258 45.2379L2.02234 45.5784C0.879867 42.4237 0.190934 39.0517 0.0343143 35.5413L1.03332 35.4968C1.01119 35.0007 1 34.5017 1 34C1 33.4983 1.01119 32.9993 1.03332 32.5032L0.0343143 32.4587C0.190934 28.9483 0.879867 25.5763 2.02234 22.4216L2.96258 22.7621C3.30342 21.821 3.68587 20.8997 4.10772 20.0006L3.20241 19.5758C4.66767 16.4527 6.59402 13.5889 8.89377 11.072L9.63199 11.7466C10.3047 11.0104 11.0104 10.3047 11.7466 9.632L11.072 8.89377C13.5889 6.59402 16.4527 4.66767 19.5758 3.20241L20.0006 4.10772C20.8997 3.68587 21.821 3.30342 22.7621 2.96258L22.4216 2.02234C25.5763 0.879867 28.9483 0.190934 32.4587 0.0343143L32.5032 1.03332C32.9993 1.01119 33.4983 1 34 1C34.5017 1 35.0007 1.01119 35.4968 1.03332L35.5413 0.0343142C39.0517 0.190934 42.4237 0.879867 45.5784 2.02234L45.2379 2.96258C46.179 3.30342 47.1003 3.68587 47.9994 4.10772L48.4242 3.20241C51.5473 4.66767 54.4111 6.59402 56.928 8.89377L56.2534 9.63199C56.9896 10.3047 57.6953 11.0104 58.368 11.7466L59.1062 11.072C61.406 13.5889 63.3323 16.4527 64.7976 19.5758L63.8923 20.0006C64.3141 20.8997 64.6966 21.821 65.0374 22.7621L65.9777 22.4216C67.1201 25.5763 67.8091 28.9483 67.9657 32.4587L66.9667 32.5032C66.9888 32.9993 67 33.4983 67 34C67 34.5017 66.9888 35.0007 66.9667 35.4968L67.9657 35.5413C67.8091 39.0517 67.1201 42.4237 65.9777 45.5784L65.0374 45.2379C64.6966 46.179 64.3141 47.1003 63.8923 47.9994L64.7976 48.4242C63.3323 51.5473 61.406 54.4111 59.1062 56.928L58.368 56.2534C57.6953 56.9896 56.9896 57.6953 56.2534 58.368L56.928 59.1062C54.4111 61.406 51.5473 63.3323 48.4242 64.7976L47.9994 63.8923C47.1003 64.3141 46.179 64.6966 45.2379 65.0374L45.5784 65.9777C42.4237 67.1201 39.0517 67.8091 35.5413 67.9657L35.4968 66.9667C35.0007 66.9888 34.5017 67 34 67Z" stroke="#027BF3" stroke-width="2" stroke-dasharray="3 10"/>
<path d="M33.6259 62.0233C48.8956 62.0233 61.2742 49.6447 61.2742 34.3749C61.2742 19.1051 48.8956 6.72656 33.6259 6.72656C18.3561 6.72656 5.97754 19.1051 5.97754 34.3749C5.97754 49.6447 18.3561 62.0233 33.6259 62.0233Z" fill="#027BF3"/>
<path d="M35.92 22.4272C35.5297 22.0364 34.8966 22.0359 34.5058 22.4262C34.115 22.8164 34.1145 23.4496 34.5047 23.8404L35.92 22.4272ZM37.9705 25.8961L38.6781 26.6026L39.3837 25.8961L38.6781 25.1895L37.9705 25.8961ZM34.5047 27.9518C34.1145 28.3426 34.115 28.9757 34.5058 29.366C34.8966 29.7562 35.5297 29.7557 35.92 29.3649L34.5047 27.9518ZM26.9379 44.5055C27.4902 44.5055 27.9379 44.0578 27.9379 43.5055C27.9379 42.9533 27.4902 42.5055 26.9379 42.5055V44.5055ZM34.5047 23.8404L37.2629 26.6026L38.6781 25.1895L35.92 22.4272L34.5047 23.8404ZM37.2629 25.1895L34.5047 27.9518L35.92 29.3649L38.6781 26.6026L37.2629 25.1895ZM37.9705 24.8961H26.835V26.8961H37.9705V24.8961ZM22.835 28.8961V40.5055H24.835V28.8961H22.835ZM26.835 44.5055H26.9379V42.5055H26.835V44.5055ZM22.835 40.5055C22.835 42.7147 24.6258 44.5055 26.835 44.5055V42.5055C25.7304 42.5055 24.835 41.6101 24.835 40.5055H22.835ZM26.835 24.8961C24.6258 24.8961 22.835 26.6869 22.835 28.8961H24.835C24.835 27.7915 25.7304 26.8961 26.835 26.8961V24.8961Z" fill="white"/>
<path d="M32.7807 46.9751C33.1709 47.3659 33.8041 47.3664 34.1949 46.9762C34.5857 46.586 34.5862 45.9528 34.196 45.562L32.7807 46.9751ZM30.7302 43.5063L30.0225 42.7997L29.317 43.5063L30.0225 44.2129L30.7302 43.5063ZM34.196 41.4506C34.5862 41.0598 34.5857 40.4266 34.1949 40.0364C33.8041 39.6461 33.1709 39.6466 32.7807 40.0374L34.196 41.4506ZM41.7628 24.8968C41.2105 24.8968 40.7628 25.3445 40.7628 25.8968C40.7628 26.4491 41.2105 26.8968 41.7628 26.8968V24.8968ZM34.196 45.562L31.4378 42.7997L30.0225 44.2129L32.7807 46.9751L34.196 45.562ZM31.4378 44.2129L34.196 41.4506L32.7807 40.0374L30.0225 42.7997L31.4378 44.2129ZM30.7302 44.5063H41.8657V42.5063H30.7302V44.5063ZM45.8657 40.5063V28.8968H43.8657V40.5063H45.8657ZM41.8657 24.8968H41.7628V26.8968H41.8657V24.8968ZM45.8657 28.8968C45.8657 26.6877 44.0749 24.8968 41.8657 24.8968V26.8968C42.9703 26.8968 43.8657 27.7922 43.8657 28.8968H45.8657ZM41.8657 44.5063C44.0749 44.5063 45.8657 42.7154 45.8657 40.5063H43.8657C43.8657 41.6109 42.9703 42.5063 41.8657 42.5063V44.5063Z" fill="white"/>
</svg>
