<svg width="167" height="126" viewBox="0 0 167 126" fill="none" xmlns="http://www.w3.org/2000/svg">
<g filter="url(#filter0_d)">
<path d="M3 4.00989C3 3.07569 3.75733 2.31836 4.69153 2.31836H79.3439C80.2781 2.31836 81.0355 3.07569 81.0355 4.00989V57.1827C81.0355 58.117 80.2781 58.8743 79.3439 58.8743H4.69154C3.75733 58.8743 3 58.117 3 57.1827V4.00989Z" fill="white"/>
<path d="M3.24277 4.00989C3.24277 3.20976 3.8914 2.56113 4.69153 2.56113H79.3439C80.144 2.56113 80.7927 3.20976 80.7927 4.00989V57.1827C80.7927 57.9829 80.1441 58.6315 79.3439 58.6315H4.69154C3.89141 58.6315 3.24277 57.9829 3.24277 57.1827V4.00989Z" stroke="#DED3EB" stroke-width="0.485533"/>
</g>
<path d="M17.1029 34.5665C17.1029 34.3512 17.0269 34.1698 16.8748 34.0224C16.725 33.8749 16.4711 33.7416 16.113 33.6222C15.6146 33.4701 15.2507 33.2723 15.0213 33.029C14.7943 32.7832 14.6808 32.472 14.6808 32.0952C14.6808 31.7114 14.792 31.3967 15.0143 31.151C15.239 30.9053 15.5467 30.759 15.9375 30.7122V29.9434H16.4606V30.7157C16.8537 30.7695 17.1591 30.9345 17.3767 31.2107C17.5967 31.4868 17.7067 31.8647 17.7067 32.3445H17.0608C17.0608 32.0145 16.9824 31.7524 16.8256 31.5582C16.6688 31.3639 16.457 31.2668 16.1903 31.2668C15.9118 31.2668 15.6988 31.3394 15.5514 31.4845C15.404 31.6272 15.3302 31.8273 15.3302 32.0847C15.3302 32.3234 15.4075 32.5141 15.5619 32.6569C15.7187 32.7973 15.975 32.926 16.3307 33.043C16.6887 33.1577 16.9672 33.2852 17.1661 33.4256C17.3674 33.5637 17.5148 33.7252 17.6084 33.91C17.7044 34.0949 17.7523 34.3114 17.7523 34.5594C17.7523 34.9549 17.633 35.2732 17.3943 35.5142C17.1579 35.7553 16.8256 35.898 16.3974 35.9425V36.6129H15.8778V35.9425C15.4426 35.9027 15.1009 35.7483 14.8529 35.4791C14.6071 35.2077 14.4843 34.8403 14.4843 34.3769H15.1337C15.1337 34.7022 15.2191 34.9526 15.3899 35.1281C15.5608 35.3036 15.803 35.3914 16.1165 35.3914C16.4231 35.3914 16.6641 35.3177 16.8397 35.1702C17.0152 35.0228 17.1029 34.8215 17.1029 34.5665ZM22.4771 35.8828H21.8242V31.5547L20.5149 32.0356V31.4458L22.3753 30.7473H22.4771V35.8828ZM26.5139 35.8828H25.861V31.5547L24.5517 32.0356V31.4458L26.4122 30.7473H26.5139V35.8828ZM28.4621 36.9008L28.0936 36.6481C28.3135 36.3415 28.4282 36.0256 28.4376 35.7003V35.1141H29.0729V35.6231C29.0729 35.8594 29.0144 36.0958 28.8974 36.3321C28.7827 36.5685 28.6377 36.758 28.4621 36.9008ZM33.0325 33.7029C33.0325 34.4635 32.9026 35.0286 32.6429 35.3984C32.3831 35.7681 31.9771 35.953 31.4248 35.953C30.8795 35.953 30.4759 35.7728 30.2138 35.4124C29.9517 35.0497 29.8159 34.5091 29.8066 33.7907V32.9237C29.8066 32.1725 29.9365 31.6143 30.1962 31.2493C30.456 30.8842 30.8632 30.7017 31.4178 30.7017C31.9677 30.7017 32.3726 30.8783 32.6323 31.2317C32.8921 31.5827 33.0255 32.1257 33.0325 32.8605V33.7029ZM32.3831 32.8148C32.3831 32.2649 32.3059 31.8647 32.1514 31.6143C31.997 31.3616 31.7524 31.2352 31.4178 31.2352C31.0855 31.2352 30.8433 31.3604 30.6912 31.6108C30.5391 31.8612 30.4607 32.2462 30.456 32.7657V33.8047C30.456 34.357 30.5355 34.7654 30.6947 35.0298C30.8561 35.2919 31.0995 35.423 31.4248 35.423C31.7454 35.423 31.9829 35.2989 32.1374 35.0509C32.2942 34.8028 32.3761 34.412 32.3831 33.8785V32.8148ZM37.2132 35.8828H33.8644V35.4159L35.6336 33.4502C35.8957 33.153 36.0759 32.912 36.1742 32.7271C36.2748 32.5399 36.3251 32.3468 36.3251 32.1479C36.3251 31.8811 36.2444 31.6623 36.0829 31.4915C35.9215 31.3206 35.7062 31.2352 35.437 31.2352C35.1141 31.2352 34.8625 31.3277 34.6823 31.5125C34.5045 31.6951 34.4156 31.9501 34.4156 32.2778H33.7662C33.7662 31.8074 33.9171 31.4271 34.219 31.1369C34.5232 30.8468 34.9292 30.7017 35.437 30.7017C35.9121 30.7017 36.2877 30.8269 36.5638 31.0773C36.84 31.3253 36.978 31.6565 36.978 32.0707C36.978 32.5738 36.6574 33.1729 36.0162 33.8679L34.6472 35.3528H37.2132V35.8828ZM41.1061 33.7029C41.1061 34.4635 40.9762 35.0286 40.7165 35.3984C40.4567 35.7681 40.0507 35.953 39.4984 35.953C38.9532 35.953 38.5495 35.7728 38.2874 35.4124C38.0253 35.0497 37.8895 34.5091 37.8802 33.7907V32.9237C37.8802 32.1725 38.0101 31.6143 38.2698 31.2493C38.5296 30.8842 38.9368 30.7017 39.4914 30.7017C40.0413 30.7017 40.4462 30.8783 40.7059 31.2317C40.9657 31.5827 41.0991 32.1257 41.1061 32.8605V33.7029ZM40.4567 32.8148C40.4567 32.2649 40.3795 31.8647 40.225 31.6143C40.0706 31.3616 39.826 31.2352 39.4914 31.2352C39.1591 31.2352 38.9169 31.3604 38.7648 31.6108C38.6127 31.8612 38.5343 32.2462 38.5296 32.7657V33.8047C38.5296 34.357 38.6091 34.7654 38.7683 35.0298C38.9298 35.2919 39.1731 35.423 39.4984 35.423C39.819 35.423 40.0565 35.2989 40.211 35.0509C40.3678 34.8028 40.4497 34.412 40.4567 33.8785V32.8148ZM42.0188 35.5423C42.0188 35.43 42.0515 35.3364 42.1171 35.2615C42.1849 35.1866 42.2856 35.1492 42.419 35.1492C42.5523 35.1492 42.653 35.1866 42.7208 35.2615C42.791 35.3364 42.8261 35.43 42.8261 35.5423C42.8261 35.65 42.791 35.7401 42.7208 35.8126C42.653 35.8852 42.5523 35.9214 42.419 35.9214C42.2856 35.9214 42.1849 35.8852 42.1171 35.8126C42.0515 35.7401 42.0188 35.65 42.0188 35.5423ZM46.9332 32.1058C46.9332 32.3608 46.8653 32.5878 46.7296 32.7868C46.5962 32.9857 46.4148 33.1413 46.1855 33.2536C46.4522 33.3683 46.6629 33.5356 46.8173 33.7556C46.9741 33.9756 47.0525 34.2248 47.0525 34.5033C47.0525 34.9456 46.9027 35.2978 46.6032 35.5599C46.306 35.822 45.914 35.953 45.4273 35.953C44.9358 35.953 44.5415 35.822 44.2443 35.5599C43.9494 35.2954 43.802 34.9432 43.802 34.5033C43.802 34.2271 43.8769 33.9779 44.0267 33.7556C44.1788 33.5333 44.3882 33.3648 44.655 33.2501C44.428 33.1378 44.249 32.9822 44.1179 32.7832C43.9869 32.5843 43.9213 32.3585 43.9213 32.1058C43.9213 31.6752 44.0594 31.3335 44.3356 31.0808C44.6117 30.828 44.9756 30.7017 45.4273 30.7017C45.8766 30.7017 46.2393 30.828 46.5154 31.0808C46.7939 31.3335 46.9332 31.6752 46.9332 32.1058ZM46.4031 34.4892C46.4031 34.2037 46.3118 33.9709 46.1293 33.7907C45.9491 33.6105 45.7128 33.5204 45.4202 33.5204C45.1277 33.5204 44.8925 33.6093 44.7147 33.7872C44.5392 33.965 44.4514 34.1991 44.4514 34.4892C44.4514 34.7794 44.5368 35.0076 44.7076 35.1737C44.8808 35.3399 45.1207 35.423 45.4273 35.423C45.7315 35.423 45.9702 35.3399 46.1433 35.1737C46.3165 35.0052 46.4031 34.7771 46.4031 34.4892ZM45.4273 31.2352C45.1722 31.2352 44.9651 31.3148 44.8059 31.4739C44.6491 31.6307 44.5707 31.8448 44.5707 32.1163C44.5707 32.3761 44.648 32.5867 44.8024 32.7481C44.9592 32.9073 45.1675 32.9868 45.4273 32.9868C45.687 32.9868 45.8941 32.9073 46.0486 32.7481C46.2054 32.5867 46.2838 32.3761 46.2838 32.1163C46.2838 31.8565 46.203 31.6448 46.0415 31.4809C45.8801 31.3171 45.6753 31.2352 45.4273 31.2352ZM50.3592 33.6362C50.2234 33.7977 50.0608 33.9276 49.8712 34.0259C49.684 34.1242 49.4781 34.1733 49.2534 34.1733C48.9586 34.1733 48.7012 34.1008 48.4812 33.9557C48.2635 33.8106 48.0951 33.607 47.9757 33.3449C47.8564 33.0805 47.7967 32.7891 47.7967 32.4708C47.7967 32.1292 47.861 31.8214 47.9897 31.5476C48.1208 31.2738 48.3057 31.0644 48.5444 30.9193C48.7831 30.7742 49.0615 30.7017 49.3798 30.7017C49.8853 30.7017 50.2831 30.8912 50.5733 31.2703C50.8658 31.6471 51.0121 32.1619 51.0121 32.8148V33.0044C51.0121 33.999 50.8155 34.7256 50.4224 35.1843C50.0292 35.6406 49.436 35.8746 48.6427 35.8863H48.5163V35.3387H48.6532C49.1891 35.3294 49.601 35.1901 49.8888 34.921C50.1766 34.6495 50.3334 34.2213 50.3592 33.6362ZM49.3587 33.6362C49.5764 33.6362 49.7765 33.5695 49.959 33.4362C50.1439 33.3028 50.2784 33.1378 50.3627 32.9412V32.6815C50.3627 32.2555 50.2702 31.9092 50.0854 31.6424C49.9005 31.3756 49.6665 31.2422 49.3833 31.2422C49.0978 31.2422 48.8685 31.3522 48.6953 31.5722C48.5221 31.7898 48.4355 32.0777 48.4355 32.4357C48.4355 32.7844 48.5186 33.0723 48.6848 33.2993C48.8533 33.5239 49.0779 33.6362 49.3587 33.6362Z" fill="#323541"/>
<path d="M15.6199 44.8496H16.5421V45.2471H15.6199V46.2919H15.1975V45.2471H14.2753V44.8496H15.1975V43.8843H15.6199V44.8496ZM18.6817 45.7718C18.6817 45.6325 18.6325 45.5151 18.5341 45.4197C18.4372 45.3243 18.2729 45.238 18.0412 45.1608C17.7187 45.0624 17.4832 44.9344 17.3348 44.7769C17.1879 44.6179 17.1145 44.4165 17.1145 44.1728C17.1145 43.9244 17.1864 43.7208 17.3303 43.5618C17.4756 43.4028 17.6748 43.3081 17.9276 43.2778V42.7804H18.2661V43.2801C18.5205 43.3149 18.7181 43.4217 18.8589 43.6004C19.0012 43.7791 19.0724 44.0236 19.0724 44.334H18.6545C18.6545 44.1205 18.6037 43.9509 18.5023 43.8252C18.4008 43.6996 18.2638 43.6367 18.0912 43.6367C17.911 43.6367 17.7732 43.6837 17.6778 43.7775C17.5824 43.8699 17.5347 43.9994 17.5347 44.1659C17.5347 44.3204 17.5847 44.4438 17.6846 44.5362C17.7861 44.627 17.9519 44.7103 18.182 44.786C18.4137 44.8602 18.5939 44.9427 18.7226 45.0336C18.8528 45.1229 18.9482 45.2274 19.0088 45.347C19.0709 45.4667 19.1019 45.6067 19.1019 45.7672C19.1019 46.0231 19.0247 46.2291 18.8702 46.385C18.7173 46.541 18.5023 46.6334 18.2252 46.6621V47.096H17.889V46.6621C17.6074 46.6364 17.3863 46.5365 17.2258 46.3623C17.0668 46.1867 16.9873 45.9489 16.9873 45.6491H17.4075C17.4075 45.8596 17.4628 46.0216 17.5733 46.1352C17.6838 46.2488 17.8406 46.3055 18.0435 46.3055C18.2418 46.3055 18.3978 46.2578 18.5114 46.1625C18.6249 46.0671 18.6817 45.9368 18.6817 45.7718ZM21.3983 45.5128H21.8571V45.8558H21.3983V46.6235H20.9758V45.8558H19.4699V45.6082L20.9508 43.3165H21.3983V45.5128ZM19.9469 45.5128H20.9758V43.8911L20.9258 43.982L19.9469 45.5128ZM22.2659 47.2822L22.0274 47.1187C22.1698 46.9203 22.244 46.7159 22.25 46.5054V46.1261H22.6611V46.4555C22.6611 46.6084 22.6233 46.7613 22.5476 46.9143C22.4734 47.0672 22.3795 47.1899 22.2659 47.2822ZM25.1551 44.1796C25.1551 44.3446 25.1112 44.4915 25.0233 44.6202C24.937 44.7489 24.8197 44.8496 24.6713 44.9223C24.8439 44.9965 24.9802 45.1048 25.0801 45.2471C25.1816 45.3894 25.2323 45.5507 25.2323 45.7309C25.2323 46.0171 25.1354 46.245 24.9416 46.4146C24.7492 46.5842 24.4956 46.669 24.1807 46.669C23.8627 46.669 23.6075 46.5842 23.4152 46.4146C23.2244 46.2435 23.129 46.0156 23.129 45.7309C23.129 45.5522 23.1775 45.391 23.2744 45.2471C23.3728 45.1032 23.5083 44.9942 23.681 44.92C23.5341 44.8473 23.4182 44.7466 23.3334 44.6179C23.2486 44.4892 23.2062 44.3431 23.2062 44.1796C23.2062 43.9009 23.2956 43.6799 23.4743 43.5163C23.6529 43.3528 23.8884 43.271 24.1807 43.271C24.4714 43.271 24.7061 43.3528 24.8848 43.5163C25.065 43.6799 25.1551 43.9009 25.1551 44.1796ZM24.8121 45.7218C24.8121 45.5371 24.753 45.3864 24.6349 45.2698C24.5183 45.1532 24.3654 45.0949 24.1761 45.0949C23.9868 45.0949 23.8347 45.1525 23.7196 45.2675C23.606 45.3826 23.5492 45.534 23.5492 45.7218C23.5492 45.9096 23.6045 46.0572 23.715 46.1647C23.8271 46.2722 23.9823 46.326 24.1807 46.326C24.3775 46.326 24.532 46.2722 24.644 46.1647C24.7561 46.0557 24.8121 45.9081 24.8121 45.7218ZM24.1807 43.6163C24.0156 43.6163 23.8816 43.6678 23.7786 43.7707C23.6772 43.8722 23.6264 44.0107 23.6264 44.1864C23.6264 44.3545 23.6764 44.4907 23.7764 44.5952C23.8778 44.6982 24.0126 44.7497 24.1807 44.7497C24.3487 44.7497 24.4827 44.6982 24.5827 44.5952C24.6841 44.4907 24.7349 44.3545 24.7349 44.1864C24.7349 44.0183 24.6826 43.8813 24.5781 43.7753C24.4737 43.6693 24.3412 43.6163 24.1807 43.6163ZM27.9284 46.6235H25.7615V46.3214L26.9063 45.0495C27.0759 44.8572 27.1925 44.7012 27.2561 44.5816C27.3212 44.4605 27.3537 44.3355 27.3537 44.2068C27.3537 44.0342 27.3015 43.8926 27.197 43.7821C27.0925 43.6715 26.9532 43.6163 26.7791 43.6163C26.5701 43.6163 26.4073 43.6761 26.2907 43.7957C26.1757 43.9138 26.1181 44.0789 26.1181 44.2909H25.6979C25.6979 43.9865 25.7956 43.7404 25.9909 43.5527C26.1878 43.3649 26.4505 43.271 26.7791 43.271C27.0865 43.271 27.3295 43.352 27.5082 43.5141C27.6869 43.6746 27.7762 43.8888 27.7762 44.1569C27.7762 44.4824 27.5687 44.8701 27.1539 45.3198L26.268 46.2806H27.9284V46.6235ZM30.5086 43.5527L29.139 46.6235H28.6984L30.0634 43.6617H28.2736V43.3165H30.5086V43.5527ZM31.0379 46.4032C31.0379 46.3305 31.0591 46.27 31.1015 46.2215C31.1454 46.1731 31.2105 46.1488 31.2968 46.1488C31.3831 46.1488 31.4482 46.1731 31.4921 46.2215C31.5375 46.27 31.5603 46.3305 31.5603 46.4032C31.5603 46.4729 31.5375 46.5312 31.4921 46.5781C31.4482 46.625 31.3831 46.6485 31.2968 46.6485C31.2105 46.6485 31.1454 46.625 31.1015 46.5781C31.0591 46.5312 31.0379 46.4729 31.0379 46.4032ZM34.379 46.6235H32.2121V46.3214L33.3569 45.0495C33.5265 44.8572 33.6431 44.7012 33.7067 44.5816C33.7718 44.4605 33.8044 44.3355 33.8044 44.2068C33.8044 44.0342 33.7521 43.8926 33.6476 43.7821C33.5432 43.6715 33.4038 43.6163 33.2297 43.6163C33.0207 43.6163 32.858 43.6761 32.7414 43.7957C32.6263 43.9138 32.5687 44.0789 32.5687 44.2909H32.1485C32.1485 43.9865 32.2462 43.7404 32.4415 43.5527C32.6384 43.3649 32.9011 43.271 33.2297 43.271C33.5371 43.271 33.7801 43.352 33.9588 43.5141C34.1375 43.6746 34.2268 43.8888 34.2268 44.1569C34.2268 44.4824 34.0194 44.8701 33.6045 45.3198L32.7187 46.2806H34.379V46.6235ZM36.8298 44.1796C36.8298 44.3446 36.7859 44.4915 36.6981 44.6202C36.6117 44.7489 36.4944 44.8496 36.346 44.9223C36.5186 44.9965 36.6549 45.1048 36.7548 45.2471C36.8563 45.3894 36.907 45.5507 36.907 45.7309C36.907 46.0171 36.8101 46.245 36.6163 46.4146C36.424 46.5842 36.1703 46.669 35.8554 46.669C35.5374 46.669 35.2822 46.5842 35.0899 46.4146C34.8991 46.2435 34.8037 46.0156 34.8037 45.7309C34.8037 45.5522 34.8522 45.391 34.9491 45.2471C35.0475 45.1032 35.1831 44.9942 35.3557 44.92C35.2088 44.8473 35.093 44.7466 35.0082 44.6179C34.9234 44.4892 34.881 44.3431 34.881 44.1796C34.881 43.9009 34.9703 43.6799 35.149 43.5163C35.3277 43.3528 35.5631 43.271 35.8554 43.271C36.1461 43.271 36.3808 43.3528 36.5595 43.5163C36.7397 43.6799 36.8298 43.9009 36.8298 44.1796ZM36.4868 45.7218C36.4868 45.5371 36.4278 45.3864 36.3097 45.2698C36.1931 45.1532 36.0401 45.0949 35.8508 45.0949C35.6616 45.0949 35.5094 45.1525 35.3943 45.2675C35.2807 45.3826 35.2239 45.534 35.2239 45.7218C35.2239 45.9096 35.2792 46.0572 35.3898 46.1647C35.5018 46.2722 35.657 46.326 35.8554 46.326C36.0522 46.326 36.2067 46.2722 36.3187 46.1647C36.4308 46.0557 36.4868 45.9081 36.4868 45.7218ZM35.8554 43.6163C35.6903 43.6163 35.5563 43.6678 35.4534 43.7707C35.3519 43.8722 35.3012 44.0107 35.3012 44.1864C35.3012 44.3545 35.3511 44.4907 35.4511 44.5952C35.5525 44.6982 35.6873 44.7497 35.8554 44.7497C36.0235 44.7497 36.1575 44.6982 36.2574 44.5952C36.3589 44.4907 36.4096 44.3545 36.4096 44.1864C36.4096 44.0183 36.3573 43.8813 36.2529 43.7753C36.1484 43.6693 36.0159 43.6163 35.8554 43.6163ZM38.6173 45.2812C38.6173 44.939 38.6628 44.6104 38.7536 44.2954C38.846 43.9804 38.983 43.6943 39.1647 43.4368C39.3464 43.1794 39.535 42.9977 39.7303 42.8917L39.8166 43.1688C39.5955 43.3384 39.4138 43.5973 39.2715 43.9456C39.1307 44.2939 39.0534 44.6838 39.0398 45.1154L39.0375 45.3084C39.0375 45.8929 39.1443 46.4002 39.3578 46.8302C39.4865 47.0876 39.6394 47.289 39.8166 47.4344L39.7303 47.6911C39.5289 47.579 39.3366 47.3913 39.1534 47.1278C38.796 46.6129 38.6173 45.9974 38.6173 45.2812ZM41.427 44.8496H42.3492V45.2471H41.427V46.2919H41.0045V45.2471H40.0824V44.8496H41.0045V43.8843H41.427V44.8496ZM43.4303 44.7656H43.746C43.9444 44.7625 44.1004 44.7103 44.2139 44.6088C44.3275 44.5074 44.3843 44.3704 44.3843 44.1977C44.3843 43.8101 44.1912 43.6163 43.8051 43.6163C43.6234 43.6163 43.478 43.6685 43.369 43.773C43.2615 43.876 43.2077 44.013 43.2077 44.1841H42.7875C42.7875 43.9221 42.8829 43.7049 43.0737 43.5322C43.266 43.3581 43.5098 43.271 43.8051 43.271C44.117 43.271 44.3616 43.3536 44.5387 43.5186C44.7159 43.6837 44.8045 43.9131 44.8045 44.2068C44.8045 44.3507 44.7575 44.49 44.6637 44.6247C44.5713 44.7595 44.4449 44.8602 44.2844 44.9268C44.4661 44.9844 44.6061 45.0798 44.7046 45.213C44.8045 45.3463 44.8545 45.5091 44.8545 45.7014C44.8545 45.9982 44.7575 46.2336 44.5637 46.4078C44.3699 46.5819 44.1178 46.669 43.8074 46.669C43.497 46.669 43.2441 46.5849 43.0487 46.4168C42.8549 46.2488 42.758 46.0269 42.758 45.7513H43.1805C43.1805 45.9255 43.2373 46.0648 43.3508 46.1693C43.4644 46.2737 43.6166 46.326 43.8074 46.326C44.0103 46.326 44.1655 46.273 44.273 46.167C44.3805 46.061 44.4343 45.9088 44.4343 45.7105C44.4343 45.5181 44.3752 45.3705 44.2571 45.2675C44.139 45.1646 43.9686 45.1116 43.746 45.1085H43.4303V44.7656ZM47.437 44.1796C47.437 44.3446 47.3931 44.4915 47.3052 44.6202C47.2189 44.7489 47.1016 44.8496 46.9532 44.9223C47.1258 44.9965 47.2621 45.1048 47.362 45.2471C47.4635 45.3894 47.5142 45.5507 47.5142 45.7309C47.5142 46.0171 47.4173 46.245 47.2235 46.4146C47.0312 46.5842 46.7775 46.669 46.4626 46.669C46.1446 46.669 45.8894 46.5842 45.6971 46.4146C45.5063 46.2435 45.4109 46.0156 45.4109 45.7309C45.4109 45.5522 45.4594 45.391 45.5563 45.2471C45.6547 45.1032 45.7903 44.9942 45.9629 44.92C45.816 44.8473 45.7002 44.7466 45.6154 44.6179C45.5306 44.4892 45.4882 44.3431 45.4882 44.1796C45.4882 43.9009 45.5775 43.6799 45.7562 43.5163C45.9349 43.3528 46.1703 43.271 46.4626 43.271C46.7533 43.271 46.988 43.3528 47.1667 43.5163C47.3469 43.6799 47.437 43.9009 47.437 44.1796ZM47.094 45.7218C47.094 45.5371 47.035 45.3864 46.9168 45.2698C46.8002 45.1532 46.6473 45.0949 46.458 45.0949C46.2688 45.0949 46.1166 45.1525 46.0015 45.2675C45.8879 45.3826 45.8311 45.534 45.8311 45.7218C45.8311 45.9096 45.8864 46.0572 45.9969 46.1647C46.109 46.2722 46.2642 46.326 46.4626 46.326C46.6594 46.326 46.8139 46.2722 46.9259 46.1647C47.038 46.0557 47.094 45.9081 47.094 45.7218ZM46.4626 43.6163C46.2975 43.6163 46.1635 43.6678 46.0605 43.7707C45.9591 43.8722 45.9084 44.0107 45.9084 44.1864C45.9084 44.3545 45.9583 44.4907 46.0583 44.5952C46.1597 44.6982 46.2945 44.7497 46.4626 44.7497C46.6307 44.7497 46.7647 44.6982 46.8646 44.5952C46.9661 44.4907 47.0168 44.3545 47.0168 44.1864C47.0168 44.0183 46.9645 43.8813 46.8601 43.7753C46.7556 43.6693 46.6231 43.6163 46.4626 43.6163ZM48.0957 46.4032C48.0957 46.3305 48.1169 46.27 48.1593 46.2215C48.2032 46.1731 48.2683 46.1488 48.3546 46.1488C48.4409 46.1488 48.506 46.1731 48.5499 46.2215C48.5954 46.27 48.6181 46.3305 48.6181 46.4032C48.6181 46.4729 48.5954 46.5312 48.5499 46.5781C48.506 46.625 48.4409 46.6485 48.3546 46.6485C48.2683 46.6485 48.2032 46.625 48.1593 46.5781C48.1169 46.5312 48.0957 46.4729 48.0957 46.4032ZM51.2756 44.1796C51.2756 44.3446 51.2316 44.4915 51.1438 44.6202C51.0575 44.7489 50.9402 44.8496 50.7918 44.9223C50.9644 44.9965 51.1007 45.1048 51.2006 45.2471C51.3021 45.3894 51.3528 45.5507 51.3528 45.7309C51.3528 46.0171 51.2559 46.245 51.0621 46.4146C50.8697 46.5842 50.6161 46.669 50.3012 46.669C49.9832 46.669 49.728 46.5842 49.5357 46.4146C49.3449 46.2435 49.2495 46.0156 49.2495 45.7309C49.2495 45.5522 49.298 45.391 49.3949 45.2471C49.4933 45.1032 49.6288 44.9942 49.8015 44.92C49.6546 44.8473 49.5387 44.7466 49.4539 44.6179C49.3691 44.4892 49.3267 44.3431 49.3267 44.1796C49.3267 43.9009 49.4161 43.6799 49.5948 43.5163C49.7734 43.3528 50.0089 43.271 50.3012 43.271C50.5919 43.271 50.8266 43.3528 51.0053 43.5163C51.1855 43.6799 51.2756 43.9009 51.2756 44.1796ZM50.9326 45.7218C50.9326 45.5371 50.8735 45.3864 50.7554 45.2698C50.6388 45.1532 50.4859 45.0949 50.2966 45.0949C50.1073 45.0949 49.9552 45.1525 49.8401 45.2675C49.7265 45.3826 49.6697 45.534 49.6697 45.7218C49.6697 45.9096 49.725 46.0572 49.8355 46.1647C49.9476 46.2722 50.1028 46.326 50.3012 46.326C50.498 46.326 50.6525 46.2722 50.7645 46.1647C50.8766 46.0557 50.9326 45.9081 50.9326 45.7218ZM50.3012 43.6163C50.1361 43.6163 50.0021 43.6678 49.8991 43.7707C49.7977 43.8722 49.7469 44.0107 49.7469 44.1864C49.7469 44.3545 49.7969 44.4907 49.8969 44.5952C49.9983 44.6982 50.1331 44.7497 50.3012 44.7497C50.4692 44.7497 50.6032 44.6982 50.7032 44.5952C50.8046 44.4907 50.8554 44.3545 50.8554 44.1864C50.8554 44.0183 50.8031 43.8813 50.6986 43.7753C50.5942 43.6693 50.4617 43.6163 50.3012 43.6163ZM51.8457 43.9524C51.8457 43.7541 51.9085 43.5905 52.0342 43.4618C52.1614 43.3331 52.3242 43.2688 52.5225 43.2688C52.7239 43.2688 52.8867 43.3339 53.0109 43.4641C53.1366 43.5928 53.1994 43.7601 53.1994 43.9661V44.1273C53.1994 44.3272 53.1358 44.4907 53.0086 44.6179C52.8829 44.7436 52.7224 44.8065 52.5271 44.8065C52.3302 44.8065 52.1674 44.7436 52.0387 44.6179C51.91 44.4907 51.8457 44.3219 51.8457 44.1114V43.9524ZM52.1591 44.1273C52.1591 44.2454 52.1924 44.3431 52.2591 44.4203C52.3257 44.496 52.415 44.5339 52.5271 44.5339C52.6346 44.5339 52.7209 44.4968 52.786 44.4226C52.8526 44.3484 52.8859 44.2469 52.8859 44.1182V43.9524C52.8859 43.8343 52.8534 43.7367 52.7883 43.6594C52.7232 43.5822 52.6346 43.5436 52.5225 43.5436C52.4105 43.5436 52.3219 43.5822 52.2568 43.6594C52.1917 43.7367 52.1591 43.8373 52.1591 43.9615V44.1273ZM53.4561 45.8127C53.4561 45.6143 53.5189 45.4515 53.6446 45.3243C53.7718 45.1956 53.9346 45.1313 54.1329 45.1313C54.3313 45.1313 54.4941 45.1949 54.6213 45.3221C54.7485 45.4492 54.812 45.6181 54.812 45.8286V45.9898C54.812 46.1882 54.7485 46.3517 54.6213 46.4804C54.4956 46.6076 54.3343 46.6712 54.1375 46.6712C53.9406 46.6712 53.7778 46.6084 53.6491 46.4827C53.5204 46.3555 53.4561 46.1867 53.4561 45.9762V45.8127ZM53.7695 45.9898C53.7695 46.1095 53.8028 46.2079 53.8694 46.2851C53.9361 46.3608 54.0254 46.3987 54.1375 46.3987C54.2465 46.3987 54.3336 46.3616 54.3987 46.2874C54.4638 46.2117 54.4963 46.1095 54.4963 45.9807V45.8127C54.4963 45.693 54.463 45.5954 54.3964 45.5197C54.3313 45.4439 54.2435 45.4061 54.1329 45.4061C54.0254 45.4061 53.9376 45.4439 53.8694 45.5197C53.8028 45.5939 53.7695 45.6946 53.7695 45.8217V45.9898ZM52.6225 46.3737L52.384 46.2238L53.9989 43.639L54.2374 43.7889L52.6225 46.3737ZM56.3021 45.3039C56.3021 45.6416 56.2574 45.9656 56.168 46.276C56.0802 46.5849 55.9447 46.8704 55.7615 47.1323C55.5798 47.3943 55.389 47.5805 55.1891 47.6911L55.1005 47.4344C55.3337 47.2557 55.5207 46.9786 55.6615 46.6031C55.8039 46.226 55.8766 45.8081 55.8796 45.3493V45.2766C55.8796 44.9586 55.8463 44.6634 55.7796 44.3908C55.713 44.1167 55.6199 43.8714 55.5003 43.6549C55.3822 43.4383 55.2489 43.2695 55.1005 43.1484L55.1891 42.8917C55.389 43.0023 55.579 43.187 55.7592 43.4459C55.9409 43.7049 56.0764 43.9903 56.1658 44.3022C56.2566 44.6141 56.3021 44.948 56.3021 45.3039Z" fill="#1A9B80"/>
<path d="M16.2322 18.1876V20.0708H15.5979V15.2605H17.372C17.8984 15.2605 18.3103 15.3949 18.6076 15.6636C18.9072 15.9323 19.0569 16.288 19.0569 16.7307C19.0569 17.1976 18.9105 17.5577 18.6175 17.811C18.3268 18.0621 17.9094 18.1876 17.3654 18.1876H16.2322ZM16.2322 17.669H17.372C17.7112 17.669 17.9711 17.5897 18.1517 17.4311C18.3323 17.2703 18.4226 17.039 18.4226 16.7373C18.4226 16.451 18.3323 16.2219 18.1517 16.0501C17.9711 15.8783 17.7233 15.7891 17.4084 15.7825H16.2322V17.669ZM21.4984 17.0445C21.4059 17.0291 21.3057 17.0214 21.1978 17.0214C20.7969 17.0214 20.5249 17.1921 20.3818 17.5335V20.0708H19.7706V16.4961H20.3652L20.3752 16.9091C20.5756 16.5897 20.8597 16.43 21.2275 16.43C21.3465 16.43 21.4368 16.4455 21.4984 16.4763V17.0445ZM21.8354 18.2504C21.8354 17.9002 21.9037 17.5853 22.0403 17.3055C22.179 17.0258 22.3706 16.81 22.6151 16.658C22.8618 16.506 23.1426 16.43 23.4576 16.43C23.9443 16.43 24.3375 16.5985 24.637 16.9355C24.9388 17.2725 25.0896 17.7207 25.0896 18.2802V18.3231C25.0896 18.6711 25.0225 18.9839 24.8881 19.2614C24.756 19.5367 24.5654 19.7514 24.3166 19.9056C24.0699 20.0598 23.7858 20.1369 23.4642 20.1369C22.9796 20.1369 22.5865 19.9684 22.2847 19.6314C21.9852 19.2944 21.8354 18.8484 21.8354 18.2934V18.2504ZM22.4499 18.3231C22.4499 18.7196 22.5413 19.0378 22.7241 19.2779C22.9092 19.518 23.1558 19.638 23.4642 19.638C23.7747 19.638 24.0214 19.5169 24.2042 19.2746C24.387 19.0301 24.4784 18.6887 24.4784 18.2504C24.4784 17.8584 24.3848 17.5412 24.1976 17.2989C24.0126 17.0545 23.7659 16.9322 23.4576 16.9322C23.1558 16.9322 22.9125 17.0522 22.7274 17.2923C22.5424 17.5324 22.4499 17.876 22.4499 18.3231ZM26.061 20.0708V16.9686H25.496V16.4961H26.061V16.1922C26.061 15.7935 26.1744 15.483 26.4012 15.2605C26.6303 15.038 26.953 14.9268 27.3693 14.9268C27.6159 14.9268 27.9276 14.994 28.3042 15.1283L28.2018 15.6437C27.9265 15.5336 27.6644 15.4785 27.4155 15.4785C27.1534 15.4785 26.964 15.538 26.8473 15.657C26.7327 15.7737 26.6755 15.9499 26.6755 16.1856V16.4961H27.4056V16.9686H26.6755V20.0708H26.061ZM28.6082 20.0708H27.9937V16.4961H28.6082V20.0708ZM30.4319 15.6305V16.4961H31.0992V16.9686H30.4319V19.1854C30.4319 19.3286 30.4616 19.4365 30.5211 19.5092C30.5805 19.5796 30.6818 19.6149 30.825 19.6149C30.8955 19.6149 30.9924 19.6017 31.1157 19.5752V20.0708C30.955 20.1149 30.7986 20.1369 30.6466 20.1369C30.3735 20.1369 30.1676 20.0543 30.0288 19.8891C29.89 19.7239 29.8207 19.4893 29.8207 19.1854V16.9686H29.1698V16.4961H29.8207V15.6305H30.4319Z" fill="#323541"/>
<g filter="url(#filter1_d)">
<rect x="3" y="63.7021" width="78.0355" height="56.298" rx="1.69153" fill="white"/>
<rect x="3.24277" y="63.9449" width="77.5499" height="55.8125" rx="1.44877" stroke="#DED3EB" stroke-width="0.485533"/>
</g>
<path d="M17.1029 91.0889C17.1029 90.8736 17.0269 90.6923 16.8748 90.5448C16.725 90.3974 16.4711 90.264 16.113 90.1447C15.6146 89.9926 15.2507 89.7948 15.0213 89.5514C14.7943 89.3057 14.6808 88.9945 14.6808 88.6177C14.6808 88.2339 14.792 87.9192 15.0143 87.6734C15.239 87.4277 15.5467 87.2815 15.9375 87.2347V86.4659H16.4606V87.2382C16.8537 87.292 17.1591 87.457 17.3767 87.7331C17.5967 88.0093 17.7067 88.3872 17.7067 88.8669H17.0608C17.0608 88.537 16.9824 88.2749 16.8256 88.0806C16.6688 87.8864 16.457 87.7893 16.1903 87.7893C15.9118 87.7893 15.6988 87.8618 15.5514 88.0069C15.404 88.1497 15.3302 88.3497 15.3302 88.6072C15.3302 88.8459 15.4075 89.0366 15.5619 89.1793C15.7187 89.3198 15.975 89.4485 16.3307 89.5655C16.6887 89.6801 16.9672 89.8077 17.1661 89.9481C17.3674 90.0862 17.5148 90.2476 17.6084 90.4325C17.7044 90.6174 17.7523 90.8338 17.7523 91.0819C17.7523 91.4774 17.633 91.7957 17.3943 92.0367C17.1579 92.2777 16.8256 92.4205 16.3974 92.4649V93.1354H15.8778V92.4649C15.4426 92.4252 15.1009 92.2707 14.8529 92.0016C14.6071 91.7301 14.4843 91.3627 14.4843 90.8994H15.1337C15.1337 91.2247 15.2191 91.4751 15.3899 91.6506C15.5608 91.8261 15.803 91.9138 16.1165 91.9138C16.4231 91.9138 16.6641 91.8401 16.8397 91.6927C17.0152 91.5453 17.1029 91.344 17.1029 91.0889ZM22.4771 92.4053H21.8242V88.0771L20.5149 88.558V87.9683L22.3753 87.2698H22.4771V92.4053ZM27.6794 87.6594L25.5627 92.4053H24.8817L26.9913 87.8279H24.2253V87.2943H27.6794V87.6594ZM28.4621 93.4233L28.0936 93.1705C28.3135 92.8639 28.4282 92.548 28.4376 92.2227V91.6365H29.0729V92.1455C29.0729 92.3819 29.0144 92.6182 28.8974 92.8546C28.7827 93.0909 28.6377 93.2805 28.4621 93.4233ZM30.7719 89.5339H31.2598C31.5664 89.5292 31.8074 89.4485 31.9829 89.2917C32.1585 89.1349 32.2462 88.9231 32.2462 88.6563C32.2462 88.0572 31.9478 87.7577 31.3511 87.7577C31.0703 87.7577 30.8456 87.8384 30.6771 87.9999C30.511 88.159 30.4279 88.3708 30.4279 88.6352H29.7785C29.7785 88.2304 29.9259 87.8946 30.2208 87.6278C30.518 87.3587 30.8948 87.2241 31.3511 87.2241C31.8332 87.2241 32.2111 87.3517 32.4849 87.6067C32.7587 87.8618 32.8956 88.2164 32.8956 88.6704C32.8956 88.8927 32.8231 89.108 32.678 89.3162C32.5352 89.5245 32.3398 89.6801 32.0918 89.7831C32.3726 89.872 32.589 90.0195 32.7412 90.2254C32.8956 90.4313 32.9728 90.6829 32.9728 90.9801C32.9728 91.4388 32.8231 91.8027 32.5235 92.0718C32.224 92.3409 31.8343 92.4755 31.3546 92.4755C30.8749 92.4755 30.4841 92.3456 30.1822 92.0858C29.8826 91.8261 29.7329 91.4832 29.7329 91.0573H30.3858C30.3858 91.3265 30.4735 91.5417 30.649 91.7032C30.8246 91.8647 31.0597 91.9454 31.3546 91.9454C31.6682 91.9454 31.9081 91.8635 32.0742 91.6997C32.2404 91.5359 32.3234 91.3007 32.3234 90.9941C32.3234 90.6969 32.2322 90.4688 32.0496 90.3096C31.8671 90.1505 31.6038 90.0686 31.2598 90.0639H30.7719V89.5339ZM34.8087 89.5339H35.2966C35.6032 89.5292 35.8442 89.4485 36.0197 89.2917C36.1953 89.1349 36.283 88.9231 36.283 88.6563C36.283 88.0572 35.9846 87.7577 35.3879 87.7577C35.1071 87.7577 34.8824 87.8384 34.7139 87.9999C34.5478 88.159 34.4647 88.3708 34.4647 88.6352H33.8153C33.8153 88.2304 33.9627 87.8946 34.2576 87.6278C34.5548 87.3587 34.9316 87.2241 35.3879 87.2241C35.87 87.2241 36.2479 87.3517 36.5217 87.6067C36.7955 87.8618 36.9324 88.2164 36.9324 88.6704C36.9324 88.8927 36.8599 89.108 36.7148 89.3162C36.572 89.5245 36.3766 89.6801 36.1286 89.7831C36.4094 89.872 36.6258 90.0195 36.778 90.2254C36.9324 90.4313 37.0096 90.6829 37.0096 90.9801C37.0096 91.4388 36.8599 91.8027 36.5603 92.0718C36.2608 92.3409 35.8711 92.4755 35.3914 92.4755C34.9117 92.4755 34.5209 92.3456 34.219 92.0858C33.9194 91.8261 33.7697 91.4832 33.7697 91.0573H34.4226C34.4226 91.3265 34.5103 91.5417 34.6858 91.7032C34.8614 91.8647 35.0965 91.9454 35.3914 91.9454C35.705 91.9454 35.9449 91.8635 36.111 91.6997C36.2772 91.5359 36.3602 91.3007 36.3602 90.9941C36.3602 90.6969 36.269 90.4688 36.0864 90.3096C35.9039 90.1505 35.6406 90.0686 35.2966 90.0639H34.8087V89.5339ZM41.25 92.4053H37.9012V91.9384L39.6704 89.9727C39.9325 89.6755 40.1127 89.4344 40.211 89.2495C40.3116 89.0623 40.3619 88.8693 40.3619 88.6704C40.3619 88.4036 40.2812 88.1848 40.1197 88.0139C39.9583 87.8431 39.743 87.7577 39.4738 87.7577C39.1509 87.7577 38.8993 87.8501 38.7191 88.035C38.5413 88.2175 38.4524 88.4726 38.4524 88.8002H37.803C37.803 88.3299 37.9539 87.9496 38.2558 87.6594C38.56 87.3692 38.966 87.2241 39.4738 87.2241C39.9489 87.2241 40.3245 87.3493 40.6006 87.5997C40.8768 87.8478 41.0148 88.1789 41.0148 88.5931C41.0148 89.0963 40.6942 89.6953 40.053 90.3904L38.684 91.8752H41.25V92.4053ZM42.0188 92.0648C42.0188 91.9524 42.0515 91.8588 42.1171 91.784C42.1849 91.7091 42.2856 91.6716 42.419 91.6716C42.5523 91.6716 42.653 91.7091 42.7208 91.784C42.791 91.8588 42.8261 91.9524 42.8261 92.0648C42.8261 92.1724 42.791 92.2625 42.7208 92.3351C42.653 92.4076 42.5523 92.4439 42.419 92.4439C42.2856 92.4439 42.1849 92.4076 42.1171 92.3351C42.0515 92.2625 42.0188 92.1724 42.0188 92.0648ZM47.1824 92.4053H43.8336V91.9384L45.6028 89.9727C45.8649 89.6755 46.0451 89.4344 46.1433 89.2495C46.244 89.0623 46.2943 88.8693 46.2943 88.6704C46.2943 88.4036 46.2136 88.1848 46.0521 88.0139C45.8906 87.8431 45.6753 87.7577 45.4062 87.7577C45.0832 87.7577 44.8317 87.8501 44.6515 88.035C44.4736 88.2175 44.3847 88.4726 44.3847 88.8002H43.7353C43.7353 88.3299 43.8862 87.9496 44.1881 87.6594C44.4924 87.3692 44.8984 87.2241 45.4062 87.2241C45.8812 87.2241 46.2568 87.3493 46.533 87.5997C46.8091 87.8478 46.9472 88.1789 46.9472 88.5931C46.9472 89.0963 46.6266 89.6953 45.9854 90.3904L44.6164 91.8752H47.1824V92.4053ZM51.2192 92.4053H47.8704V91.9384L49.6396 89.9727C49.9017 89.6755 50.0819 89.4344 50.1801 89.2495C50.2808 89.0623 50.3311 88.8693 50.3311 88.6704C50.3311 88.4036 50.2504 88.1848 50.0889 88.0139C49.9274 87.8431 49.7121 87.7577 49.443 87.7577C49.12 87.7577 48.8685 87.8501 48.6883 88.035C48.5104 88.2175 48.4215 88.4726 48.4215 88.8002H47.7721C47.7721 88.3299 47.923 87.9496 48.2249 87.6594C48.5292 87.3692 48.9352 87.2241 49.443 87.2241C49.918 87.2241 50.2936 87.3493 50.5698 87.5997C50.8459 87.8478 50.984 88.1789 50.984 88.5931C50.984 89.0963 50.6634 89.6953 50.0222 90.3904L48.6532 91.8752H51.2192V92.4053Z" fill="#323541"/>
<path d="M18.1006 80.3933H16.0159V82.098H18.4376V82.6167H15.3816V77.8064H18.4045V78.3284H16.0159V79.8746H18.1006V80.3933ZM21.2127 81.6685C21.2127 81.5033 21.15 81.3756 21.0244 81.2853C20.9011 81.1928 20.6841 81.1135 20.3736 81.0474C20.0652 80.9813 19.8197 80.902 19.6368 80.8095C19.4562 80.717 19.3219 80.6069 19.2338 80.4792C19.1479 80.3514 19.1049 80.1994 19.1049 80.0232C19.1049 79.7303 19.2283 79.4825 19.475 79.2799C19.7238 79.0773 20.041 78.9759 20.4265 78.9759C20.8317 78.9759 21.1599 79.0806 21.411 79.2898C21.6643 79.499 21.7909 79.7666 21.7909 80.0926H21.1764C21.1764 79.9252 21.1048 79.781 20.9617 79.6598C20.8207 79.5387 20.6423 79.4781 20.4265 79.4781C20.204 79.4781 20.03 79.5266 19.9045 79.6235C19.7789 79.7204 19.7161 79.847 19.7161 80.0034C19.7161 80.151 19.7745 80.2622 19.8912 80.3371C20.008 80.412 20.2183 80.4836 20.5223 80.5518C20.8284 80.6201 21.0762 80.7016 21.2656 80.7963C21.455 80.891 21.5949 81.0056 21.6852 81.1399C21.7777 81.2721 21.8239 81.4339 21.8239 81.6256C21.8239 81.9449 21.6962 82.2015 21.4407 82.3953C21.1852 82.587 20.8537 82.6828 20.4463 82.6828C20.1599 82.6828 19.9067 82.6321 19.6864 82.5308C19.4662 82.4295 19.2933 82.2885 19.1677 82.1079C19.0444 81.9251 18.9827 81.728 18.9827 81.5165H19.5939C19.6049 81.7214 19.6864 81.8844 19.8384 82.0055C19.9926 82.1244 20.1952 82.1839 20.4463 82.1839C20.6775 82.1839 20.8625 82.1377 21.0013 82.0451C21.1423 81.9504 21.2127 81.8249 21.2127 81.6685ZM23.4494 78.1764V79.042H24.1168V79.5145H23.4494V81.7313C23.4494 81.8745 23.4791 81.9824 23.5386 82.0551C23.5981 82.1255 23.6994 82.1608 23.8426 82.1608C23.913 82.1608 24.0099 82.1476 24.1333 82.1211V82.6167C23.9725 82.6607 23.8161 82.6828 23.6642 82.6828C23.391 82.6828 23.1851 82.6002 23.0463 82.435C22.9076 82.2698 22.8382 82.0352 22.8382 81.7313V79.5145H22.1874V79.042H22.8382V78.1764H23.4494ZM25.4977 82.6167H24.8866V79.042H25.4977V82.6167ZM24.837 78.0938C24.837 77.9947 24.8667 77.911 24.9262 77.8427C24.9879 77.7745 25.0782 77.7403 25.1971 77.7403C25.316 77.7403 25.4063 77.7745 25.468 77.8427C25.5297 77.911 25.5605 77.9947 25.5605 78.0938C25.5605 78.1929 25.5297 78.2755 25.468 78.3416C25.4063 78.4077 25.316 78.4407 25.1971 78.4407C25.0782 78.4407 24.9879 78.4077 24.9262 78.3416C24.8667 78.2755 24.837 78.1929 24.837 78.0938ZM27.0538 79.042L27.0703 79.4385C27.3324 79.1301 27.686 78.9759 28.1309 78.9759C28.6308 78.9759 28.9711 79.1676 29.1517 79.5508C29.2707 79.379 29.4248 79.2402 29.6143 79.1345C29.8059 79.0288 30.0316 78.9759 30.2915 78.9759C31.0756 78.9759 31.4743 79.3911 31.4875 80.2215V82.6167H30.8763V80.2578C30.8763 80.0023 30.8179 79.8118 30.7012 79.6862C30.5845 79.5585 30.3884 79.4946 30.1131 79.4946C29.8863 79.4946 29.698 79.5629 29.5482 79.6995C29.3984 79.8338 29.3114 80.0155 29.2872 80.2446V82.6167H28.6727V80.2743C28.6727 79.7545 28.4183 79.4946 27.9095 79.4946C27.5086 79.4946 27.2344 79.6653 27.0869 80.0067V82.6167H26.4757V79.042H27.0538ZM34.6195 82.6167C34.5842 82.5462 34.5556 82.4207 34.5336 82.2401C34.2495 82.5352 33.9103 82.6828 33.516 82.6828C33.1636 82.6828 32.874 82.5837 32.6471 82.3854C32.4225 82.185 32.3101 81.9317 32.3101 81.6256C32.3101 81.2533 32.4511 80.9648 32.733 80.76C33.0171 80.5529 33.4158 80.4494 33.929 80.4494H34.5237V80.1686C34.5237 79.955 34.4598 79.7854 34.3321 79.6598C34.2043 79.5321 34.016 79.4682 33.7671 79.4682C33.5491 79.4682 33.3662 79.5233 33.2187 79.6334C33.0711 79.7435 32.9973 79.8768 32.9973 80.0331H32.3828C32.3828 79.8547 32.4456 79.6829 32.5711 79.5178C32.6989 79.3504 32.8707 79.2182 33.0865 79.1213C33.3046 79.0244 33.5436 78.9759 33.8034 78.9759C34.2153 78.9759 34.538 79.0795 34.7715 79.2865C35.0049 79.4913 35.1261 79.7743 35.1349 80.1356V81.7808C35.1349 82.109 35.1767 82.37 35.2604 82.5638V82.6167H34.6195ZM33.6052 82.1509C33.7968 82.1509 33.9785 82.1013 34.1503 82.0022C34.3221 81.9031 34.4466 81.7742 34.5237 81.6157V80.8822H34.0446C33.2958 80.8822 32.9213 81.1014 32.9213 81.5397C32.9213 81.7313 32.9852 81.8811 33.113 81.989C33.2407 82.0969 33.4048 82.1509 33.6052 82.1509ZM36.9222 78.1764V79.042H37.5896V79.5145H36.9222V81.7313C36.9222 81.8745 36.9519 81.9824 37.0114 82.0551C37.0709 82.1255 37.1722 82.1608 37.3154 82.1608C37.3858 82.1608 37.4828 82.1476 37.6061 82.1211V82.6167C37.4453 82.6607 37.2889 82.6828 37.137 82.6828C36.8638 82.6828 36.6579 82.6002 36.5192 82.435C36.3804 82.2698 36.311 82.0352 36.311 81.7313V79.5145H35.6602V79.042H36.311V78.1764H36.9222ZM39.7899 82.6828C39.3053 82.6828 38.9111 82.5242 38.6071 82.207C38.3032 81.8877 38.1512 81.4615 38.1512 80.9285V80.8161C38.1512 80.4615 38.2184 80.1455 38.3528 79.868C38.4893 79.5882 38.6787 79.3702 38.921 79.2138C39.1655 79.0552 39.4298 78.9759 39.7139 78.9759C40.1786 78.9759 40.5399 79.129 40.7975 79.4352C41.0552 79.7413 41.1841 80.1796 41.1841 80.7501V81.0045H38.7624C38.7712 81.3569 38.8736 81.6421 39.0697 81.8601C39.2679 82.076 39.519 82.1839 39.8229 82.1839C40.0388 82.1839 40.2216 82.1399 40.3714 82.0518C40.5211 81.9637 40.6522 81.8469 40.7645 81.7016L41.1378 81.9923C40.8383 82.4526 40.389 82.6828 39.7899 82.6828ZM39.7139 79.4781C39.4672 79.4781 39.2602 79.5684 39.0928 79.749C38.9254 79.9274 38.8219 80.1785 38.7822 80.5023H40.5729V80.456C40.5553 80.1455 40.4716 79.9054 40.3218 79.7358C40.172 79.564 39.9694 79.4781 39.7139 79.4781ZM41.7457 80.7996C41.7457 80.2512 41.8757 79.8107 42.1356 79.4781C42.3955 79.1433 42.7358 78.9759 43.1564 78.9759C43.5749 78.9759 43.9064 79.1191 44.1509 79.4054V77.5421H44.7621V82.6167H44.2004L44.1707 82.2335C43.9262 82.533 43.5859 82.6828 43.1498 82.6828C42.7358 82.6828 42.3977 82.5132 42.1356 82.174C41.8757 81.8348 41.7457 81.3921 41.7457 80.8459V80.7996ZM42.3569 80.869C42.3569 81.2743 42.4406 81.5914 42.608 81.8205C42.7754 82.0496 43.0067 82.1641 43.3018 82.1641C43.6895 82.1641 43.9725 81.9901 44.1509 81.6421V80.0001C43.9681 79.6631 43.6873 79.4946 43.3084 79.4946C43.0089 79.4946 42.7754 79.6103 42.608 79.8415C42.4406 80.0728 42.3569 80.4153 42.3569 80.869ZM49.4733 81.6685C49.4733 81.5033 49.4105 81.3756 49.285 81.2853C49.1616 81.1928 48.9447 81.1135 48.6341 81.0474C48.3258 80.9813 48.0802 80.902 47.8974 80.8095C47.7168 80.717 47.5824 80.6069 47.4943 80.4792C47.4084 80.3514 47.3655 80.1994 47.3655 80.0232C47.3655 79.7303 47.4888 79.4825 47.7355 79.2799C47.9844 79.0773 48.3015 78.9759 48.687 78.9759C49.0922 78.9759 49.4204 79.0806 49.6715 79.2898C49.9248 79.499 50.0514 79.7666 50.0514 80.0926H49.4369C49.4369 79.9252 49.3653 79.781 49.2222 79.6598C49.0812 79.5387 48.9028 79.4781 48.687 79.4781C48.4645 79.4781 48.2905 79.5266 48.165 79.6235C48.0394 79.7204 47.9767 79.847 47.9767 80.0034C47.9767 80.151 48.035 80.2622 48.1518 80.3371C48.2685 80.412 48.4788 80.4836 48.7828 80.5518C49.0889 80.6201 49.3367 80.7016 49.5261 80.7963C49.7155 80.891 49.8554 81.0056 49.9457 81.1399C50.0382 81.2721 50.0845 81.4339 50.0845 81.6256C50.0845 81.9449 49.9567 82.2015 49.7012 82.3953C49.4457 82.587 49.1143 82.6828 48.7068 82.6828C48.4205 82.6828 48.1672 82.6321 47.9469 82.5308C47.7267 82.4295 47.5538 82.2885 47.4282 82.1079C47.3049 81.9251 47.2432 81.728 47.2432 81.5165H47.8544C47.8654 81.7214 47.9469 81.8844 48.0989 82.0055C48.2531 82.1244 48.4557 82.1839 48.7068 82.1839C48.9381 82.1839 49.1231 82.1377 49.2618 82.0451C49.4028 81.9504 49.4733 81.8249 49.4733 81.6685ZM53.0876 82.6167C53.0524 82.5462 53.0237 82.4207 53.0017 82.2401C52.7176 82.5352 52.3784 82.6828 51.9841 82.6828C51.6317 82.6828 51.3421 82.5837 51.1152 82.3854C50.8906 82.185 50.7783 81.9317 50.7783 81.6256C50.7783 81.2533 50.9192 80.9648 51.2011 80.76C51.4853 80.5529 51.8839 80.4494 52.3971 80.4494H52.9918V80.1686C52.9918 79.955 52.9279 79.7854 52.8002 79.6598C52.6724 79.5321 52.4841 79.4682 52.2352 79.4682C52.0172 79.4682 51.8344 79.5233 51.6868 79.6334C51.5392 79.7435 51.4654 79.8768 51.4654 80.0331H50.8509C50.8509 79.8547 50.9137 79.6829 51.0393 79.5178C51.167 79.3504 51.3388 79.2182 51.5547 79.1213C51.7727 79.0244 52.0117 78.9759 52.2716 78.9759C52.6834 78.9759 53.0061 79.0795 53.2396 79.2865C53.473 79.4913 53.5942 79.7743 53.603 80.1356V81.7808C53.603 82.109 53.6448 82.37 53.7285 82.5638V82.6167H53.0876ZM52.0733 82.1509C52.265 82.1509 52.4467 82.1013 52.6185 82.0022C52.7903 81.9031 52.9147 81.7742 52.9918 81.6157V80.8822H52.5127C51.7639 80.8822 51.3895 81.1014 51.3895 81.5397C51.3895 81.7313 51.4533 81.8811 51.5811 81.989C51.7088 82.0969 51.8729 82.1509 52.0733 82.1509ZM55.2251 82.6167H54.6139V77.5421H55.2251V82.6167ZM57.6898 82.6828C57.2052 82.6828 56.811 82.5242 56.507 82.207C56.2031 81.8877 56.0511 81.4615 56.0511 80.9285V80.8161C56.0511 80.4615 56.1183 80.1455 56.2526 79.868C56.3892 79.5882 56.5786 79.3702 56.8209 79.2138C57.0654 79.0552 57.3297 78.9759 57.6138 78.9759C58.0785 78.9759 58.4397 79.129 58.6974 79.4352C58.9551 79.7413 59.084 80.1796 59.084 80.7501V81.0045H56.6623C56.6711 81.3569 56.7735 81.6421 56.9695 81.8601C57.1678 82.076 57.4189 82.1839 57.7228 82.1839C57.9387 82.1839 58.1215 82.1399 58.2712 82.0518C58.421 81.9637 58.5521 81.8469 58.6644 81.7016L59.0377 81.9923C58.7382 82.4526 58.2889 82.6828 57.6898 82.6828ZM57.6138 79.4781C57.3671 79.4781 57.1601 79.5684 56.9927 79.749C56.8253 79.9274 56.7218 80.1785 56.6821 80.5023H58.4728V80.456C58.4551 80.1455 58.3714 79.9054 58.2217 79.7358C58.0719 79.564 57.8693 79.4781 57.6138 79.4781ZM61.8757 81.6685C61.8757 81.5033 61.8129 81.3756 61.6873 81.2853C61.564 81.1928 61.347 81.1135 61.0365 81.0474C60.7281 80.9813 60.4826 80.902 60.2998 80.8095C60.1191 80.717 59.9848 80.6069 59.8967 80.4792C59.8108 80.3514 59.7678 80.1994 59.7678 80.0232C59.7678 79.7303 59.8912 79.4825 60.1379 79.2799C60.3868 79.0773 60.7039 78.9759 61.0894 78.9759C61.4946 78.9759 61.8228 79.0806 62.0739 79.2898C62.3272 79.499 62.4538 79.7666 62.4538 80.0926H61.8393C61.8393 79.9252 61.7677 79.781 61.6246 79.6598C61.4836 79.5387 61.3052 79.4781 61.0894 79.4781C60.8669 79.4781 60.6929 79.5266 60.5674 79.6235C60.4418 79.7204 60.379 79.847 60.379 80.0034C60.379 80.151 60.4374 80.2622 60.5541 80.3371C60.6709 80.412 60.8812 80.4836 61.1852 80.5518C61.4913 80.6201 61.7391 80.7016 61.9285 80.7963C62.1179 80.891 62.2578 81.0056 62.3481 81.1399C62.4406 81.2721 62.4869 81.4339 62.4869 81.6256C62.4869 81.9449 62.3591 82.2015 62.1036 82.3953C61.8481 82.587 61.5166 82.6828 61.1092 82.6828C60.8229 82.6828 60.5696 82.6321 60.3493 82.5308C60.1291 82.4295 59.9562 82.2885 59.8306 82.1079C59.7073 81.9251 59.6456 81.728 59.6456 81.5165H60.2568C60.2678 81.7214 60.3493 81.8844 60.5013 82.0055C60.6555 82.1244 60.8581 82.1839 61.1092 82.1839C61.3404 82.1839 61.5255 82.1377 61.6642 82.0451C61.8052 81.9504 61.8757 81.8249 61.8757 81.6685Z" fill="#323541"/>
<g filter="url(#filter2_d)">
<rect x="84.9648" y="2" width="78.0355" height="56.5559" rx="1.69153" fill="white"/>
<rect x="85.2076" y="2.24277" width="77.5499" height="56.0704" rx="1.44877" stroke="#DED3EB" stroke-width="0.485533"/>
</g>
<path d="M101.309 35.5645H97.9604V35.0976L99.7296 33.1318C99.9917 32.8346 100.172 32.5936 100.27 32.4087C100.371 32.2215 100.421 32.0284 100.421 31.8295C100.421 31.5628 100.34 31.3439 100.179 31.1731C100.017 31.0023 99.8021 30.9169 99.533 30.9169C99.21 30.9169 98.9585 31.0093 98.7783 31.1942C98.6004 31.3767 98.5115 31.6318 98.5115 31.9594H97.8621C97.8621 31.489 98.013 31.1088 98.3149 30.8186C98.6191 30.5284 99.0252 30.3833 99.533 30.3833C100.008 30.3833 100.384 30.5085 100.66 30.7589C100.936 31.007 101.074 31.3381 101.074 31.7523C101.074 32.2554 100.753 32.8545 100.112 33.5496L98.7432 35.0344H101.309V35.5645ZM102.043 36.5824L101.674 36.3297C101.894 36.0231 102.009 35.7072 102.018 35.3819V34.7957H102.654V35.3047C102.654 35.5411 102.595 35.7774 102.478 36.0138C102.363 36.2501 102.218 36.4397 102.043 36.5824ZM106.613 33.3846C106.613 34.1451 106.483 34.7103 106.224 35.08C105.964 35.4498 105.558 35.6347 105.005 35.6347C104.46 35.6347 104.057 35.4545 103.794 35.0941C103.532 34.7314 103.397 34.1908 103.387 33.4723V32.6053C103.387 31.8541 103.517 31.296 103.777 30.9309C104.037 30.5658 104.444 30.3833 104.998 30.3833C105.548 30.3833 105.953 30.56 106.213 30.9134C106.473 31.2644 106.606 31.8073 106.613 32.5421V33.3846ZM105.964 32.4965C105.964 31.9465 105.887 31.5464 105.732 31.296C105.578 31.0432 105.333 30.9169 104.998 30.9169C104.666 30.9169 104.424 31.0421 104.272 31.2925C104.12 31.5429 104.041 31.9278 104.037 32.4473V33.4864C104.037 34.0387 104.116 34.447 104.275 34.7115C104.437 34.9736 104.68 35.1046 105.005 35.1046C105.326 35.1046 105.564 34.9806 105.718 34.7325C105.875 34.4845 105.957 34.0937 105.964 33.5601V32.4965ZM110.794 35.5645H107.445V35.0976L109.214 33.1318C109.476 32.8346 109.657 32.5936 109.755 32.4087C109.856 32.2215 109.906 32.0284 109.906 31.8295C109.906 31.5628 109.825 31.3439 109.664 31.1731C109.502 31.0023 109.287 30.9169 109.018 30.9169C108.695 30.9169 108.443 31.0093 108.263 31.1942C108.085 31.3767 107.996 31.6318 107.996 31.9594H107.347C107.347 31.489 107.498 31.1088 107.8 30.8186C108.104 30.5284 108.51 30.3833 109.018 30.3833C109.493 30.3833 109.868 30.5085 110.145 30.7589C110.421 31.007 110.559 31.3381 110.559 31.7523C110.559 32.2554 110.238 32.8545 109.597 33.5496L108.228 35.0344H110.794V35.5645ZM114.03 30.45V31.0011H113.911C113.406 31.0105 113.003 31.1602 112.703 31.4504C112.404 31.7406 112.231 32.149 112.184 32.6755C112.453 32.3666 112.821 32.2122 113.286 32.2122C113.731 32.2122 114.085 32.3689 114.35 32.6825C114.617 32.9961 114.75 33.401 114.75 33.8971C114.75 34.4236 114.606 34.8448 114.318 35.1608C114.033 35.4767 113.649 35.6347 113.167 35.6347C112.678 35.6347 112.281 35.4474 111.977 35.073C111.673 34.6962 111.521 34.2118 111.521 33.6198V33.3705C111.521 32.4298 111.721 31.7114 112.121 31.2152C112.523 30.7168 113.121 30.4617 113.915 30.45H114.03ZM113.177 32.7527C112.955 32.7527 112.75 32.8194 112.563 32.9528C112.376 33.0862 112.246 33.2535 112.173 33.4548V33.6935C112.173 34.1147 112.268 34.454 112.458 34.7115C112.647 34.9689 112.884 35.0976 113.167 35.0976C113.459 35.0976 113.689 34.9899 113.855 34.7746C114.023 34.5593 114.108 34.2774 114.108 33.9287C114.108 33.5776 114.022 33.2945 113.851 33.0792C113.683 32.8615 113.458 32.7527 113.177 32.7527Z" fill="#323541"/>
<path d="M99.0574 44.4702H99.9796V44.8677H99.0574V45.9125H98.635V44.8677H97.7128V44.4702H98.635V43.5049H99.0574V44.4702ZM101.061 44.3862H101.376C101.575 44.3831 101.731 44.3309 101.844 44.2295C101.958 44.128 102.015 43.991 102.015 43.8183C102.015 43.4307 101.822 43.2369 101.436 43.2369C101.254 43.2369 101.108 43.2891 100.999 43.3936C100.892 43.4966 100.838 43.6336 100.838 43.8047H100.418C100.418 43.5428 100.513 43.3255 100.704 43.1528C100.896 42.9787 101.14 42.8916 101.436 42.8916C101.747 42.8916 101.992 42.9742 102.169 43.1392C102.346 43.3043 102.435 43.5337 102.435 43.8274C102.435 43.9713 102.388 44.1106 102.294 44.2454C102.202 44.3801 102.075 44.4808 101.915 44.5474C102.097 44.605 102.237 44.7004 102.335 44.8336C102.435 44.9669 102.485 45.1297 102.485 45.322C102.485 45.6188 102.388 45.8542 102.194 46.0284C102 46.2025 101.748 46.2896 101.438 46.2896C101.127 46.2896 100.875 46.2055 100.679 46.0374C100.485 45.8694 100.388 45.6475 100.388 45.3719H100.811C100.811 45.5461 100.868 45.6854 100.981 45.7899C101.095 45.8944 101.247 45.9466 101.438 45.9466C101.641 45.9466 101.796 45.8936 101.903 45.7876C102.011 45.6816 102.065 45.5294 102.065 45.3311C102.065 45.1388 102.006 44.9911 101.888 44.8881C101.769 44.7852 101.599 44.7322 101.376 44.7292H101.061V44.3862ZM105.229 46.2441H103.062V45.9421L104.207 44.6701C104.376 44.4778 104.493 44.3218 104.556 44.2022C104.621 44.0811 104.654 43.9561 104.654 43.8274C104.654 43.6548 104.602 43.5132 104.497 43.4027C104.393 43.2921 104.254 43.2369 104.079 43.2369C103.87 43.2369 103.708 43.2967 103.591 43.4163C103.476 43.5344 103.418 43.6995 103.418 43.9115H102.998C102.998 43.6071 103.096 43.361 103.291 43.1733C103.488 42.9855 103.751 42.8916 104.079 42.8916C104.387 42.8916 104.63 42.9726 104.808 43.1347C104.987 43.2952 105.077 43.5094 105.077 43.7775C105.077 44.103 104.869 44.4907 104.454 44.9404L103.568 45.9012H105.229V46.2441ZM106.855 44.9018C106.855 44.5596 106.9 44.231 106.991 43.916C107.084 43.601 107.221 43.3149 107.402 43.0574C107.584 42.8 107.773 42.6183 107.968 42.5123L108.054 42.7894C107.833 42.959 107.651 43.2179 107.509 43.5662C107.368 43.9145 107.291 44.3044 107.277 44.736L107.275 44.929C107.275 45.5135 107.382 46.0208 107.595 46.4508C107.724 46.7083 107.877 46.9096 108.054 47.055L107.968 47.3117C107.767 47.1996 107.574 47.0119 107.391 46.7484C107.034 46.2335 106.855 45.618 106.855 44.9018ZM109.665 44.4702H110.587V44.8677H109.665V45.9125H109.242V44.8677H108.32V44.4702H109.242V43.5049H109.665V44.4702ZM113.131 44.8336C113.131 45.3258 113.047 45.6914 112.879 45.9307C112.711 46.1699 112.448 46.2896 112.09 46.2896C111.738 46.2896 111.476 46.173 111.307 45.9398C111.137 45.7051 111.049 45.3553 111.043 44.8904V44.3294C111.043 43.8433 111.127 43.4822 111.295 43.246C111.464 43.0097 111.727 42.8916 112.086 42.8916C112.442 42.8916 112.704 43.006 112.872 43.2346C113.04 43.4617 113.126 43.813 113.131 44.2885V44.8336ZM112.711 44.259C112.711 43.9031 112.661 43.6442 112.561 43.4822C112.461 43.3186 112.302 43.2369 112.086 43.2369C111.871 43.2369 111.714 43.3179 111.616 43.4799C111.517 43.6419 111.467 43.891 111.464 44.2272V44.8995C111.464 45.2569 111.515 45.5211 111.618 45.6922C111.722 45.8618 111.88 45.9466 112.09 45.9466C112.298 45.9466 112.452 45.8663 112.552 45.7058C112.653 45.5453 112.706 45.2924 112.711 44.9472V44.259ZM113.721 46.0238C113.721 45.9511 113.742 45.8906 113.785 45.8421C113.829 45.7937 113.894 45.7694 113.98 45.7694C114.067 45.7694 114.132 45.7937 114.176 45.8421C114.221 45.8906 114.244 45.9511 114.244 46.0238C114.244 46.0935 114.221 46.1518 114.176 46.1987C114.132 46.2457 114.067 46.2691 113.98 46.2691C113.894 46.2691 113.829 46.2457 113.785 46.1987C113.742 46.1518 113.721 46.0935 113.721 46.0238ZM117.062 46.2441H114.896V45.9421L116.04 44.6701C116.21 44.4778 116.327 44.3218 116.39 44.2022C116.455 44.0811 116.488 43.9561 116.488 43.8274C116.488 43.6548 116.436 43.5132 116.331 43.4027C116.227 43.2921 116.087 43.2369 115.913 43.2369C115.704 43.2369 115.541 43.2967 115.425 43.4163C115.31 43.5344 115.252 43.6995 115.252 43.9115H114.832C114.832 43.6071 114.93 43.361 115.125 43.1733C115.322 42.9855 115.585 42.8916 115.913 42.8916C116.221 42.8916 116.464 42.9726 116.642 43.1347C116.821 43.2952 116.91 43.5094 116.91 43.7775C116.91 44.103 116.703 44.4907 116.288 44.9404L115.402 45.9012H117.062V46.2441ZM119.513 43.8002C119.513 43.9652 119.469 44.1121 119.381 44.2408C119.295 44.3695 119.178 44.4702 119.029 44.5429C119.202 44.6171 119.338 44.7254 119.438 44.8677C119.54 45.01 119.59 45.1713 119.59 45.3515C119.59 45.6377 119.494 45.8656 119.3 46.0352C119.107 46.2048 118.854 46.2896 118.539 46.2896C118.221 46.2896 117.966 46.2048 117.773 46.0352C117.583 45.8641 117.487 45.6362 117.487 45.3515C117.487 45.1728 117.536 45.0116 117.633 44.8677C117.731 44.7239 117.866 44.6148 118.039 44.5406C117.892 44.4679 117.776 44.3673 117.692 44.2385C117.607 44.1098 117.564 43.9637 117.564 43.8002C117.564 43.5216 117.654 43.3005 117.832 43.1369C118.011 42.9734 118.247 42.8916 118.539 42.8916C118.83 42.8916 119.064 42.9734 119.243 43.1369C119.423 43.3005 119.513 43.5216 119.513 43.8002ZM119.17 45.3424C119.17 45.1577 119.111 45.007 118.993 44.8904C118.876 44.7738 118.724 44.7155 118.534 44.7155C118.345 44.7155 118.193 44.7731 118.078 44.8881C117.964 45.0032 117.907 45.1547 117.907 45.3424C117.907 45.5302 117.963 45.6778 118.073 45.7853C118.185 45.8928 118.34 45.9466 118.539 45.9466C118.736 45.9466 118.89 45.8928 119.002 45.7853C119.114 45.6763 119.17 45.5287 119.17 45.3424ZM118.539 43.2369C118.374 43.2369 118.24 43.2884 118.137 43.3913C118.035 43.4928 117.985 43.6313 117.985 43.807C117.985 43.9751 118.035 44.1113 118.134 44.2158C118.236 44.3188 118.371 44.3703 118.539 44.3703C118.707 44.3703 118.841 44.3188 118.941 44.2158C119.042 44.1113 119.093 43.9751 119.093 43.807C119.093 43.6389 119.041 43.5019 118.936 43.3959C118.832 43.2899 118.699 43.2369 118.539 43.2369ZM120.083 43.573C120.083 43.3747 120.146 43.2111 120.272 43.0824C120.399 42.9537 120.562 42.8894 120.76 42.8894C120.962 42.8894 121.124 42.9545 121.249 43.0847C121.374 43.2134 121.437 43.3807 121.437 43.5867V43.7479C121.437 43.9478 121.373 44.1113 121.246 44.2385C121.121 44.3642 120.96 44.4271 120.765 44.4271C120.568 44.4271 120.405 44.3642 120.276 44.2385C120.148 44.1113 120.083 43.9425 120.083 43.732V43.573ZM120.397 43.7479C120.397 43.866 120.43 43.9637 120.497 44.0409C120.563 44.1166 120.653 44.1545 120.765 44.1545C120.872 44.1545 120.959 44.1174 121.024 44.0432C121.09 43.969 121.124 43.8676 121.124 43.7388V43.573C121.124 43.4549 121.091 43.3573 121.026 43.28C120.961 43.2028 120.872 43.1642 120.76 43.1642C120.648 43.1642 120.56 43.2028 120.494 43.28C120.429 43.3573 120.397 43.458 120.397 43.5821V43.7479ZM121.694 45.4333C121.694 45.2349 121.757 45.0721 121.882 44.9449C122.009 44.8162 122.172 44.7519 122.371 44.7519C122.569 44.7519 122.732 44.8155 122.859 44.9427C122.986 45.0699 123.05 45.2387 123.05 45.4492V45.6104C123.05 45.8088 122.986 45.9723 122.859 46.101C122.733 46.2282 122.572 46.2918 122.375 46.2918C122.178 46.2918 122.015 46.229 121.887 46.1033C121.758 45.9761 121.694 45.8073 121.694 45.5968V45.4333ZM122.007 45.6104C122.007 45.7301 122.04 45.8285 122.107 45.9057C122.174 45.9814 122.263 46.0193 122.375 46.0193C122.484 46.0193 122.571 45.9822 122.636 45.908C122.701 45.8323 122.734 45.7301 122.734 45.6013V45.4333C122.734 45.3136 122.701 45.216 122.634 45.1403C122.569 45.0646 122.481 45.0267 122.371 45.0267C122.263 45.0267 122.175 45.0646 122.107 45.1403C122.04 45.2145 122.007 45.3152 122.007 45.4424V45.6104ZM120.86 45.9943L120.622 45.8444L122.237 43.2596L122.475 43.4095L120.86 45.9943ZM124.54 44.9245C124.54 45.2622 124.495 45.5862 124.406 45.8966C124.318 46.2055 124.182 46.491 123.999 46.7529C123.817 47.0149 123.627 47.2011 123.427 47.3117L123.338 47.055C123.571 46.8763 123.758 46.5992 123.899 46.2237C124.042 45.8467 124.114 45.4287 124.117 44.9699V44.8972C124.117 44.5792 124.084 44.284 124.017 44.0114C123.951 43.7373 123.858 43.492 123.738 43.2755C123.62 43.059 123.487 42.8901 123.338 42.769L123.427 42.5123C123.627 42.6229 123.817 42.8076 123.997 43.0665C124.179 43.3255 124.314 43.6109 124.403 43.9228C124.494 44.2348 124.54 44.5686 124.54 44.9245Z" fill="#1A9B80"/>
<path d="M150.489 22.3358C150.347 22.1935 150.116 22.1935 149.974 22.3358L147.657 24.6532C147.514 24.7954 147.514 25.026 147.657 25.1682C147.799 25.3104 148.029 25.3104 148.172 25.1682L150.231 23.1082L152.291 25.1682C152.434 25.3104 152.664 25.3104 152.806 25.1682C152.949 25.026 152.949 24.7954 152.806 24.6532L150.489 22.3358ZM150.596 40.459L150.596 22.5932L149.867 22.5932L149.867 40.459L150.596 40.459Z" fill="#1A9B80"/>
<path d="M102.459 14.8689V18.1396C102.457 18.5934 102.314 18.9645 102.029 19.253C101.747 19.5415 101.364 19.7034 100.88 19.7387L100.711 19.7453C100.185 19.7453 99.7652 19.6032 99.4524 19.3191C99.1397 19.035 98.9811 18.644 98.9767 18.1462V14.8689H99.6044V18.1264C99.6044 18.4744 99.7002 18.7453 99.8918 18.9392C100.083 19.1308 100.357 19.2266 100.711 19.2266C101.07 19.2266 101.344 19.1308 101.534 18.9392C101.725 18.7475 101.821 18.4777 101.821 18.1297V14.8689H102.459ZM103.942 16.1045L103.962 16.5538C104.235 16.2102 104.592 16.0384 105.033 16.0384C105.788 16.0384 106.169 16.4646 106.176 17.317V19.6792H105.564V17.3137C105.562 17.056 105.503 16.8655 105.386 16.7421C105.271 16.6188 105.092 16.5571 104.848 16.5571C104.649 16.5571 104.475 16.61 104.326 16.7157C104.176 16.8214 104.059 16.9602 103.975 17.132V19.6792H103.364V16.1045H103.942ZM107.761 19.6792H107.15V16.1045H107.761V19.6792ZM107.101 15.1563C107.101 15.0572 107.13 14.9735 107.19 14.9052C107.252 14.837 107.342 14.8028 107.461 14.8028C107.58 14.8028 107.67 14.837 107.732 14.9052C107.793 14.9735 107.824 15.0572 107.824 15.1563C107.824 15.2554 107.793 15.338 107.732 15.4041C107.67 15.4702 107.58 15.5032 107.461 15.5032C107.342 15.5032 107.252 15.4702 107.19 15.4041C107.13 15.338 107.101 15.2554 107.101 15.1563ZM109.572 15.2389V16.1045H110.239V16.577H109.572V18.7938C109.572 18.937 109.602 19.0449 109.661 19.1176C109.721 19.188 109.822 19.2233 109.965 19.2233C110.036 19.2233 110.132 19.2101 110.256 19.1836V19.6792C110.095 19.7232 109.939 19.7453 109.787 19.7453C109.514 19.7453 109.308 19.6627 109.169 19.4975C109.03 19.3323 108.961 19.0977 108.961 18.7938V16.577H108.31V16.1045H108.961V15.2389H109.572ZM113.038 18.731C113.038 18.5658 112.975 18.4381 112.849 18.3478C112.726 18.2553 112.509 18.176 112.198 18.1099C111.89 18.0438 111.644 17.9645 111.462 17.872C111.281 17.7795 111.147 17.6694 111.059 17.5417C110.973 17.4139 110.93 17.2619 110.93 17.0857C110.93 16.7928 111.053 16.545 111.3 16.3424C111.549 16.1398 111.866 16.0384 112.251 16.0384C112.657 16.0384 112.985 16.1431 113.236 16.3523C113.489 16.5615 113.616 16.8291 113.616 17.1551H113.001C113.001 16.9877 112.93 16.8435 112.786 16.7223C112.646 16.6012 112.467 16.5406 112.251 16.5406C112.029 16.5406 111.855 16.5891 111.729 16.686C111.604 16.7829 111.541 16.9095 111.541 17.0659C111.541 17.2135 111.599 17.3247 111.716 17.3996C111.833 17.4745 112.043 17.5461 112.347 17.6143C112.653 17.6826 112.901 17.7641 113.09 17.8588C113.28 17.9535 113.42 18.0681 113.51 18.2024C113.603 18.3346 113.649 18.4964 113.649 18.6881C113.649 19.0074 113.521 19.264 113.266 19.4578C113.01 19.6495 112.679 19.7453 112.271 19.7453C111.985 19.7453 111.731 19.6946 111.511 19.5933C111.291 19.492 111.118 19.351 110.993 19.1704C110.869 18.9876 110.808 18.7905 110.808 18.579H111.419C111.43 18.7839 111.511 18.9469 111.663 19.068C111.817 19.1869 112.02 19.2464 112.271 19.2464C112.502 19.2464 112.687 19.2002 112.826 19.1076C112.967 19.0129 113.038 18.8874 113.038 18.731ZM118.205 18.731C118.205 18.5658 118.142 18.4381 118.016 18.3478C117.893 18.2553 117.676 18.176 117.366 18.1099C117.057 18.0438 116.812 17.9645 116.629 17.872C116.448 17.7795 116.314 17.6694 116.226 17.5417C116.14 17.4139 116.097 17.2619 116.097 17.0857C116.097 16.7928 116.22 16.545 116.467 16.3424C116.716 16.1398 117.033 16.0384 117.418 16.0384C117.824 16.0384 118.152 16.1431 118.403 16.3523C118.656 16.5615 118.783 16.8291 118.783 17.1551H118.168C118.168 16.9877 118.097 16.8435 117.954 16.7223C117.813 16.6012 117.634 16.5406 117.418 16.5406C117.196 16.5406 117.022 16.5891 116.896 16.686C116.771 16.7829 116.708 16.9095 116.708 17.0659C116.708 17.2135 116.766 17.3247 116.883 17.3996C117 17.4745 117.21 17.5461 117.514 17.6143C117.82 17.6826 118.068 17.7641 118.258 17.8588C118.447 17.9535 118.587 18.0681 118.677 18.2024C118.77 18.3346 118.816 18.4964 118.816 18.6881C118.816 19.0074 118.688 19.264 118.433 19.4578C118.177 19.6495 117.846 19.7453 117.438 19.7453C117.152 19.7453 116.899 19.6946 116.678 19.5933C116.458 19.492 116.285 19.351 116.16 19.1704C116.036 18.9876 115.975 18.7905 115.975 18.579H116.586C116.597 18.7839 116.678 18.9469 116.83 19.068C116.984 19.1869 117.187 19.2464 117.438 19.2464C117.669 19.2464 117.854 19.2002 117.993 19.1076C118.134 19.0129 118.205 18.8874 118.205 18.731ZM119.45 17.8588C119.45 17.5086 119.518 17.1937 119.655 16.9139C119.794 16.6342 119.985 16.4184 120.23 16.2664C120.477 16.1144 120.757 16.0384 121.072 16.0384C121.559 16.0384 121.952 16.2069 122.252 16.5439C122.554 16.8809 122.704 17.3291 122.704 17.8886V17.9315C122.704 18.2795 122.637 18.5923 122.503 18.8698C122.371 19.1451 122.18 19.3598 121.931 19.514C121.685 19.6682 121.401 19.7453 121.079 19.7453C120.594 19.7453 120.201 19.5768 119.9 19.2398C119.6 18.9028 119.45 18.4568 119.45 17.9018V17.8588ZM120.065 17.9315C120.065 18.328 120.156 18.6462 120.339 18.8863C120.524 19.1264 120.771 19.2464 121.079 19.2464C121.39 19.2464 121.636 19.1253 121.819 18.883C122.002 18.6385 122.093 18.2971 122.093 17.8588C122.093 17.4668 122 17.1496 121.812 16.9073C121.627 16.6628 121.381 16.5406 121.072 16.5406C120.771 16.5406 120.527 16.6606 120.342 16.9007C120.157 17.1408 120.065 17.4844 120.065 17.9315ZM124.135 19.6792H123.524V14.6046H124.135V19.6792ZM124.968 17.8621C124.968 17.3137 125.097 16.8732 125.357 16.5406C125.617 16.2058 125.958 16.0384 126.378 16.0384C126.797 16.0384 127.128 16.1816 127.373 16.4679V14.6046H127.984V19.6792H127.422L127.392 19.296C127.148 19.5955 126.808 19.7453 126.372 19.7453C125.958 19.7453 125.619 19.5757 125.357 19.2365C125.097 18.8973 124.968 18.4546 124.968 17.9084V17.8621ZM125.579 17.9315C125.579 18.3368 125.662 18.6539 125.83 18.883C125.997 19.1121 126.228 19.2266 126.524 19.2266C126.911 19.2266 127.194 19.0526 127.373 18.7046V17.0626C127.19 16.7256 126.909 16.5571 126.53 16.5571C126.231 16.5571 125.997 16.6728 125.83 16.904C125.662 17.1353 125.579 17.4778 125.579 17.9315Z" fill="#323541"/>
<g filter="url(#filter3_d)">
<rect x="84.9648" y="63.3838" width="78.0355" height="56.298" rx="1.69153" fill="white"/>
<rect x="85.2076" y="63.6266" width="77.5499" height="55.8125" rx="1.44877" stroke="#DED3EB" stroke-width="0.485533"/>
</g>
<path d="M100.54 90.7706C100.54 90.5553 100.464 90.3739 100.312 90.2265C100.162 90.079 99.9081 89.9457 99.55 89.8263C99.0516 89.6742 98.6877 89.4764 98.4584 89.2331C98.2314 88.9874 98.1179 88.6761 98.1179 88.2993C98.1179 87.9156 98.229 87.6008 98.4513 87.3551C98.676 87.1094 98.9837 86.9631 99.3745 86.9163V86.1475H99.8976V86.9198C100.291 86.9736 100.596 87.1386 100.814 87.4148C101.034 87.6909 101.144 88.0688 101.144 88.5486H100.498C100.498 88.2186 100.419 87.9565 100.263 87.7623C100.106 87.568 99.8941 87.4709 99.6273 87.4709C99.3488 87.4709 99.1358 87.5435 98.9884 87.6886C98.841 87.8313 98.7673 88.0314 98.7673 88.2888C98.7673 88.5275 98.8445 88.7182 98.9989 88.861C99.1557 89.0014 99.412 89.1301 99.7677 89.2471C100.126 89.3618 100.404 89.4893 100.603 89.6297C100.804 89.7678 100.952 89.9293 101.045 90.1141C101.141 90.299 101.189 90.5155 101.189 90.7635C101.189 91.159 101.07 91.4773 100.831 91.7183C100.595 91.9594 100.263 92.1021 99.8344 92.1466V92.817H99.3149V92.1466C98.8796 92.1068 98.5379 91.9524 98.2899 91.6832C98.0441 91.4118 97.9213 91.0444 97.9213 90.581H98.5707C98.5707 90.9063 98.6561 91.1567 98.8269 91.3322C98.9978 91.5077 99.24 91.5955 99.5536 91.5955C99.8601 91.5955 100.101 91.5218 100.277 91.3743C100.452 91.2269 100.54 91.0256 100.54 90.7706ZM106.521 90.3704H107.231V90.9004H106.521V92.0869H105.869V90.9004H103.541V90.5178L105.83 86.976H106.521V90.3704ZM104.278 90.3704H105.869V87.8641L105.791 88.0045L104.278 90.3704ZM107.862 93.1049L107.494 92.8522C107.714 92.5456 107.828 92.2297 107.838 91.9044V91.3182H108.473V91.8272C108.473 92.0635 108.415 92.2999 108.298 92.5362C108.183 92.7726 108.038 92.9621 107.862 93.1049ZM112.327 88.3099C112.327 88.5649 112.26 88.7919 112.124 88.9909C111.99 89.1898 111.809 89.3454 111.58 89.4577C111.847 89.5724 112.057 89.7397 112.212 89.9597C112.368 90.1797 112.447 90.4289 112.447 90.7074C112.447 91.1497 112.297 91.5019 111.997 91.764C111.7 92.0261 111.308 92.1571 110.822 92.1571C110.33 92.1571 109.936 92.0261 109.639 91.764C109.344 91.4995 109.196 91.1473 109.196 90.7074C109.196 90.4312 109.271 90.182 109.421 89.9597C109.573 89.7374 109.782 89.5689 110.049 89.4542C109.822 89.3419 109.643 89.1863 109.512 88.9874C109.381 88.7884 109.316 88.5626 109.316 88.3099C109.316 87.8793 109.454 87.5376 109.73 87.2849C110.006 87.0321 110.37 86.9058 110.822 86.9058C111.271 86.9058 111.634 87.0321 111.91 87.2849C112.188 87.5376 112.327 87.8793 112.327 88.3099ZM111.797 90.6933C111.797 90.4078 111.706 90.175 111.524 89.9948C111.343 89.8146 111.107 89.7245 110.814 89.7245C110.522 89.7245 110.287 89.8134 110.109 89.9913C109.933 90.1691 109.846 90.4032 109.846 90.6933C109.846 90.9835 109.931 91.2117 110.102 91.3778C110.275 91.544 110.515 91.6271 110.822 91.6271C111.126 91.6271 111.364 91.544 111.538 91.3778C111.711 91.2093 111.797 90.9812 111.797 90.6933ZM110.822 87.4393C110.566 87.4393 110.359 87.5189 110.2 87.678C110.043 87.8348 109.965 88.0489 109.965 88.3204C109.965 88.5802 110.042 88.7908 110.197 88.9522C110.353 89.1114 110.562 89.1909 110.822 89.1909C111.081 89.1909 111.288 89.1114 111.443 88.9522C111.6 88.7908 111.678 88.5802 111.678 88.3204C111.678 88.0606 111.597 87.8489 111.436 87.685C111.274 87.5212 111.07 87.4393 110.822 87.4393ZM116.613 92.0869H113.265V91.62L115.034 89.6543C115.296 89.3571 115.476 89.1161 115.574 88.9312C115.675 88.744 115.725 88.5509 115.725 88.352C115.725 88.0852 115.645 87.8664 115.483 87.6956C115.322 87.5247 115.106 87.4393 114.837 87.4393C114.514 87.4393 114.263 87.5318 114.083 87.7166C113.905 87.8992 113.816 88.1542 113.816 88.4819H113.166C113.166 88.0115 113.317 87.6312 113.619 87.341C113.923 87.0509 114.329 86.9058 114.837 86.9058C115.312 86.9058 115.688 87.031 115.964 87.2814C116.24 87.5294 116.378 87.8606 116.378 88.2748C116.378 88.7779 116.058 89.377 115.416 90.072L114.047 91.5569H116.613V92.0869ZM120.506 89.907C120.506 90.6676 120.376 91.2327 120.117 91.6025C119.857 91.9722 119.451 92.1571 118.899 92.1571C118.353 92.1571 117.95 91.9769 117.688 91.6165C117.425 91.2538 117.29 90.7132 117.28 89.9948V89.1278C117.28 88.3766 117.41 87.8184 117.67 87.4534C117.93 87.0883 118.337 86.9058 118.892 86.9058C119.442 86.9058 119.846 87.0824 120.106 87.4358C120.366 87.7868 120.499 88.3298 120.506 89.0646V89.907ZM119.857 89.0189C119.857 88.469 119.78 88.0688 119.625 87.8184C119.471 87.5657 119.226 87.4393 118.892 87.4393C118.559 87.4393 118.317 87.5645 118.165 87.8149C118.013 88.0653 117.934 88.4503 117.93 88.9698V90.0088C117.93 90.5611 118.009 90.9695 118.168 91.2339C118.33 91.496 118.573 91.6271 118.899 91.6271C119.219 91.6271 119.457 91.503 119.611 91.255C119.768 91.0069 119.85 90.6161 119.857 90.0826V89.0189ZM121.419 91.7464C121.419 91.6341 121.452 91.5405 121.517 91.4656C121.585 91.3907 121.686 91.3533 121.819 91.3533C121.953 91.3533 122.053 91.3907 122.121 91.4656C122.191 91.5405 122.226 91.6341 122.226 91.7464C122.226 91.8541 122.191 91.9442 122.121 92.0167C122.053 92.0893 121.953 92.1255 121.819 92.1255C121.686 92.1255 121.585 92.0893 121.517 92.0167C121.452 91.9442 121.419 91.8541 121.419 91.7464ZM126.583 92.0869H123.234V91.62L125.003 89.6543C125.265 89.3571 125.445 89.1161 125.544 88.9312C125.644 88.744 125.694 88.5509 125.694 88.352C125.694 88.0852 125.614 87.8664 125.452 87.6956C125.291 87.5247 125.076 87.4393 124.806 87.4393C124.483 87.4393 124.232 87.5318 124.052 87.7166C123.874 87.8992 123.785 88.1542 123.785 88.4819H123.136C123.136 88.0115 123.286 87.6312 123.588 87.341C123.893 87.0509 124.299 86.9058 124.806 86.9058C125.281 86.9058 125.657 87.031 125.933 87.2814C126.209 87.5294 126.347 87.8606 126.347 88.2748C126.347 88.7779 126.027 89.377 125.386 90.072L124.017 91.5569H126.583V92.0869ZM129.405 92.0869H128.752V87.7588L127.443 88.2397V87.6499L129.303 86.9514H129.405V92.0869Z" fill="#323541"/>
<path d="M20.0315 101.349H17.7557V101.006H20.0315V101.349ZM22.3847 101.976C22.3847 101.837 22.3354 101.719 22.237 101.624C22.1401 101.528 21.9758 101.442 21.7441 101.365C21.4216 101.266 21.1861 101.139 21.0378 100.981C20.8909 100.822 20.8174 100.621 20.8174 100.377C20.8174 100.129 20.8894 99.9249 21.0332 99.7659C21.1786 99.6069 21.3777 99.5122 21.6306 99.4819V98.9845H21.969V99.4842C22.2234 99.519 22.421 99.6258 22.5618 99.8045C22.7042 99.9832 22.7753 100.228 22.7753 100.538H22.3574C22.3574 100.325 22.3067 100.155 22.2052 100.029C22.1038 99.9037 21.9667 99.8408 21.7941 99.8408C21.6139 99.8408 21.4761 99.8878 21.3807 99.9816C21.2853 100.074 21.2376 100.203 21.2376 100.37C21.2376 100.524 21.2876 100.648 21.3875 100.74C21.489 100.831 21.6548 100.914 21.885 100.99C22.1166 101.064 22.2968 101.147 22.4255 101.238C22.5558 101.327 22.6512 101.432 22.7117 101.551C22.7738 101.671 22.8049 101.811 22.8049 101.971C22.8049 102.227 22.7276 102.433 22.5732 102.589C22.4202 102.745 22.2052 102.837 21.9281 102.866V103.3H21.592V102.866C21.3103 102.841 21.0892 102.741 20.9287 102.566C20.7697 102.391 20.6902 102.153 20.6902 101.853H21.1104C21.1104 102.064 21.1657 102.226 21.2762 102.339C21.3868 102.453 21.5435 102.51 21.7464 102.51C21.9448 102.51 22.1007 102.462 22.2143 102.367C22.3279 102.271 22.3847 102.141 22.3847 101.976ZM24.9377 101.374C24.8498 101.478 24.7446 101.562 24.6219 101.626C24.5008 101.69 24.3675 101.721 24.2222 101.721C24.0314 101.721 23.8648 101.675 23.7225 101.581C23.5817 101.487 23.4726 101.355 23.3954 101.185C23.3182 101.014 23.2796 100.826 23.2796 100.62C23.2796 100.399 23.3212 100.2 23.4045 100.023C23.4893 99.8454 23.6089 99.7098 23.7634 99.616C23.9178 99.5221 24.098 99.4751 24.3039 99.4751C24.631 99.4751 24.8884 99.5978 25.0762 99.8431C25.2655 100.087 25.3601 100.42 25.3601 100.842V100.965C25.3601 101.609 25.2329 102.079 24.9785 102.376C24.7241 102.671 24.3403 102.822 23.827 102.83H23.7452V102.476H23.8338C24.1805 102.47 24.447 102.379 24.6333 102.205C24.8195 102.03 24.921 101.753 24.9377 101.374ZM24.2903 101.374C24.4311 101.374 24.5606 101.331 24.6787 101.245C24.7983 101.158 24.8854 101.051 24.9399 100.924V100.756C24.9399 100.481 24.8801 100.256 24.7605 100.084C24.6409 99.9112 24.4894 99.8249 24.3062 99.8249C24.1215 99.8249 23.9731 99.8961 23.861 100.038C23.749 100.179 23.693 100.365 23.693 100.597C23.693 100.823 23.7467 101.009 23.8542 101.156C23.9632 101.301 24.1086 101.374 24.2903 101.374ZM27.9449 100.384C27.9449 100.549 27.901 100.696 27.8132 100.824C27.7269 100.953 27.6095 101.054 27.4611 101.126C27.6337 101.201 27.77 101.309 27.87 101.451C27.9714 101.594 28.0221 101.755 28.0221 101.935C28.0221 102.221 27.9252 102.449 27.7314 102.619C27.5391 102.788 27.2855 102.873 26.9705 102.873C26.6525 102.873 26.3974 102.788 26.2051 102.619C26.0143 102.448 25.9189 102.22 25.9189 101.935C25.9189 101.756 25.9673 101.595 26.0642 101.451C26.1627 101.307 26.2982 101.198 26.4708 101.124C26.3239 101.051 26.2081 100.951 26.1233 100.822C26.0385 100.693 25.9961 100.547 25.9961 100.384C25.9961 100.105 26.0854 99.884 26.2641 99.7204C26.4428 99.5569 26.6783 99.4751 26.9705 99.4751C27.2612 99.4751 27.4959 99.5569 27.6746 99.7204C27.8548 99.884 27.9449 100.105 27.9449 100.384ZM27.6019 101.926C27.6019 101.741 27.5429 101.591 27.4248 101.474C27.3082 101.357 27.1552 101.299 26.966 101.299C26.7767 101.299 26.6245 101.357 26.5094 101.472C26.3959 101.587 26.3391 101.738 26.3391 101.926C26.3391 102.114 26.3943 102.261 26.5049 102.369C26.6169 102.476 26.7721 102.53 26.9705 102.53C27.1674 102.53 27.3218 102.476 27.4339 102.369C27.5459 102.26 27.6019 102.112 27.6019 101.926ZM26.9705 99.8204C26.8055 99.8204 26.6714 99.8719 26.5685 99.9748C26.467 100.076 26.4163 100.215 26.4163 100.39C26.4163 100.559 26.4663 100.695 26.5662 100.799C26.6677 100.902 26.8024 100.954 26.9705 100.954C27.1386 100.954 27.2726 100.902 27.3725 100.799C27.474 100.695 27.5247 100.559 27.5247 100.39C27.5247 100.222 27.4725 100.085 27.368 99.9794C27.2635 99.8734 27.131 99.8204 26.9705 99.8204ZM28.6036 102.607C28.6036 102.535 28.6248 102.474 28.6672 102.426C28.7111 102.377 28.7762 102.353 28.8625 102.353C28.9489 102.353 29.014 102.377 29.0579 102.426C29.1033 102.474 29.126 102.535 29.126 102.607C29.126 102.677 29.1033 102.735 29.0579 102.782C29.014 102.829 28.9489 102.853 28.8625 102.853C28.7762 102.853 28.7111 102.829 28.6672 102.782C28.6248 102.735 28.6036 102.677 28.6036 102.607ZM31.9448 102.828H29.7779V102.526L30.9227 101.254C31.0922 101.061 31.2088 100.905 31.2724 100.786C31.3376 100.665 31.3701 100.54 31.3701 100.411C31.3701 100.238 31.3179 100.097 31.2134 99.9862C31.1089 99.8756 30.9696 99.8204 30.7955 99.8204C30.5865 99.8204 30.4237 99.8802 30.3071 99.9998C30.192 100.118 30.1345 100.283 30.1345 100.495H29.7143C29.7143 100.191 29.812 99.9445 30.0073 99.7568C30.2042 99.569 30.4669 99.4751 30.7955 99.4751C31.1028 99.4751 31.3459 99.5561 31.5246 99.7182C31.7032 99.8787 31.7926 100.093 31.7926 100.361C31.7926 100.687 31.5851 101.074 31.1702 101.524L30.2844 102.485H31.9448V102.828ZM33.7709 102.828H33.3485V100.027L32.5012 100.338V99.9567L33.7051 99.5047H33.7709V102.828ZM35.0293 101.485C35.0293 101.143 35.0747 100.814 35.1655 100.5C35.2579 100.185 35.3949 99.8984 35.5766 99.6409C35.7584 99.3835 35.9469 99.2018 36.1422 99.0958L36.2285 99.3729C36.0074 99.5425 35.8257 99.8014 35.6834 100.15C35.5426 100.498 35.4653 100.888 35.4517 101.319L35.4494 101.513C35.4494 102.097 35.5562 102.604 35.7697 103.034C35.8984 103.292 36.0514 103.493 36.2285 103.639L36.1422 103.895C35.9408 103.783 35.7485 103.595 35.5653 103.332C35.2079 102.817 35.0293 102.202 35.0293 101.485ZM38.961 101.349H36.6851V101.006H38.961V101.349ZM41.7184 101.417C41.7184 101.909 41.6343 102.275 41.4663 102.514C41.2982 102.753 41.0355 102.873 40.6781 102.873C40.3253 102.873 40.0641 102.756 39.8945 102.523C39.7249 102.289 39.6371 101.939 39.631 101.474V100.913C39.631 100.427 39.715 100.066 39.8831 99.8295C40.0512 99.5932 40.3147 99.4751 40.6736 99.4751C41.0294 99.4751 41.2914 99.5895 41.4594 99.8181C41.6275 100.045 41.7138 100.397 41.7184 100.872V101.417ZM41.2982 100.842C41.2982 100.487 41.2482 100.228 41.1483 100.066C41.0483 99.9021 40.8901 99.8204 40.6736 99.8204C40.4585 99.8204 40.3018 99.9014 40.2034 100.063C40.105 100.225 40.0542 100.475 40.0512 100.811V101.483C40.0512 101.84 40.1027 102.105 40.2057 102.276C40.3101 102.445 40.4676 102.53 40.6781 102.53C40.8855 102.53 41.0392 102.45 41.1392 102.289C41.2406 102.129 41.2936 101.876 41.2982 101.531V100.842ZM42.3089 102.607C42.3089 102.535 42.3301 102.474 42.3725 102.426C42.4164 102.377 42.4815 102.353 42.5679 102.353C42.6542 102.353 42.7193 102.377 42.7632 102.426C42.8086 102.474 42.8313 102.535 42.8313 102.607C42.8313 102.677 42.8086 102.735 42.7632 102.782C42.7193 102.829 42.6542 102.853 42.5679 102.853C42.4815 102.853 42.4164 102.829 42.3725 102.782C42.3301 102.735 42.3089 102.677 42.3089 102.607ZM44.0942 100.97H44.4099C44.6083 100.967 44.7642 100.914 44.8778 100.813C44.9914 100.711 45.0482 100.574 45.0482 100.402C45.0482 100.014 44.8551 99.8204 44.469 99.8204C44.2873 99.8204 44.1419 99.8726 44.0329 99.9771C43.9254 100.08 43.8716 100.217 43.8716 100.388H43.4514C43.4514 100.126 43.5468 99.909 43.7376 99.7363C43.9299 99.5622 44.1737 99.4751 44.469 99.4751C44.7809 99.4751 45.0255 99.5577 45.2026 99.7227C45.3798 99.8878 45.4684 100.117 45.4684 100.411C45.4684 100.555 45.4214 100.694 45.3275 100.829C45.2352 100.964 45.1087 101.064 44.9482 101.131C45.1299 101.188 45.27 101.284 45.3684 101.417C45.4684 101.55 45.5183 101.713 45.5183 101.905C45.5183 102.202 45.4214 102.438 45.2276 102.612C45.0338 102.786 44.7817 102.873 44.4712 102.873C44.1608 102.873 43.9079 102.789 43.7126 102.621C43.5188 102.453 43.4219 102.231 43.4219 101.955H43.8444C43.8444 102.13 43.9011 102.269 44.0147 102.373C44.1283 102.478 44.2805 102.53 44.4712 102.53C44.6742 102.53 44.8294 102.477 44.9369 102.371C45.0444 102.265 45.0981 102.113 45.0981 101.915C45.0981 101.722 45.0391 101.575 44.921 101.472C44.8029 101.369 44.6325 101.316 44.4099 101.313H44.0942V100.97ZM48.1009 100.384C48.1009 100.549 48.0569 100.696 47.9691 100.824C47.8828 100.953 47.7655 101.054 47.6171 101.126C47.7897 101.201 47.926 101.309 48.0259 101.451C48.1274 101.594 48.1781 101.755 48.1781 101.935C48.1781 102.221 48.0812 102.449 47.8873 102.619C47.695 102.788 47.4414 102.873 47.1264 102.873C46.8085 102.873 46.5533 102.788 46.361 102.619C46.1702 102.448 46.0748 102.22 46.0748 101.935C46.0748 101.756 46.1233 101.595 46.2202 101.451C46.3186 101.307 46.4541 101.198 46.6268 101.124C46.4799 101.051 46.364 100.951 46.2792 100.822C46.1944 100.693 46.152 100.547 46.152 100.384C46.152 100.105 46.2414 99.884 46.4201 99.7204C46.5987 99.5569 46.8342 99.4751 47.1264 99.4751C47.4172 99.4751 47.6519 99.5569 47.8306 99.7204C48.0108 99.884 48.1009 100.105 48.1009 100.384ZM47.7579 101.926C47.7579 101.741 47.6988 101.591 47.5807 101.474C47.4641 101.357 47.3112 101.299 47.1219 101.299C46.9326 101.299 46.7804 101.357 46.6654 101.472C46.5518 101.587 46.495 101.738 46.495 101.926C46.495 102.114 46.5503 102.261 46.6608 102.369C46.7729 102.476 46.9281 102.53 47.1264 102.53C47.3233 102.53 47.4777 102.476 47.5898 102.369C47.7019 102.26 47.7579 102.112 47.7579 101.926ZM47.1264 99.8204C46.9614 99.8204 46.8274 99.8719 46.7244 99.9748C46.623 100.076 46.5722 100.215 46.5722 100.39C46.5722 100.559 46.6222 100.695 46.7221 100.799C46.8236 100.902 46.9584 100.954 47.1264 100.954C47.2945 100.954 47.4285 100.902 47.5285 100.799C47.6299 100.695 47.6807 100.559 47.6807 100.39C47.6807 100.222 47.6284 100.085 47.5239 99.9794C47.4195 99.8734 47.287 99.8204 47.1264 99.8204ZM48.671 100.157C48.671 99.9582 48.7338 99.7946 48.8595 99.6659C48.9867 99.5372 49.1495 99.4729 49.3478 99.4729C49.5492 99.4729 49.712 99.538 49.8362 99.6682C49.9618 99.7969 50.0247 99.9642 50.0247 100.17V100.331C50.0247 100.531 49.9611 100.695 49.8339 100.822C49.7082 100.948 49.5477 101.011 49.3524 101.011C49.1555 101.011 48.9927 100.948 48.864 100.822C48.7353 100.695 48.671 100.526 48.671 100.316V100.157ZM48.9844 100.331C48.9844 100.45 49.0177 100.547 49.0843 100.624C49.151 100.7 49.2403 100.738 49.3524 100.738C49.4599 100.738 49.5462 100.701 49.6113 100.627C49.6779 100.553 49.7112 100.451 49.7112 100.322V100.157C49.7112 100.038 49.6787 99.9408 49.6136 99.8635C49.5485 99.7863 49.4599 99.7477 49.3478 99.7477C49.2358 99.7477 49.1472 99.7863 49.0821 99.8635C49.017 99.9408 48.9844 100.041 48.9844 100.166V100.331ZM50.2813 102.017C50.2813 101.818 50.3442 101.656 50.4699 101.528C50.5971 101.4 50.7598 101.335 50.9582 101.335C51.1566 101.335 51.3194 101.399 51.4466 101.526C51.5737 101.653 51.6373 101.822 51.6373 102.033V102.194C51.6373 102.392 51.5737 102.556 51.4466 102.685C51.3209 102.812 51.1596 102.875 50.9628 102.875C50.7659 102.875 50.6031 102.812 50.4744 102.687C50.3457 102.56 50.2813 102.391 50.2813 102.18V102.017ZM50.5948 102.194C50.5948 102.314 50.6281 102.412 50.6947 102.489C50.7614 102.565 50.8507 102.603 50.9628 102.603C51.0718 102.603 51.1588 102.566 51.224 102.491C51.2891 102.416 51.3216 102.314 51.3216 102.185V102.017C51.3216 101.897 51.2883 101.799 51.2217 101.724C51.1566 101.648 51.0687 101.61 50.9582 101.61C50.8507 101.61 50.7629 101.648 50.6947 101.724C50.6281 101.798 50.5948 101.899 50.5948 102.026V102.194ZM49.4478 102.578L49.2093 102.428L50.8242 99.8431L51.0627 99.993L49.4478 102.578ZM53.1273 101.508C53.1273 101.846 53.0827 102.17 52.9933 102.48C52.9055 102.789 52.77 103.074 52.5868 103.336C52.4051 103.598 52.2143 103.785 52.0144 103.895L51.9258 103.639C52.159 103.46 52.346 103.183 52.4868 102.807C52.6292 102.43 52.7018 102.012 52.7049 101.553V101.481C52.7049 101.163 52.6716 100.867 52.6049 100.595C52.5383 100.321 52.4452 100.076 52.3256 99.859C52.2075 99.6425 52.0742 99.4736 51.9258 99.3525L52.0144 99.0958C52.2143 99.2064 52.4043 99.3911 52.5845 99.65C52.7662 99.909 52.9017 100.194 52.9911 100.506C53.0819 100.818 53.1273 101.152 53.1273 101.508Z" fill="#00A254"/>
<path d="M149.973 99.6555C150.116 99.7977 150.346 99.7977 150.488 99.6555L152.806 97.338C152.948 97.1958 152.948 96.9652 152.806 96.823C152.664 96.6808 152.433 96.6808 152.291 96.823L150.231 98.883L148.171 96.823C148.029 96.6808 147.798 96.6808 147.656 96.823C147.514 96.9652 147.514 97.1958 147.656 97.338L149.973 99.6555ZM149.867 81.5322L149.867 99.398L150.595 99.398L150.595 81.5322L149.867 81.5322Z" fill="#1A9B80"/>
<path d="M99.7068 80.3542V82.2373H99.0725V77.427H100.847C101.373 77.427 101.785 77.5614 102.082 77.8301C102.382 78.0988 102.532 78.4545 102.532 78.8972C102.532 79.3641 102.385 79.7242 102.092 79.9775C101.801 80.2286 101.384 80.3542 100.84 80.3542H99.7068ZM99.7068 79.8355H100.847C101.186 79.8355 101.446 79.7562 101.626 79.5976C101.807 79.4368 101.897 79.2055 101.897 78.9038C101.897 78.6175 101.807 78.3884 101.626 78.2166C101.446 78.0448 101.198 77.9556 100.883 77.949H99.7068V79.8355ZM103.975 80.3542V82.2373H103.341V77.427H105.115C105.642 77.427 106.053 77.5614 106.351 77.8301C106.65 78.0988 106.8 78.4545 106.8 78.8972C106.8 79.3641 106.654 79.7242 106.361 79.9775C106.07 80.2286 105.653 80.3542 105.109 80.3542H103.975ZM103.975 79.8355H105.115C105.454 79.8355 105.714 79.7562 105.895 79.5976C106.075 79.4368 106.166 79.2055 106.166 78.9038C106.166 78.6175 106.075 78.3884 105.895 78.2166C105.714 78.0448 105.466 77.9556 105.151 77.949H103.975V79.8355ZM111.148 80.711C111.088 81.2197 110.9 81.6129 110.583 81.8904C110.268 82.1657 109.848 82.3034 109.324 82.3034C108.756 82.3034 108.3 82.0996 107.956 81.6922C107.615 81.2847 107.444 80.7396 107.444 80.0568V79.5943C107.444 79.1472 107.524 78.754 107.682 78.4148C107.843 78.0756 108.07 77.8157 108.363 77.6351C108.656 77.4523 108.995 77.3609 109.38 77.3609C109.891 77.3609 110.301 77.5041 110.609 77.7904C110.918 78.0745 111.097 78.4688 111.148 78.9732H110.51C110.455 78.5899 110.335 78.3124 110.15 78.1406C109.967 77.9688 109.711 77.8829 109.38 77.8829C108.975 77.8829 108.657 78.0327 108.425 78.3322C108.196 78.6318 108.082 79.058 108.082 79.6108V80.0766C108.082 80.5986 108.191 81.0138 108.409 81.3222C108.627 81.6305 108.932 81.7847 109.324 81.7847C109.677 81.7847 109.946 81.7054 110.134 81.5468C110.323 81.386 110.449 81.1074 110.51 80.711H111.148ZM115.681 81.2891C115.681 81.1239 115.618 80.9962 115.492 80.9059C115.369 80.8134 115.152 80.7341 114.841 80.668C114.533 80.6019 114.287 80.5226 114.105 80.4301C113.924 80.3376 113.79 80.2275 113.702 80.0998C113.616 79.972 113.573 79.82 113.573 79.6438C113.573 79.3509 113.696 79.1031 113.943 78.9005C114.192 78.6979 114.509 78.5965 114.894 78.5965C115.3 78.5965 115.628 78.7012 115.879 78.9104C116.132 79.1196 116.259 79.3872 116.259 79.7132H115.644C115.644 79.5458 115.573 79.4016 115.43 79.2804C115.289 79.1593 115.11 79.0987 114.894 79.0987C114.672 79.0987 114.498 79.1472 114.372 79.2441C114.247 79.341 114.184 79.4676 114.184 79.624C114.184 79.7716 114.242 79.8828 114.359 79.9577C114.476 80.0326 114.686 80.1042 114.99 80.1724C115.296 80.2407 115.544 80.3222 115.733 80.4169C115.923 80.5116 116.063 80.6262 116.153 80.7605C116.246 80.8927 116.292 81.0546 116.292 81.2462C116.292 81.5655 116.164 81.8221 115.909 82.016C115.653 82.2076 115.322 82.3034 114.914 82.3034C114.628 82.3034 114.374 82.2527 114.154 82.1514C113.934 82.0501 113.761 81.9091 113.636 81.7285C113.512 81.5457 113.451 81.3486 113.451 81.1371H114.062C114.073 81.342 114.154 81.505 114.306 81.6261C114.46 81.745 114.663 81.8045 114.914 81.8045C115.145 81.8045 115.33 81.7583 115.469 81.6658C115.61 81.571 115.681 81.4455 115.681 81.2891ZM120.108 80.4896C120.108 81.0336 119.983 81.4719 119.734 81.8045C119.485 82.1371 119.148 82.3034 118.723 82.3034C118.289 82.3034 117.948 82.1657 117.699 81.8904V83.6117H117.088V78.6626H117.646L117.676 79.0591C117.925 78.7507 118.271 78.5965 118.713 78.5965C119.143 78.5965 119.482 78.7584 119.731 79.0822C119.982 79.406 120.108 79.8564 120.108 80.4334V80.4896ZM119.496 80.4202C119.496 80.0172 119.411 79.6989 119.239 79.4654C119.067 79.232 118.831 79.1152 118.532 79.1152C118.162 79.1152 117.884 79.2793 117.699 79.6075V81.3156C117.882 81.6415 118.162 81.8045 118.538 81.8045C118.831 81.8045 119.064 81.6889 119.235 81.4576C119.409 81.2241 119.496 80.8784 119.496 80.4202ZM122.371 82.3034C121.886 82.3034 121.492 82.1448 121.188 81.8276C120.884 81.5083 120.732 81.0821 120.732 80.5491V80.4367C120.732 80.0821 120.799 79.7661 120.934 79.4886C121.07 79.2088 121.26 78.9908 121.502 78.8344C121.746 78.6758 122.011 78.5965 122.295 78.5965C122.759 78.5965 123.121 78.7496 123.378 79.0558C123.636 79.3619 123.765 79.8002 123.765 80.3707V80.6251H121.343C121.352 80.9775 121.454 81.2627 121.651 81.4807C121.849 81.6966 122.1 81.8045 122.404 81.8045C122.62 81.8045 122.802 81.7605 122.952 81.6724C123.102 81.5843 123.233 81.4675 123.345 81.3222L123.719 81.6129C123.419 82.0732 122.97 82.3034 122.371 82.3034ZM122.295 79.0987C122.048 79.0987 121.841 79.189 121.674 79.3696C121.506 79.548 121.403 79.7991 121.363 80.1229H123.154V80.0766C123.136 79.7661 123.052 79.526 122.903 79.3564C122.753 79.1846 122.55 79.0987 122.295 79.0987ZM125.053 78.6626L125.073 79.1119C125.346 78.7683 125.703 78.5965 126.144 78.5965C126.899 78.5965 127.28 79.0227 127.287 79.8751V82.2373H126.676V79.8718C126.673 79.6141 126.614 79.4236 126.497 79.3002C126.383 79.1769 126.203 79.1152 125.959 79.1152C125.76 79.1152 125.586 79.1681 125.437 79.2738C125.287 79.3795 125.17 79.5183 125.086 79.6901V82.2373H124.475V78.6626H125.053ZM128.06 80.4202C128.06 79.8718 128.19 79.4313 128.45 79.0987C128.71 78.7639 129.05 78.5965 129.471 78.5965C129.889 78.5965 130.221 78.7397 130.465 79.026V77.1627H131.076V82.2373H130.515L130.485 81.8541C130.24 82.1536 129.9 82.3034 129.464 82.3034C129.05 82.3034 128.712 82.1338 128.45 81.7946C128.19 81.4554 128.06 81.0127 128.06 80.4665V80.4202ZM128.671 80.4896C128.671 80.8949 128.755 81.212 128.922 81.4411C129.09 81.6702 129.321 81.7847 129.616 81.7847C130.004 81.7847 130.287 81.6107 130.465 81.2627V79.6207C130.282 79.2837 130.001 79.1152 129.623 79.1152C129.323 79.1152 129.09 79.2309 128.922 79.4621C128.755 79.6934 128.671 80.0359 128.671 80.4896Z" fill="#323541"/>
<defs>
<filter id="filter0_d" x="0.0398146" y="0.626825" width="84.8016" height="63.3221" filterUnits="userSpaceOnUse" color-interpolation-filters="sRGB">
<feFlood flood-opacity="0" result="BackgroundImageFix"/>
<feColorMatrix in="SourceAlpha" type="matrix" values="0 0 0 0 0 0 0 0 0 0 0 0 0 0 0 0 0 0 127 0"/>
<feOffset dx="0.422884" dy="1.69153"/>
<feGaussianBlur stdDeviation="1.69153"/>
<feColorMatrix type="matrix" values="0 0 0 0 0 0 0 0 0 0 0 0 0 0 0 0 0 0 0.05 0"/>
<feBlend mode="normal" in2="BackgroundImageFix" result="effect1_dropShadow"/>
<feBlend mode="normal" in="SourceGraphic" in2="effect1_dropShadow" result="shape"/>
</filter>
<filter id="filter1_d" x="0.0398146" y="62.0106" width="84.8016" height="63.0642" filterUnits="userSpaceOnUse" color-interpolation-filters="sRGB">
<feFlood flood-opacity="0" result="BackgroundImageFix"/>
<feColorMatrix in="SourceAlpha" type="matrix" values="0 0 0 0 0 0 0 0 0 0 0 0 0 0 0 0 0 0 127 0"/>
<feOffset dx="0.422884" dy="1.69153"/>
<feGaussianBlur stdDeviation="1.69153"/>
<feColorMatrix type="matrix" values="0 0 0 0 0 0 0 0 0 0 0 0 0 0 0 0 0 0 0.05 0"/>
<feBlend mode="normal" in2="BackgroundImageFix" result="effect1_dropShadow"/>
<feBlend mode="normal" in="SourceGraphic" in2="effect1_dropShadow" result="shape"/>
</filter>
<filter id="filter2_d" x="82.0047" y="0.308465" width="84.8016" height="63.3221" filterUnits="userSpaceOnUse" color-interpolation-filters="sRGB">
<feFlood flood-opacity="0" result="BackgroundImageFix"/>
<feColorMatrix in="SourceAlpha" type="matrix" values="0 0 0 0 0 0 0 0 0 0 0 0 0 0 0 0 0 0 127 0"/>
<feOffset dx="0.422884" dy="1.69153"/>
<feGaussianBlur stdDeviation="1.69153"/>
<feColorMatrix type="matrix" values="0 0 0 0 0 0 0 0 0 0 0 0 0 0 0 0 0 0 0.05 0"/>
<feBlend mode="normal" in2="BackgroundImageFix" result="effect1_dropShadow"/>
<feBlend mode="normal" in="SourceGraphic" in2="effect1_dropShadow" result="shape"/>
</filter>
<filter id="filter3_d" x="82.0047" y="61.6923" width="84.8016" height="63.0642" filterUnits="userSpaceOnUse" color-interpolation-filters="sRGB">
<feFlood flood-opacity="0" result="BackgroundImageFix"/>
<feColorMatrix in="SourceAlpha" type="matrix" values="0 0 0 0 0 0 0 0 0 0 0 0 0 0 0 0 0 0 127 0"/>
<feOffset dx="0.422884" dy="1.69153"/>
<feGaussianBlur stdDeviation="1.69153"/>
<feColorMatrix type="matrix" values="0 0 0 0 0 0 0 0 0 0 0 0 0 0 0 0 0 0 0.05 0"/>
<feBlend mode="normal" in2="BackgroundImageFix" result="effect1_dropShadow"/>
<feBlend mode="normal" in="SourceGraphic" in2="effect1_dropShadow" result="shape"/>
</filter>
</defs>
</svg>
