<svg width="130" height="130" viewBox="0 0 130 130" fill="none" xmlns="http://www.w3.org/2000/svg">
<path opacity="0.50086" d="M65 129C64.5137 129 64.0286 128.995 63.5449 128.984L63.5226 129.984C60.2012 129.909 56.9413 129.586 53.7607 129.032L53.9325 128.047C52.977 127.88 52.0288 127.692 51.0884 127.484L50.872 128.46C47.6462 127.745 44.5106 126.791 41.4848 125.616L41.8467 124.684C40.9439 124.333 40.0509 123.963 39.1684 123.573L38.7644 124.488C35.7554 123.159 32.8662 121.608 30.1176 119.857L30.6549 119.014C29.8389 118.494 29.0355 117.956 28.2452 117.4L27.6702 118.218C24.9878 116.333 22.4544 114.251 20.0911 111.992L20.7821 111.269C20.0832 110.601 19.3994 109.917 18.7313 109.218L18.0085 109.909C15.7493 107.546 13.6666 105.012 11.7816 102.33L12.5997 101.755C12.0444 100.965 11.5064 100.161 10.9864 99.3451L10.1431 99.8824C8.39161 97.1338 6.84103 94.2446 5.51206 91.2356L6.42681 90.8316C6.03705 89.9491 5.66665 89.0562 5.31615 88.1533L4.38394 88.5152C3.20928 85.4894 2.25466 82.3538 1.53971 79.128L2.51601 78.9116C2.30759 77.9712 2.11984 77.023 1.95329 76.0675L0.968145 76.2393C0.413743 73.0587 0.0905308 69.7988 0.0164584 66.4774L1.01621 66.4551C1.00542 65.9714 1 65.4863 1 65C1 64.5137 1.00542 64.0286 1.01621 63.5449L0.0164582 63.5226C0.0905301 60.2012 0.413742 56.9413 0.968143 53.7607L1.95329 53.9325C2.11984 52.977 2.30759 52.0288 2.51601 51.0884L1.53971 50.872C2.25466 47.6462 3.20928 44.5106 4.38393 41.4848L5.31615 41.8467C5.66665 40.9439 6.03704 40.0509 6.4268 39.1684L5.51205 38.7644C6.84103 35.7554 8.3916 32.8662 10.1431 30.1176L10.9864 30.6549C11.5064 29.8389 12.0444 29.0355 12.5997 28.2452L11.7816 27.6702C13.6666 24.9878 15.7493 22.4544 18.0085 20.0911L18.7313 20.7821C19.3994 20.0832 20.0832 19.3994 20.7821 18.7313L20.0911 18.0085C22.4544 15.7493 24.9878 13.6666 27.6702 11.7816L28.2452 12.5997C29.0355 12.0444 29.8389 11.5064 30.6549 10.9864L30.1176 10.1431C32.8662 8.39161 35.7554 6.84103 38.7644 5.51206L39.1684 6.42681C40.0509 6.03705 40.9438 5.66665 41.8467 5.31615L41.4848 4.38394C44.5106 3.20928 47.6462 2.25466 50.872 1.53971L51.0884 2.51601C52.0288 2.30759 52.977 2.11984 53.9325 1.95329L53.7607 0.968145C56.9413 0.413743 60.2012 0.0905308 63.5226 0.0164584L63.5449 1.01621C64.0286 1.00542 64.5137 1 65 1C65.4863 1 65.9714 1.00542 66.4551 1.01621L66.4774 0.0164583C69.7988 0.0905302 73.0587 0.413742 76.2393 0.968143L76.0675 1.95329C77.023 2.11984 77.9712 2.30758 78.9116 2.51601L79.128 1.53971C82.3538 2.25466 85.4894 3.20928 88.5152 4.38393L88.1533 5.31615C89.0561 5.66665 89.9491 6.03704 90.8316 6.4268L91.2356 5.51205C94.2446 6.84103 97.1337 8.3916 99.8824 10.1431L99.3451 10.9864C100.161 11.5064 100.965 12.0443 101.755 12.5997L102.33 11.7816C105.012 13.6666 107.546 15.7493 109.909 18.0085L109.218 18.7313C109.917 19.3994 110.601 20.0832 111.269 20.7821L111.992 20.0911C114.251 22.4544 116.333 24.9878 118.218 27.6702L117.4 28.2452C117.956 29.0355 118.494 29.8389 119.014 30.6549L119.857 30.1175C121.608 32.8662 123.159 35.7554 124.488 38.7644L123.573 39.1684C123.963 40.0509 124.333 40.9438 124.684 41.8467L125.616 41.4848C126.791 44.5106 127.745 47.6462 128.46 50.872L127.484 51.0884C127.692 52.0288 127.88 52.977 128.047 53.9325L129.032 53.7607C129.586 56.9413 129.909 60.2012 129.984 63.5226L128.984 63.5449C128.995 64.0286 129 64.5137 129 65C129 65.4863 128.995 65.9714 128.984 66.4551L129.984 66.4774C129.909 69.7988 129.586 73.0587 129.032 76.2393L128.047 76.0675C127.88 77.023 127.692 77.9712 127.484 78.9116L128.46 79.128C127.745 82.3538 126.791 85.4894 125.616 88.5152L124.684 88.1533C124.333 89.0562 123.963 89.9491 123.573 90.8316L124.488 91.2356C123.159 94.2446 121.608 97.1338 119.857 99.8824L119.014 99.3451C118.494 100.161 117.956 100.965 117.4 101.755L118.218 102.33C116.333 105.012 114.251 107.546 111.992 109.909L111.269 109.218C110.601 109.917 109.917 110.601 109.218 111.269L109.909 111.992C107.546 114.251 105.012 116.333 102.33 118.218L101.755 117.4C100.965 117.956 100.161 118.494 99.3451 119.014L99.8825 119.857C97.1338 121.608 94.2446 123.159 91.2356 124.488L90.8316 123.573C89.9491 123.963 89.0562 124.333 88.1533 124.684L88.5152 125.616C85.4894 126.791 82.3538 127.745 79.128 128.46L78.9116 127.484C77.9712 127.692 77.023 127.88 76.0675 128.047L76.2393 129.032C73.0587 129.586 69.7988 129.909 66.4774 129.984L66.4551 128.984C65.9714 128.995 65.4863 129 65 129Z" stroke="#027BF3" stroke-width="2" stroke-dasharray="3 10"/>
<path d="M64.2859 118.572C93.4781 118.572 117.143 94.9072 117.143 65.7151C117.143 36.5229 93.4781 12.8579 64.2859 12.8579C35.0937 12.8579 11.4287 36.5229 11.4287 65.7151C11.4287 94.9072 35.0937 118.572 64.2859 118.572Z" fill="#027BF3"/>
<path d="M60.9551 40.015V44.4416C60.9551 44.5133 60.8969 44.5714 60.8252 44.5714H60.5104C57.4638 44.5714 54.5402 45.773 52.374 47.9153C52.3266 47.9622 52.2502 47.9622 52.2028 47.9153L49.4101 45.1533C49.4042 45.1475 49.3948 45.1475 49.389 45.1533L43.6325 50.8465C43.6266 50.8524 43.6266 50.8619 43.6325 50.8678L46.4138 53.6185C46.4683 53.6724 46.4716 53.7593 46.4214 53.8172L46.3197 53.9345C44.207 56.3723 43.044 59.4901 43.044 62.716C43.044 62.794 42.9808 62.8571 42.9028 62.8571H39.0145C39.0062 62.8571 38.9995 62.8639 38.9995 62.8721V69.6993C38.9995 69.7076 39.0062 69.7143 39.0145 69.7143H42.3256C42.4033 69.7143 42.4662 69.7779 42.4662 69.8555C42.4662 73.405 43.8863 76.8331 46.4101 79.3291C46.4654 79.3839 46.4654 79.4733 46.4101 79.528L44.2109 81.703C44.2047 81.7091 44.205 81.7192 44.2115 81.7249L49.9668 86.8478C49.9727 86.8531 49.9817 86.8528 49.9873 86.8472L52.1722 84.6864C52.2394 84.6199 52.3447 84.6112 52.4219 84.6658C54.9871 86.4779 57.9706 87.6086 61.0925 87.9516L61.3496 87.9799C61.4539 87.9913 61.5328 88.0794 61.5328 88.1843V91.985C61.5328 91.9933 61.5396 92 61.5478 92H69.029C69.0372 92 69.044 91.9933 69.044 91.985V88.1843C69.044 88.0794 69.1229 87.9913 69.2272 87.9799L69.4843 87.9516C72.6062 87.6086 75.5897 86.4779 78.1549 84.6658C78.2321 84.6112 78.3374 84.6199 78.4047 84.6864L80.589 86.8467C80.5948 86.8525 80.6042 86.8525 80.6101 86.8467L85.7887 81.725C85.7947 81.7191 85.7947 81.7095 85.7887 81.7036L83.6208 79.5595C83.545 79.4846 83.5365 79.3651 83.6009 79.2802L83.9314 78.8444C85.9104 76.2347 87.1481 73.1391 87.5137 69.8844C87.5246 69.7875 87.6065 69.7143 87.704 69.7143H90.9845C90.9928 69.7143 90.9995 69.7076 90.9995 69.6993V62.8721C90.9995 62.8639 90.9928 62.8571 90.9845 62.8571H87.6851C87.5984 62.8571 87.5255 62.792 87.5159 62.7059C87.1506 59.4547 85.808 56.3908 83.6653 53.9185L83.595 53.8373C83.535 53.7681 83.539 53.6642 83.6042 53.5998L86.3665 50.8678C86.3724 50.8619 86.3724 50.8524 86.3665 50.8465L80.6101 45.1533C80.6042 45.1475 80.5948 45.1475 80.589 45.1533L77.8093 47.9024C77.7532 47.9579 77.6644 47.9619 77.6036 47.9118C75.4116 46.1052 72.74 44.9776 69.9164 44.6673L69.2033 44.5889C69.1126 44.579 69.044 44.5023 69.044 44.4111V40.015C69.044 40.0067 69.0372 40 69.029 40H60.9701C60.9618 40 60.9551 40.0067 60.9551 40.015Z" fill="white"/>
<path d="M60.9551 40.015V44.4416C60.9551 44.5133 60.8969 44.5714 60.8252 44.5714H60.5104C57.4638 44.5714 54.5402 45.773 52.374 47.9153C52.3266 47.9622 52.2502 47.9622 52.2028 47.9153L49.4101 45.1533C49.4042 45.1475 49.3948 45.1475 49.389 45.1533L43.6325 50.8465C43.6266 50.8524 43.6266 50.8619 43.6325 50.8678L46.4138 53.6185C46.4683 53.6724 46.4716 53.7593 46.4214 53.8172L46.3197 53.9345C44.207 56.3723 43.044 59.4901 43.044 62.716C43.044 62.794 42.9808 62.8571 42.9028 62.8571H39.0145C39.0062 62.8571 38.9995 62.8639 38.9995 62.8721V69.6993C38.9995 69.7076 39.0062 69.7143 39.0145 69.7143H42.3256C42.4033 69.7143 42.4662 69.7779 42.4662 69.8555C42.4662 73.405 43.8863 76.8331 46.4101 79.3291C46.4654 79.3839 46.4654 79.4733 46.4101 79.528L44.2109 81.703C44.2047 81.7091 44.205 81.7192 44.2115 81.7249L49.9668 86.8478C49.9727 86.8531 49.9817 86.8528 49.9873 86.8472L52.1722 84.6864C52.2394 84.6199 52.3447 84.6112 52.4219 84.6658C54.9871 86.4779 57.9706 87.6086 61.0925 87.9516L61.3496 87.9799C61.4539 87.9913 61.5328 88.0794 61.5328 88.1843V91.985C61.5328 91.9933 61.5396 92 61.5478 92H69.029C69.0372 92 69.044 91.9933 69.044 91.985V88.1843C69.044 88.0794 69.1229 87.9913 69.2272 87.9799L69.4843 87.9516C72.6062 87.6086 75.5897 86.4779 78.1549 84.6658C78.2321 84.6112 78.3374 84.6199 78.4047 84.6864L80.589 86.8467C80.5948 86.8525 80.6042 86.8525 80.6101 86.8467L85.7887 81.725C85.7947 81.7191 85.7947 81.7095 85.7887 81.7036L83.6208 79.5595C83.545 79.4846 83.5365 79.3651 83.6009 79.2802L83.9314 78.8444C85.9104 76.2347 87.1481 73.1391 87.5137 69.8844C87.5246 69.7875 87.6065 69.7143 87.704 69.7143H90.9845C90.9928 69.7143 90.9995 69.7076 90.9995 69.6993V62.8721C90.9995 62.8639 90.9928 62.8571 90.9845 62.8571H87.6851C87.5984 62.8571 87.5255 62.792 87.5159 62.7059C87.1506 59.4547 85.808 56.3908 83.6653 53.9185L83.595 53.8373C83.535 53.7681 83.539 53.6642 83.6042 53.5998L86.3665 50.8678C86.3724 50.8619 86.3724 50.8524 86.3665 50.8465L80.6101 45.1533C80.6042 45.1475 80.5948 45.1475 80.589 45.1533L77.8093 47.9024C77.7532 47.9579 77.6644 47.9619 77.6036 47.9118C75.4116 46.1052 72.74 44.9776 69.9164 44.6673L69.2033 44.5889C69.1126 44.579 69.044 44.5023 69.044 44.4111V40.015C69.044 40.0067 69.0372 40 69.029 40H60.9701C60.9618 40 60.9551 40.0067 60.9551 40.015Z" stroke="#19153E" stroke-width="2"/>
<path d="M60.9551 40.015V44.4416C60.9551 44.5133 60.8969 44.5714 60.8252 44.5714H60.5104C57.4638 44.5714 54.5402 45.773 52.374 47.9153C52.3266 47.9622 52.2502 47.9622 52.2028 47.9153L49.4101 45.1533C49.4042 45.1475 49.3948 45.1475 49.389 45.1533L43.6325 50.8465C43.6266 50.8524 43.6266 50.8619 43.6325 50.8678L46.4138 53.6185C46.4683 53.6724 46.4716 53.7593 46.4214 53.8172L46.3197 53.9345C44.207 56.3723 43.044 59.4901 43.044 62.716C43.044 62.794 42.9808 62.8571 42.9028 62.8571H39.0145C39.0062 62.8571 38.9995 62.8639 38.9995 62.8721V69.6993C38.9995 69.7076 39.0062 69.7143 39.0145 69.7143H42.3256C42.4033 69.7143 42.4662 69.7779 42.4662 69.8555C42.4662 73.405 43.8863 76.8331 46.4101 79.3291C46.4654 79.3839 46.4654 79.4733 46.4101 79.528L44.2109 81.703C44.2047 81.7091 44.205 81.7192 44.2115 81.7249L49.9668 86.8478C49.9727 86.8531 49.9817 86.8528 49.9873 86.8472L52.1722 84.6864C52.2394 84.6199 52.3447 84.6112 52.4219 84.6658C54.9871 86.4779 57.9706 87.6086 61.0925 87.9516L61.3496 87.9799C61.4539 87.9913 61.5328 88.0794 61.5328 88.1843V91.985C61.5328 91.9933 61.5396 92 61.5478 92H69.029C69.0372 92 69.044 91.9933 69.044 91.985V88.1843C69.044 88.0794 69.1229 87.9913 69.2272 87.9799L69.4843 87.9516C72.6062 87.6086 75.5897 86.4779 78.1549 84.6658C78.2321 84.6112 78.3374 84.6199 78.4047 84.6864L80.589 86.8467C80.5948 86.8525 80.6042 86.8525 80.6101 86.8467L85.7887 81.725C85.7947 81.7191 85.7947 81.7095 85.7887 81.7036L83.6208 79.5595C83.545 79.4846 83.5365 79.3651 83.6009 79.2802L83.9314 78.8444C85.9104 76.2347 87.1481 73.1391 87.5137 69.8844C87.5246 69.7875 87.6065 69.7143 87.704 69.7143H90.9845C90.9928 69.7143 90.9995 69.7076 90.9995 69.6993V62.8721C90.9995 62.8639 90.9928 62.8571 90.9845 62.8571H87.6851C87.5984 62.8571 87.5255 62.792 87.5159 62.7059C87.1506 59.4547 85.808 56.3908 83.6653 53.9185L83.595 53.8373C83.535 53.7681 83.539 53.6642 83.6042 53.5998L86.3665 50.8678C86.3724 50.8619 86.3724 50.8524 86.3665 50.8465L80.6101 45.1533C80.6042 45.1475 80.5948 45.1475 80.589 45.1533L77.8093 47.9024C77.7532 47.9579 77.6644 47.9619 77.6036 47.9118C75.4116 46.1052 72.74 44.9776 69.9164 44.6673L69.2033 44.5889C69.1126 44.579 69.044 44.5023 69.044 44.4111V40.015C69.044 40.0067 69.0372 40 69.029 40H60.9701C60.9618 40 60.9551 40.0067 60.9551 40.015Z" stroke="white" stroke-width="2"/>
<ellipse cx="64.9994" cy="66.0009" rx="15.6" ry="15.6" fill="#027BF3"/>
<ellipse cx="64.9994" cy="66.0009" rx="15.6" ry="15.6" stroke="#19153E" stroke-width="2"/>
<ellipse cx="64.9994" cy="66.0009" rx="15.6" ry="15.6" stroke="#027BF3" stroke-width="2"/>
</svg>
