<svg width="157" height="26" viewBox="0 0 157 26" fill="none" xmlns="http://www.w3.org/2000/svg">
<path d="M2.03997 16.9814C0.927261 16.9814 0.0154543 16.0626 0.0154543 14.9062C0.0154543 13.7657 0.911806 12.8311 2.03997 12.8311H9.85987H10.6171C11.1426 12.8311 11.5908 12.6252 11.9307 12.2133L14.4498 9.21937C14.7898 8.80751 15.238 8.60158 15.7634 8.60158H21.9915C23.1042 8.60158 24.016 9.52035 24.016 10.6767C24.016 11.8173 23.1197 12.7519 21.9915 12.7519H17.9579H15.5162H13.4144C12.8889 12.7519 12.4407 12.9578 12.1007 13.3697L9.56624 16.3794C9.22624 16.7913 8.77807 16.9972 8.25262 16.9972L2.03997 16.9814ZM20.6006 0H21.9606C23.0733 0 23.9851 0.918769 23.9851 2.07515C23.9851 3.21569 23.0888 4.1503 21.9606 4.1503H18.267C17.7416 4.13446 17.2934 4.35623 16.9534 4.75225L14.4344 7.74617C14.0944 8.14219 13.6462 8.34812 13.1207 8.34812C9.42715 8.34812 5.73356 8.34812 2.02452 8.34812C0.911806 8.34812 0 7.42936 0 6.27297C0 5.13243 0.896352 4.19782 2.02452 4.19782H15.4543C15.9798 4.19782 16.428 3.99189 16.768 3.58003L19.287 0.586111C19.627 0.205931 20.0906 0 20.6006 0ZM3.39995 25.5988H2.03997C0.927261 25.5988 0.0154543 24.68 0.0154543 23.5237C0.0154543 22.3831 0.911806 21.4485 2.03997 21.4485H5.74901C6.27446 21.4485 6.72264 21.2426 7.06263 20.8307L9.56624 17.8526C9.90623 17.4408 10.3544 17.2348 10.8799 17.2348C14.5734 17.2348 18.267 17.2348 21.9761 17.2348C23.0888 17.2348 24.0006 18.1536 24.0006 19.31C24.0006 20.4505 23.1042 21.3851 21.9761 21.3851H8.54625C8.0208 21.3851 7.57263 21.5911 7.23263 22.0029L4.71357 24.9968C4.37358 25.377 3.9254 25.5988 3.39995 25.5988Z" fill="url(#paint0_linear)"/>
<path fill-rule="evenodd" clip-rule="evenodd" d="M152.658 20.7832V11.3737C152.658 10.645 152.812 9.93221 153.322 9.39362C153.817 8.87087 154.528 8.71246 155.223 8.71246H156.66C156.846 8.71246 157 8.55405 157 8.36396V6.00368C157 5.81359 156.846 5.65518 156.66 5.65518H154.682C153.245 5.65518 151.9 6.0512 150.865 7.12838C149.829 8.20555 149.474 9.63123 149.474 11.1361V20.7832C149.474 20.9733 149.629 21.1317 149.799 21.1317H152.348C152.518 21.1317 152.658 20.9733 152.658 20.7832ZM55.3106 0C56.4234 0 57.3352 0.93461 57.3352 2.10683C57.3352 3.27905 56.4234 4.21366 55.3106 4.21366C54.1979 4.21366 53.2861 3.27905 53.2861 2.10683C53.3016 0.93461 54.1979 0 55.3106 0ZM60.2251 20.7832V0.855405C60.2251 0.665315 60.3797 0.506907 60.5497 0.506907H63.0842C63.2696 0.506907 63.4087 0.665315 63.4087 0.855405V5.87695H66.9169C67.1023 5.87695 67.2414 6.03536 67.2414 6.22545V8.42733C67.2414 8.61742 67.0869 8.77583 66.9169 8.77583H63.4087V20.7673C63.4087 20.9574 63.2542 21.1158 63.0842 21.1158H60.5651C60.3797 21.1317 60.2251 20.9733 60.2251 20.7832ZM47.1971 20.7832V0.855405C47.1971 0.665315 47.3517 0.506907 47.5217 0.506907H50.0562C50.2416 0.506907 50.3807 0.665315 50.3807 0.855405V20.7673C50.3807 20.9574 50.2262 21.1158 50.0562 21.1158H47.5217C47.3517 21.1317 47.1971 20.9733 47.1971 20.7832ZM53.7189 20.7832V6.22545C53.7189 6.03536 53.8734 5.87695 54.0434 5.87695H56.5779C56.7634 5.87695 56.9024 6.03536 56.9024 6.22545V20.7673C56.9024 20.9574 56.7479 21.1158 56.5779 21.1158H54.0434C53.8579 21.1317 53.7189 20.9733 53.7189 20.7832ZM71.0432 11.9123H79.404C79.1412 10.946 78.6776 10.1065 77.9203 9.47282C77.1322 8.82335 76.2049 8.53821 75.2004 8.53821C74.1959 8.53821 73.2686 8.82335 72.4804 9.48866C71.7386 10.1381 71.2904 10.9619 71.0432 11.9123ZM70.9659 14.6845C71.1513 15.7141 71.5686 16.6329 72.3568 17.3299C73.1759 18.0586 74.1649 18.3595 75.2313 18.3595C76.0195 18.3595 76.7613 18.1853 77.4567 17.7893C77.9667 17.4883 78.384 17.1081 78.7394 16.6329C78.8476 16.4745 79.0485 16.4428 79.2031 16.5695L81.1349 18.0269C81.2121 18.0902 81.243 18.1536 81.2585 18.2645C81.2739 18.3595 81.2585 18.4546 81.1967 18.5338C80.7485 19.1516 80.2076 19.6902 79.574 20.1495C78.2758 21.0842 76.8231 21.5277 75.2467 21.5277C73.1604 21.5277 71.3677 20.799 69.8995 19.2308C68.4159 17.6467 67.7514 15.73 67.7514 13.5439C67.7514 12.1024 68.0605 10.7242 68.725 9.47282C69.3741 8.25308 70.2705 7.30263 71.4295 6.58979C72.6041 5.87695 73.9022 5.54429 75.2622 5.54429C76.6531 5.54429 77.9667 5.87695 79.1567 6.62147C80.3003 7.33431 81.1812 8.3006 81.7994 9.52035C82.433 10.7718 82.7267 12.1341 82.7267 13.5598C82.7267 13.8291 82.7112 14.1142 82.6803 14.3835C82.6648 14.5577 82.5103 14.7003 82.3557 14.7003H70.9659V14.6845ZM33.3346 11.9123H41.6954C41.4327 10.946 40.9845 10.1065 40.2118 9.47282C39.4236 8.82335 38.4963 8.53821 37.4918 8.53821C36.4873 8.53821 35.56 8.82335 34.7718 9.48866C34.03 10.1381 33.5664 10.9619 33.3346 11.9123ZM33.2418 14.6845C33.4273 15.7141 33.8446 16.6329 34.6327 17.3299C35.4518 18.0586 36.4409 18.3595 37.5072 18.3595C38.2954 18.3595 39.0372 18.1853 39.7327 17.7893C40.2427 17.4883 40.6599 17.1081 40.9999 16.6329C41.1081 16.4745 41.3245 16.4428 41.4636 16.5695L43.3953 18.0269C43.4726 18.0902 43.5035 18.1536 43.5344 18.2645C43.5499 18.3595 43.5344 18.4546 43.4726 18.5338C43.0244 19.1516 42.4835 19.6902 41.8499 20.1495C40.5518 21.0842 39.099 21.5277 37.5227 21.5277C35.4364 21.5277 33.6437 20.799 32.1755 19.2308C30.6919 17.6467 30.0273 15.73 30.0273 13.5439C30.0273 12.1024 30.3364 10.7242 31.001 9.47282C31.6501 8.25308 32.5464 7.30263 33.69 6.58979C34.8646 5.87695 36.1627 5.54429 37.5227 5.54429C38.9136 5.54429 40.2272 5.87695 41.4172 6.62147C42.5454 7.31847 43.4263 8.28476 44.029 9.5045C44.6626 10.7559 44.9408 12.1182 44.9408 13.5439C44.9408 13.8132 44.9253 14.0983 44.8944 14.3676C44.879 14.5419 44.7244 14.6845 44.5699 14.6845H33.2418ZM99.7728 20.1495C98.5519 21.1475 97.0065 21.4802 95.4765 21.4802C93.931 21.4802 92.3856 21.1158 91.1802 20.0545C90.4229 19.3892 89.9284 18.5813 89.6811 17.6625C89.6502 17.5675 89.6657 17.4724 89.712 17.3932C89.7584 17.314 89.8357 17.2507 89.9284 17.2348L92.3547 16.6962C92.5247 16.6646 92.6792 16.7596 92.7411 16.918C92.8647 17.314 93.112 17.6467 93.4674 17.916C94.0701 18.3754 94.8428 18.5179 95.5847 18.5179C96.2492 18.5179 96.9601 18.3912 97.5319 18.011C97.9955 17.6942 98.2737 17.2824 98.2737 16.6962C98.2737 16.4586 98.2119 16.2369 98.1037 16.0309C97.9955 15.8408 97.8565 15.6824 97.6865 15.5557C97.4855 15.4131 97.2074 15.2864 96.9756 15.223C96.6819 15.1122 96.4037 15.033 96.1101 14.9696C95.7701 14.8904 95.4301 14.827 95.0747 14.7637C94.7192 14.7003 94.3638 14.6369 94.0238 14.5577C93.6838 14.4944 93.3438 14.3835 93.0038 14.2884C92.6638 14.1934 92.2929 14.0667 91.9683 13.8924C91.6747 13.734 91.3811 13.5439 91.1184 13.338C90.8402 13.1321 90.5775 12.8628 90.3766 12.5459C90.1756 12.2291 90.0366 11.8648 89.9284 11.5005C89.8047 11.0569 89.7429 10.6134 89.7429 10.154C89.7429 8.75998 90.2838 7.63529 91.3347 6.77988C92.5092 5.81359 93.9774 5.49677 95.4456 5.49677C96.9137 5.49677 98.3664 5.82943 99.5255 6.8274C100.267 7.47688 100.731 8.26892 100.963 9.17185C100.994 9.26689 100.978 9.36194 100.916 9.44114C100.87 9.52034 100.793 9.56787 100.7 9.59955L98.3819 10.1223C98.2119 10.154 98.0419 10.0589 97.9955 9.86884C97.8874 9.48866 97.6864 9.15601 97.3465 8.90255C96.7901 8.47485 96.0483 8.36396 95.3683 8.36396C94.7347 8.36396 94.0392 8.47485 93.4983 8.83919C93.0811 9.12432 92.8338 9.52034 92.8338 10.0589C92.8338 10.2332 92.8647 10.4233 92.9265 10.5817C92.9883 10.7401 93.112 10.8668 93.2511 10.9777C93.4056 11.0886 93.5601 11.1836 93.7147 11.2787C93.9156 11.3737 94.1474 11.4529 94.3638 11.5005C94.611 11.5638 94.8583 11.6113 95.0901 11.6589C95.3683 11.7222 95.6465 11.7697 95.9247 11.8173C96.8674 11.9915 98.0883 12.2133 98.9846 12.6093C100.499 13.2746 101.303 14.4944 101.396 16.2052C101.396 16.3319 101.411 16.4428 101.411 16.5695C101.426 18.0427 100.886 19.2466 99.7728 20.1495ZM120.281 20.7832V0.855405C120.281 0.665315 120.435 0.506907 120.605 0.506907H123.14C123.325 0.506907 123.464 0.665315 123.464 0.855405V20.7673C123.464 20.9574 123.31 21.1158 123.14 21.1158H120.605C120.435 21.1317 120.281 20.9733 120.281 20.7832ZM126.802 20.7832V0.855405C126.802 0.665315 126.957 0.506907 127.127 0.506907H129.661C129.847 0.506907 129.986 0.665315 129.986 0.855405V20.7673C129.986 20.9574 129.831 21.1158 129.661 21.1158H127.127C126.942 21.1317 126.802 20.9733 126.802 20.7832ZM135.581 11.9123H143.941C143.694 10.9619 143.23 10.1223 142.473 9.48866C141.685 8.83919 140.758 8.55405 139.753 8.55405C138.749 8.55405 137.806 8.83919 137.018 9.5045C136.276 10.1381 135.812 10.9619 135.581 11.9123ZM135.488 14.6845C135.673 15.7141 136.09 16.6329 136.879 17.3299C137.698 18.0586 138.687 18.3595 139.753 18.3595C140.541 18.3595 141.283 18.1853 141.979 17.7893C142.489 17.4883 142.921 17.1081 143.261 16.6329C143.369 16.4745 143.57 16.4428 143.725 16.5695L145.657 18.0269C145.734 18.0902 145.78 18.1536 145.796 18.2645C145.811 18.3595 145.796 18.4546 145.734 18.5338C145.286 19.1516 144.745 19.6902 144.111 20.1495C142.813 21.0842 141.36 21.5277 139.784 21.5277C137.698 21.5277 135.905 20.799 134.437 19.2308C132.953 17.6467 132.289 15.73 132.289 13.5439C132.289 12.1024 132.598 10.7242 133.262 9.47282C133.911 8.25308 134.808 7.30263 135.967 6.58979C137.141 5.87695 138.44 5.54429 139.784 5.54429C141.175 5.54429 142.489 5.87695 143.679 6.62147C144.791 7.31847 145.672 8.28476 146.29 9.5045C146.924 10.7559 147.218 12.1182 147.218 13.5439C147.218 13.8132 147.202 14.0983 147.171 14.3676C147.156 14.5419 147.017 14.6845 146.847 14.6845H135.488ZM106.418 11.9123H114.779C114.516 10.946 114.053 10.1065 113.295 9.47282C112.507 8.82335 111.58 8.53821 110.575 8.53821C109.571 8.53821 108.644 8.83919 107.855 9.5045C107.114 10.1381 106.65 10.9619 106.418 11.9123ZM106.325 14.6845C106.511 15.7141 106.928 16.6329 107.716 17.3299C108.535 18.0586 109.524 18.3595 110.591 18.3595C111.379 18.3595 112.121 18.1853 112.816 17.7893C113.326 17.4883 113.744 17.1081 114.099 16.6329C114.207 16.4745 114.408 16.4428 114.563 16.5695L116.494 18.0269C116.572 18.0902 116.618 18.1536 116.633 18.2645C116.649 18.3595 116.633 18.4546 116.572 18.5338C116.123 19.1516 115.583 19.6902 114.949 20.1495C113.651 21.0842 112.198 21.5277 110.622 21.5277C108.535 21.5277 106.743 20.799 105.275 19.2308C103.791 17.6467 103.126 15.73 103.126 13.5439C103.126 12.1024 103.435 10.7242 104.1 9.47282C104.749 8.25308 105.645 7.30263 106.805 6.58979C107.979 5.87695 109.277 5.54429 110.622 5.54429C112.013 5.54429 113.326 5.87695 114.516 6.62147C115.629 7.31847 116.51 8.28476 117.128 9.5045C117.746 10.7718 118.04 12.1182 118.04 13.5439C118.04 13.8132 118.024 14.0983 117.993 14.3676C117.978 14.5419 117.839 14.6845 117.669 14.6845H106.325Z" fill="white"/>
<defs>
<linearGradient id="paint0_linear" x1="0.300586" y1="19.9124" x2="24.9553" y2="5.64336" gradientUnits="userSpaceOnUse">
<stop stop-color="#2864FF"/>
<stop offset="1" stop-color="#21C1D4"/>
</linearGradient>
</defs>
</svg>
