<svg width="600" height="240" viewBox="0 0 600 240" fill="none" xmlns="http://www.w3.org/2000/svg">
<g clip-path="url(#clip0)">
<path d="M0 84.5L600 0.5V296H300H0V84.5Z" fill="url(#paint0_linear)"/>
<g clip-path="url(#clip1)">
<path d="M-255.713 280.146L-280.129 283.512C-284.858 284.179 -289.671 283.904 -294.295 282.702C-298.919 281.501 -303.262 279.396 -307.076 276.509C-314.78 270.679 -319.863 262.014 -321.207 252.422C-322.551 242.829 -320.046 233.094 -314.243 225.359C-308.44 217.624 -299.814 212.522 -290.263 211.175L-224.325 201.946C-219.904 201.436 -215.656 199.923 -211.902 197.523C-208.149 195.123 -204.987 191.897 -202.656 188.09L-164.792 129.662C-162.388 125.838 -159.16 122.604 -155.347 120.198C-151.533 117.792 -147.231 116.275 -142.757 115.759C-76.962 106.724 461.193 28.1444 526.988 19.1094C531.74 18.3927 536.587 18.6292 541.248 19.8053C545.91 20.9814 550.293 23.0737 554.145 25.9613C557.996 28.8489 561.24 32.4745 563.689 36.6285C566.137 40.7825 567.742 45.3824 568.41 50.1625C569.078 54.9425 568.795 59.8077 567.579 64.4769C566.363 69.1461 564.238 73.5267 561.326 77.3653C558.414 81.2039 554.773 84.4245 550.613 86.8408C546.454 89.2572 541.858 90.8213 537.093 91.4428V91.4428L-174.263 193.945C-178.683 194.446 -182.931 195.952 -186.685 198.347C-190.439 200.743 -193.6 203.966 -195.929 207.771L-233.704 266.21C-236.135 270.007 -239.366 273.223 -243.168 275.631C-246.971 278.039 -251.253 279.58 -255.713 280.146V280.146Z" stroke="url(#paint1_linear)" stroke-width="0.58" stroke-miterlimit="10"/>
</g>
<path opacity="0.2" d="M230.776 387.335L-135.727 438.844C-151.55 441.067 -168.099 418.994 -172.134 390.282C-176.169 361.57 -166.346 335.79 -150.523 333.567L250.263 277.24C258.175 276.128 263.925 265.346 266.369 257.897L292.529 176.143C296.458 165.831 301.821 157.757 309.954 156.614C364.015 149.017 807.601 86.6747 861.663 79.0768C877.485 76.853 894.034 98.9265 898.069 127.638C902.104 156.35 892.281 182.13 876.458 184.354L290.466 266.71C282.555 267.822 278.5 274.5 274.36 286.053L246.882 367.992C243.289 380.697 237.369 386.408 230.776 387.335Z" fill="url(#paint2_linear)"/>
<path d="M-70.6144 291.016L-383.01 334.92C-396.497 336.816 -411.099 314.469 -415.134 285.757C-419.169 257.045 -411.293 231.538 -397.806 229.643L-56.1883 181.632C-49.4449 180.684 -44.7461 170.05 -42.8074 162.672L-22.0984 81.6839C-18.9478 71.4815 -14.526 63.5403 -7.59354 62.566C38.4869 56.0898 416.585 2.95156 462.666 -3.52463C476.152 -5.4201 490.754 16.927 494.79 45.6389C498.825 74.3508 490.948 99.857 477.461 101.752L-22.0195 171.95C-28.763 172.898 -32.0951 179.474 -35.4005 190.91L-57.2335 272.056C-60.0478 284.651 -64.9948 290.226 -70.6144 291.016Z" fill="url(#paint3_linear)"/>
<path opacity="0.3" d="M-22.8264 527.512L-389.329 579.021C-405.152 581.244 -422.078 556.485 -426.567 524.549C-431.055 492.614 -421.609 464.147 -405.786 461.924L-5.00029 405.597C2.91119 404.485 8.50759 392.605 10.8417 384.374L35.7932 294.023C39.5714 282.637 44.8206 273.757 52.9537 272.614C107.015 265.017 550.601 202.675 604.663 195.077C620.485 192.853 637.411 217.613 641.9 249.548C646.388 281.484 636.942 309.95 621.119 312.174L35.1276 394.53C27.2161 395.641 23.2557 402.992 19.2856 415.753L-6.98447 506.289C-10.3887 520.336 -16.2335 526.585 -22.8264 527.512Z" fill="url(#paint4_linear)"/>
</g>
<defs>
<linearGradient id="paint0_linear" x1="-0.502933" y1="23.4901" x2="-0.502933" y2="300.989" gradientUnits="userSpaceOnUse">
<stop stop-color="#013178"/>
<stop offset="1" stop-color="#012F73"/>
</linearGradient>
<linearGradient id="paint1_linear" x1="-57.4172" y1="-40.039" x2="317.586" y2="326.264" gradientUnits="userSpaceOnUse">
<stop stop-color="#178BD3"/>
<stop offset="0.1" stop-color="#168BD5" stop-opacity="0.97"/>
<stop offset="0.25" stop-color="#148CD9" stop-opacity="0.87"/>
<stop offset="0.43" stop-color="#108EE0" stop-opacity="0.71"/>
<stop offset="0.63" stop-color="#0B90E9" stop-opacity="0.49"/>
<stop offset="0.85" stop-color="#0592F6" stop-opacity="0.22"/>
<stop offset="1" stop-color="#0094FF" stop-opacity="0"/>
</linearGradient>
<linearGradient id="paint2_linear" x1="-138.992" y1="476.909" x2="324.903" y2="308.06" gradientUnits="userSpaceOnUse">
<stop stop-color="#21C1D4" stop-opacity="0"/>
<stop offset="0.546404" stop-color="#0075FF"/>
<stop offset="1" stop-color="#2864FF"/>
</linearGradient>
<linearGradient id="paint3_linear" x1="-208.621" y1="367.63" x2="314.947" y2="195.65" gradientUnits="userSpaceOnUse">
<stop offset="0.388085" stop-color="#003077"/>
<stop offset="0.772774" stop-color="#016ECE"/>
<stop offset="1" stop-color="#0067FF" stop-opacity="0"/>
</linearGradient>
<linearGradient id="paint4_linear" x1="-328.865" y1="526.733" x2="54.7825" y2="425.15" gradientUnits="userSpaceOnUse">
<stop stop-color="#21C1D4" stop-opacity="0"/>
<stop offset="0.213542" stop-color="#21C1D4"/>
<stop offset="1" stop-color="#2864FF"/>
</linearGradient>
<clipPath id="clip0">
<rect width="600" height="240" fill="white"/>
</clipPath>
<clipPath id="clip1">
<rect width="633.936" height="282.833" fill="white" transform="matrix(0.992854 0.119335 -0.118018 0.993011 -59.3857 27)"/>
</clipPath>
</defs>
</svg>
