<svg width="68" height="68" viewBox="0 0 68 68" fill="none" xmlns="http://www.w3.org/2000/svg">
<path opacity="0.50086" d="M34 67C33.4983 67 32.9993 66.9888 32.5032 66.9667L32.4587 67.9657C28.9483 67.8091 25.5763 67.1201 22.4216 65.9777L22.7621 65.0374C21.821 64.6966 20.8997 64.3141 20.0006 63.8923L19.5758 64.7976C16.4527 63.3323 13.5889 61.406 11.072 59.1062L11.7466 58.368C11.0104 57.6953 10.3047 56.9896 9.632 56.2534L8.89377 56.928C6.59402 54.4111 4.66768 51.5473 3.20241 48.4242L4.10772 47.9994C3.68587 47.1003 3.30342 46.179 2.96258 45.2379L2.02234 45.5784C0.879867 42.4237 0.190934 39.0517 0.0343143 35.5413L1.03332 35.4968C1.01119 35.0007 1 34.5017 1 34C1 33.4983 1.01119 32.9993 1.03332 32.5032L0.0343143 32.4587C0.190934 28.9483 0.879867 25.5763 2.02234 22.4216L2.96258 22.7621C3.30342 21.821 3.68587 20.8997 4.10772 20.0006L3.20241 19.5758C4.66767 16.4527 6.59402 13.5889 8.89377 11.072L9.63199 11.7466C10.3047 11.0104 11.0104 10.3047 11.7466 9.632L11.072 8.89377C13.5889 6.59402 16.4527 4.66767 19.5758 3.20241L20.0006 4.10772C20.8997 3.68587 21.821 3.30342 22.7621 2.96258L22.4216 2.02234C25.5763 0.879867 28.9483 0.190934 32.4587 0.0343143L32.5032 1.03332C32.9993 1.01119 33.4983 1 34 1C34.5017 1 35.0007 1.01119 35.4968 1.03332L35.5413 0.0343142C39.0517 0.190934 42.4237 0.879867 45.5784 2.02234L45.2379 2.96258C46.179 3.30342 47.1003 3.68587 47.9994 4.10772L48.4242 3.20241C51.5473 4.66767 54.4111 6.59402 56.928 8.89377L56.2534 9.63199C56.9896 10.3047 57.6953 11.0104 58.368 11.7466L59.1062 11.072C61.406 13.5889 63.3323 16.4527 64.7976 19.5758L63.8923 20.0006C64.3141 20.8997 64.6966 21.821 65.0374 22.7621L65.9777 22.4216C67.1201 25.5763 67.8091 28.9483 67.9657 32.4587L66.9667 32.5032C66.9888 32.9993 67 33.4983 67 34C67 34.5017 66.9888 35.0007 66.9667 35.4968L67.9657 35.5413C67.8091 39.0517 67.1201 42.4237 65.9777 45.5784L65.0374 45.2379C64.6966 46.179 64.3141 47.1003 63.8923 47.9994L64.7976 48.4242C63.3323 51.5473 61.406 54.4111 59.1062 56.928L58.368 56.2534C57.6953 56.9896 56.9896 57.6953 56.2534 58.368L56.928 59.1062C54.4111 61.406 51.5473 63.3323 48.4242 64.7976L47.9994 63.8923C47.1003 64.3141 46.179 64.6966 45.2379 65.0374L45.5784 65.9777C42.4237 67.1201 39.0517 67.8091 35.5413 67.9657L35.4968 66.9667C35.0007 66.9888 34.5017 67 34 67Z" stroke="#027BF3" stroke-width="2" stroke-dasharray="3 10"/>
<path d="M33.6264 62.0223C48.8961 62.0223 61.2747 49.6437 61.2747 34.3739C61.2747 19.1042 48.8961 6.72559 33.6264 6.72559C18.3566 6.72559 5.97803 19.1042 5.97803 34.3739C5.97803 49.6437 18.3566 62.0223 33.6264 62.0223Z" fill="#027BF3"/>
<path d="M37.7136 44.7391C38.2658 44.7391 38.7136 44.2914 38.7136 43.7391C38.7136 43.1869 38.2658 42.7391 37.7136 42.7391V44.7391ZM28.3254 38.7608L27.5634 39.4083L27.5634 39.4083L28.3254 38.7608ZM28.1728 38.5812L28.9348 37.9336L28.9348 37.9336L28.1728 38.5812ZM31.7446 26.4404L31.4765 25.4771L31.4765 25.4771L31.7446 26.4404ZM32.0127 26.3658L32.2809 27.3292L32.2809 27.3292L32.0127 26.3658ZM39.0629 39.6223L39.7489 40.3499L39.0629 39.6223ZM37.7066 39.5266C37.3047 39.9054 37.2861 40.5383 37.6649 40.9402C38.0437 41.342 38.6766 41.3607 39.0785 40.9819L37.7066 39.5266ZM35.7339 26.3223L35.4887 27.2918L35.7339 26.3223ZM29.4761 42.7561L28.4857 42.6183H28.4857L29.4761 42.7561ZM29.9278 45.7206C29.3755 45.7206 28.9278 46.1683 28.9278 46.7206C28.9278 47.2729 29.3755 47.7206 29.9278 47.7206V45.7206ZM37.8946 47.7206C38.4469 47.7206 38.8946 47.2729 38.8946 46.7206C38.8946 46.1683 38.4469 45.7206 37.8946 45.7206V47.7206ZM30.6521 48.7021C30.0998 48.7021 29.6521 49.1498 29.6521 49.7021C29.6521 50.2544 30.0998 50.7021 30.6521 50.7021V48.7021ZM37.1704 50.7021C37.7227 50.7021 38.1704 50.2544 38.1704 49.7021C38.1704 49.1498 37.7227 48.7021 37.1704 48.7021V50.7021ZM31.2847 38.3541C31.604 38.8047 32.2282 38.9111 32.6788 38.5918C33.1294 38.2724 33.2358 37.6483 32.9164 37.1977L31.2847 38.3541ZM31.7784 37.3213L32.5942 36.7431L32.5942 36.7431L31.7784 37.3213ZM32.8585 30.9744C33.2188 30.5558 33.1714 29.9244 32.7528 29.5641C32.3342 29.2038 31.7028 29.2512 31.3426 29.6698L32.8585 30.9744ZM26.3135 26.5467C26.6984 26.9428 27.3315 26.9519 27.7276 26.567C28.1237 26.1821 28.1328 25.549 27.7479 25.1529L26.3135 26.5467ZM25.5751 22.9168C25.1902 22.5207 24.5571 22.5116 24.161 22.8964C23.7649 23.2813 23.7558 23.9144 24.1407 24.3105L25.5751 22.9168ZM40.7987 25.1529C40.4138 25.549 40.4229 26.1821 40.819 26.567C41.2151 26.9519 41.8482 26.9428 42.2331 26.5467L40.7987 25.1529ZM44.4059 24.3105C44.7907 23.9144 44.7816 23.2813 44.3855 22.8964C43.9895 22.5116 43.3563 22.5207 42.9715 22.9168L44.4059 24.3105ZM32.8647 23.1512C32.8571 23.7035 33.2987 24.1573 33.8509 24.1649C34.4031 24.1725 34.857 23.731 34.8645 23.1787L32.8647 23.1512ZM34.9096 19.9005C34.9172 19.3482 34.4757 18.8944 33.9235 18.8868C33.3712 18.8792 32.9174 19.3207 32.9098 19.873L34.9096 19.9005ZM37.7136 42.7391H30.3042V44.7391H37.7136V42.7391ZM29.0874 38.1132L28.9348 37.9336L27.4107 39.2288L27.5634 39.4083L29.0874 38.1132ZM32.0128 27.4038L32.2809 27.3292L31.7446 25.4024L31.4765 25.4771L32.0128 27.4038ZM38.377 38.8946L37.7066 39.5266L39.0785 40.9819L39.7489 40.3499L38.377 38.8946ZM35.4887 27.2918C40.5657 28.5758 42.2728 35.2221 38.377 38.8946L39.7489 40.3499C44.7595 35.6264 42.6312 27.0352 35.9791 25.3529L35.4887 27.2918ZM32.2809 27.3292C33.3283 27.0376 34.4341 27.0251 35.4887 27.2918L35.9791 25.3529C34.5879 25.001 33.1282 25.0172 31.7446 25.4024L32.2809 27.3292ZM28.9348 37.9336C25.8528 34.307 27.5574 28.644 32.0128 27.4038L31.4765 25.4771C25.5608 27.1238 23.4197 34.5324 27.4107 39.2288L28.9348 37.9336ZM30.4666 42.894C30.7059 41.1746 30.2055 39.4289 29.0874 38.1132L27.5634 39.4083C28.3073 40.2837 28.6474 41.4561 28.4857 42.6183L30.4666 42.894ZM30.3042 42.7391C30.3643 42.7391 30.4125 42.7689 30.4369 42.7979C30.4608 42.8262 30.4709 42.8627 30.4666 42.894L28.4857 42.6183C28.3344 43.7056 29.1553 44.7391 30.3042 44.7391V42.7391ZM29.9278 47.7206H37.8946V45.7206H29.9278V47.7206ZM30.6521 50.7021H37.1704V48.7021H30.6521V50.7021ZM32.9164 37.1977L32.5942 36.7431L30.9625 37.8996L31.2847 38.3541L32.9164 37.1977ZM32.5942 36.7431C31.3554 34.9951 31.4677 32.5904 32.8585 30.9744L31.3426 29.6698C29.3502 31.9848 29.1944 35.4049 30.9625 37.8996L32.5942 36.7431ZM27.7479 25.1529L25.5751 22.9168L24.1407 24.3105L26.3135 26.5467L27.7479 25.1529ZM42.2331 26.5467L44.4059 24.3105L42.9715 22.9168L40.7987 25.1529L42.2331 26.5467ZM34.8645 23.1787L34.9096 19.9005L32.9098 19.873L32.8647 23.1512L34.8645 23.1787Z" fill="white"/>
</svg>
