<svg width="39" height="39" viewBox="0 0 39 39" fill="none" xmlns="http://www.w3.org/2000/svg">
<rect width="600" height="709" transform="translate(-178 -284)" fill="white"/>
<path d="M20 32.8828C27.1797 32.8828 33 27.0625 33 19.8828C33 12.7031 27.1797 6.88281 20 6.88281C12.8203 6.88281 7 12.7031 7 19.8828C7 27.0625 12.8203 32.8828 20 32.8828Z" fill="#FF6067"/>
<path fill-rule="evenodd" clip-rule="evenodd" d="M23.8371 19.4926L19.2922 15.0426C19.1871 14.9396 19.0468 14.8828 18.8972 14.8828C18.7475 14.8828 18.6072 14.9396 18.5021 15.0426L18.1674 15.3702C17.9496 15.5837 17.9496 15.9307 18.1674 16.1439L21.9838 19.8807L18.1632 23.6218C18.058 23.7248 18 23.8621 18 24.0085C18 24.1551 18.058 24.2924 18.1632 24.3955L18.4979 24.7231C18.6031 24.8261 18.7433 24.8828 18.8929 24.8828C19.0425 24.8828 19.1829 24.8261 19.288 24.7231L23.8371 20.2689C23.9425 20.1656 24.0003 20.0276 24 19.881C24.0003 19.7337 23.9425 19.5959 23.8371 19.4926Z" fill="white"/>
</svg>
