<svg width="266" height="65" viewBox="0 0 266 65" fill="none" xmlns="http://www.w3.org/2000/svg">
<g clip-path="url(#clip0)">
<g clip-path="url(#clip1)">
<g clip-path="url(#clip2)">
<path opacity="0.7" d="M604.755 -278.071L971.258 -329.58C987.081 -331.803 1004.46 -303.825 1009.49 -268.027C1014.52 -232.228 1005.53 -200.543 989.705 -198.32L588.919 -141.993C581.008 -140.881 575.253 -133.988 573.394 -118.516L549.89 -17.8653C546.293 -5.19135 540.957 -14.3152 533.046 -13.2033C478.984 -5.60544 35.3988 56.7364 -18.6629 64.3343C-50.0001 68.7384 -55.4999 61.911 -55.4999 61.911C-55.4999 61.911 -61.4996 49.9108 -37.1089 45.0738C-12.7182 40.2367 540.971 -36.1701 548.883 -37.282C556.794 -38.3939 562.548 -138.286 564.407 -153.758L589.23 -254.594C592.408 -270.252 598.162 -277.144 604.755 -278.071Z" fill="url(#paint0_linear)"/>
</g>
</g>
<g clip-path="url(#clip3)">
<path opacity="0.7" d="M694.755 -278.071L1061.26 -329.58C1077.08 -331.803 1094.46 -303.825 1099.49 -268.027C1104.52 -232.228 1095.53 -200.543 1079.71 -198.32L678.919 -141.993C671.008 -140.881 665.253 -133.988 663.394 -118.516L639.89 -17.8653C636.293 -5.19135 630.957 -14.3152 623.046 -13.2033C568.984 -5.60544 125.399 56.7364 71.3371 64.3343C39.9999 68.7384 34.5001 61.911 34.5001 61.911C34.5001 61.911 28.5004 49.9108 52.8911 45.0738C77.2818 40.2367 630.971 -36.1701 638.883 -37.282C646.794 -38.3939 652.548 -138.286 654.407 -153.758L679.23 -254.594C682.408 -270.252 688.162 -277.144 694.755 -278.071Z" fill="url(#paint1_linear)"/>
</g>
</g>
<defs>
<linearGradient id="paint0_linear" x1="376.5" y1="-47.5" x2="10.4999" y2="37.5" gradientUnits="userSpaceOnUse">
<stop stop-color="#21C1D4"/>
<stop offset="0.928776" stop-color="#2864FF" stop-opacity="0"/>
</linearGradient>
<linearGradient id="paint1_linear" x1="466.5" y1="-47.5" x2="100.5" y2="37.5" gradientUnits="userSpaceOnUse">
<stop stop-color="#21C1D4"/>
<stop offset="0.928776" stop-color="#2864FF" stop-opacity="0"/>
</linearGradient>
<clipPath id="clip0">
<rect width="266" height="65" fill="white" transform="translate(266 65) rotate(-180)"/>
</clipPath>
<clipPath id="clip1">
<rect width="356" height="129" fill="white" transform="translate(266 88) rotate(-180)"/>
</clipPath>
<clipPath id="clip2">
<rect width="433" height="86" fill="white" transform="translate(343 73) rotate(-180)"/>
</clipPath>
<clipPath id="clip3">
<rect width="433" height="86" fill="white" transform="translate(433 73) rotate(-180)"/>
</clipPath>
</defs>
</svg>
