<svg width="132" height="22" viewBox="0 0 132 22" fill="none" xmlns="http://www.w3.org/2000/svg">
<path d="M1.69884 14.9424C0.762152 14.9424 0.00581762 14.1831 0.00581757 13.2428C0.00581753 12.3024 0.762152 11.5431 1.69884 11.5431L8.23823 11.5431L8.86657 11.5431C9.30291 11.5431 9.68108 11.3679 9.96034 11.0408L12.0723 8.58766C12.3573 8.25474 12.7297 8.08536 13.1719 8.08536L18.3789 8.08536C19.3156 8.08536 20.0719 8.84466 20.0719 9.78502C20.0719 10.7254 19.3156 11.4847 18.3789 11.4847L14.9987 11.4847L12.9566 11.4847L11.217 11.4847C10.7807 11.4847 10.4025 11.6541 10.1174 11.987L8.00551 14.446C7.72043 14.7789 7.34808 14.9483 6.91173 14.9483L1.69884 14.9483L1.69884 14.9424ZM17.2386 1.00049L18.3789 1.00049C19.3156 1.00049 20.0719 1.75979 20.0719 2.70015C20.0719 3.64052 19.3156 4.39982 18.3789 4.39982L15.2838 4.39982C14.8474 4.39982 14.4693 4.57505 14.1842 4.90213L12.0723 7.35526C11.7872 7.68818 11.409 7.85757 10.9727 7.85757C7.87751 7.85757 4.78818 7.85757 1.69302 7.85757C0.756334 7.85757 -6.48931e-07 7.09826 -6.89838e-07 6.1579C-7.30746e-07 5.21753 0.756334 4.45823 1.69302 4.45823L1.69884 4.45823L12.9333 4.45823C13.3697 4.45823 13.7478 4.28301 14.0271 3.95592L16.139 1.5028C16.4241 1.17571 16.8023 1.00049 17.2386 1.00049ZM2.83916 22.0156L1.69884 22.0156C0.762152 22.0156 0.00581792 21.2563 0.00581788 20.316C0.00581784 19.3756 0.762152 18.6163 1.69884 18.6163L4.79981 18.6163C5.23616 18.6163 5.61433 18.4411 5.89359 18.114L8.00551 15.6609C8.29059 15.3279 8.66294 15.1585 9.1051 15.1585C12.2003 15.1585 15.2896 15.1585 18.3847 15.1585C19.3214 15.1585 20.0778 15.9178 20.0778 16.8582C20.0778 17.7986 19.3214 18.5579 18.3847 18.5579L18.3789 18.5579L7.14445 18.5579C6.7081 18.5579 6.32994 18.7273 6.05067 19.0602L3.93876 21.5133C3.65368 21.8404 3.27551 22.0156 2.83916 22.0156Z" fill="#19153E"/>
<path d="M1.69884 14.9424C0.762152 14.9424 0.00581762 14.1831 0.00581757 13.2428C0.00581753 12.3024 0.762152 11.5431 1.69884 11.5431L8.23823 11.5431L8.86657 11.5431C9.30291 11.5431 9.68108 11.3679 9.96034 11.0408L12.0723 8.58766C12.3573 8.25474 12.7297 8.08536 13.1719 8.08536L18.3789 8.08536C19.3156 8.08536 20.0719 8.84466 20.0719 9.78502C20.0719 10.7254 19.3156 11.4847 18.3789 11.4847L14.9987 11.4847L12.9566 11.4847L11.217 11.4847C10.7807 11.4847 10.4025 11.6541 10.1174 11.987L8.00551 14.446C7.72043 14.7789 7.34808 14.9483 6.91173 14.9483L1.69884 14.9483L1.69884 14.9424ZM17.2386 1.00049L18.3789 1.00049C19.3156 1.00049 20.0719 1.75979 20.0719 2.70015C20.0719 3.64052 19.3156 4.39982 18.3789 4.39982L15.2838 4.39982C14.8474 4.39982 14.4693 4.57505 14.1842 4.90213L12.0723 7.35526C11.7872 7.68818 11.409 7.85757 10.9727 7.85757C7.87751 7.85757 4.78818 7.85757 1.69302 7.85757C0.756334 7.85757 -6.48931e-07 7.09826 -6.89838e-07 6.1579C-7.30746e-07 5.21753 0.756334 4.45823 1.69302 4.45823L1.69884 4.45823L12.9333 4.45823C13.3697 4.45823 13.7478 4.28301 14.0271 3.95592L16.139 1.5028C16.4241 1.17571 16.8023 1.00049 17.2386 1.00049ZM2.83916 22.0156L1.69884 22.0156C0.762152 22.0156 0.00581792 21.2563 0.00581788 20.316C0.00581784 19.3756 0.762152 18.6163 1.69884 18.6163L4.79981 18.6163C5.23616 18.6163 5.61433 18.4411 5.89359 18.114L8.00551 15.6609C8.29059 15.3279 8.66294 15.1585 9.1051 15.1585C12.2003 15.1585 15.2896 15.1585 18.3847 15.1585C19.3214 15.1585 20.0778 15.9178 20.0778 16.8582C20.0778 17.7986 19.3214 18.5579 18.3847 18.5579L18.3789 18.5579L7.14445 18.5579C6.7081 18.5579 6.32994 18.7273 6.05067 19.0602L3.93876 21.5133C3.65368 21.8404 3.27551 22.0156 2.83916 22.0156Z" fill="url(#paint0_linear)"/>
<path fill-rule="evenodd" clip-rule="evenodd" d="M127.726 18.0612L127.726 10.3404C127.726 9.74829 127.851 9.15036 128.276 8.72079C128.695 8.2854 129.291 8.15769 129.869 8.15769L131.066 8.15769C131.219 8.15769 131.344 8.02998 131.344 7.87324L131.344 5.93434C131.344 5.7776 131.219 5.64989 131.066 5.64989L129.404 5.64989C128.208 5.64989 127.074 5.96917 126.212 6.85735C125.35 7.74553 125.044 8.91235 125.044 10.143L125.044 18.0612C125.044 18.2179 125.169 18.3456 125.322 18.3456L127.454 18.3456C127.601 18.3456 127.726 18.2179 127.726 18.0612ZM46.2773 1C47.2129 1 47.9671 1.77208 47.9671 2.72992C47.9671 3.68777 47.2072 4.45984 46.2773 4.45984C45.3417 4.45984 44.5875 3.68777 44.5875 2.72992C44.5875 1.77208 45.3417 1 46.2773 1ZM50.3883 18.0612L50.3883 1.70823C50.3883 1.55149 50.513 1.42378 50.6661 1.42378L52.7868 1.42378C52.9399 1.42378 53.0647 1.55149 53.0647 1.70823L53.0647 5.82985L56.0019 5.82985C56.155 5.82985 56.2797 5.95756 56.2797 6.1143L56.2797 7.92549C56.2797 8.08223 56.155 8.20994 56.0019 8.20994L53.0647 8.20994L53.0647 18.0612C53.0647 18.2179 52.9399 18.3456 52.7868 18.3456L50.6661 18.3456C50.513 18.3456 50.3883 18.2179 50.3883 18.0612ZM39.4899 18.0612L39.4899 1.70823C39.4899 1.55149 39.6147 1.42378 39.7678 1.42378L41.8885 1.42378C42.0416 1.42378 42.1663 1.55149 42.1663 1.70823L42.1663 18.0612C42.1663 18.2179 42.0416 18.3456 41.8885 18.3456L39.7678 18.3456C39.6147 18.3456 39.4899 18.2179 39.4899 18.0612ZM44.9391 18.0612L44.9391 6.1143C44.9391 5.95756 45.0638 5.82985 45.2169 5.82985L47.3376 5.82985C47.4907 5.82985 47.6155 5.95756 47.6155 6.1143L47.6155 18.0612C47.6155 18.2179 47.4907 18.3456 47.3376 18.3456L45.2169 18.3456C45.0639 18.3456 44.9391 18.2179 44.9391 18.0612ZM59.4438 10.7874L66.441 10.7874C66.2255 9.99791 65.8399 9.3071 65.2048 8.79045C64.5414 8.25638 63.7702 8.02418 62.9254 8.02418C62.0862 8.02418 61.3037 8.25638 60.6459 8.80206C60.0222 9.31871 59.6423 9.99791 59.4438 10.7874ZM59.3701 13.0514C59.5232 13.8989 59.8804 14.6536 60.5325 15.2225C61.2129 15.8204 62.0408 16.0642 62.931 16.0642C63.5888 16.0642 64.2125 15.9249 64.7909 15.5998C65.2162 15.356 65.5734 15.0367 65.8626 14.6478C65.9533 14.5201 66.1234 14.4969 66.2482 14.5897L67.8586 15.7914C67.9209 15.8378 67.9549 15.9017 67.9663 15.983C67.9776 16.0642 67.9606 16.1339 67.9096 16.1978C67.5353 16.7028 67.0817 17.144 66.5544 17.5213C65.4713 18.2934 64.2522 18.6533 62.931 18.6533C61.1846 18.6533 59.6819 18.0496 58.4572 16.7667C57.221 15.4721 56.654 13.8931 56.654 12.0936C56.654 10.9151 56.9092 9.78312 57.4705 8.74981C58.0149 7.75134 58.7634 6.96184 59.7273 6.38714C60.7139 5.80082 61.7913 5.53379 62.931 5.53379C64.0935 5.53379 65.1935 5.80663 66.1915 6.42197C67.1441 7.00828 67.8812 7.80358 68.3972 8.80787C68.9302 9.84117 69.1684 10.9558 69.1684 12.1226C69.1684 12.349 69.1514 12.5754 69.1287 12.796C69.1117 12.9411 68.9926 13.0514 68.8509 13.0514L59.3701 13.0514ZM27.8941 10.7874L34.8913 10.7874C34.6758 9.99791 34.2902 9.30711 33.6552 8.79045C32.9917 8.25638 32.2149 8.02418 31.3757 8.02418C30.5308 8.02418 29.754 8.25638 29.0962 8.80206C28.4725 9.31872 28.0869 9.99791 27.8941 10.7874ZM27.8147 13.0514C27.9678 13.8989 28.325 14.6536 28.9771 15.2225C29.6576 15.8204 30.4854 16.0642 31.3757 16.0642C32.0334 16.0642 32.6572 15.9249 33.2355 15.5998C33.6608 15.356 34.0181 15.0367 34.3016 14.6478C34.3923 14.5201 34.5681 14.4969 34.6872 14.5897L36.2975 15.7914C36.3599 15.8378 36.3939 15.9017 36.4109 15.983C36.4223 16.0642 36.4053 16.1339 36.3542 16.1978C35.98 16.7028 35.5264 17.144 34.999 17.5213C33.916 18.2934 32.6969 18.6533 31.3757 18.6533C29.6292 18.6533 28.1266 18.0496 26.9018 16.7667C25.6657 15.4721 25.0986 13.8931 25.0986 12.0936C25.0986 10.9151 25.3538 9.78312 25.9152 8.74982C26.4595 7.75134 27.208 6.96184 28.1719 6.38714C29.1586 5.80082 30.2359 5.53379 31.3757 5.53379C32.5381 5.53379 33.6381 5.80663 34.6361 6.42197C35.5887 7.00829 36.3259 7.80358 36.8419 8.80787C37.3749 9.84117 37.6074 10.9558 37.6074 12.1226C37.6074 12.349 37.5904 12.5754 37.5677 12.796C37.5507 12.9411 37.4316 13.0514 37.2898 13.0514L27.8147 13.0514ZM83.4803 17.5503C82.454 18.3747 81.1668 18.6475 79.8853 18.6475C78.5868 18.6475 77.3053 18.3515 76.2903 17.4749C75.6553 16.9292 75.247 16.2674 75.0372 15.507C75.0145 15.4257 75.0258 15.3502 75.0655 15.2806C75.1052 15.2109 75.1676 15.1645 75.247 15.147L77.2713 14.7C77.4074 14.671 77.5435 14.7465 77.5945 14.8858C77.7022 15.2109 77.9064 15.4837 78.2069 15.7043C78.7172 16.0817 79.3523 16.1978 79.976 16.1978C80.5374 16.1978 81.1214 16.0991 81.6034 15.7856C81.9947 15.5302 82.2215 15.1819 82.2215 14.7058C82.2215 14.5143 82.1761 14.3285 82.0797 14.1602C81.989 14.0034 81.8699 13.8699 81.7282 13.7654C81.5581 13.6435 81.3256 13.5506 81.1271 13.4868C80.8946 13.4113 80.6508 13.3416 80.4127 13.2894C80.1291 13.2255 79.84 13.1733 79.5508 13.1211C79.2559 13.0688 78.9611 13.0166 78.6719 12.9527C78.3827 12.8947 78.0992 12.8134 77.8156 12.7321C77.5265 12.6508 77.2259 12.5464 76.9538 12.407C76.7043 12.2793 76.4661 12.1226 76.2393 11.9542C76.0011 11.7801 75.78 11.5653 75.6212 11.3099C75.4568 11.0486 75.3434 10.7468 75.2527 10.4507C75.1449 10.0908 75.0996 9.71927 75.0996 9.34193C75.0996 8.19833 75.5475 7.27532 76.4264 6.5729C77.4131 5.78341 78.6378 5.52218 79.8683 5.52218C81.0988 5.52218 82.3179 5.80082 83.2875 6.61934C83.9112 7.14761 84.3025 7.79778 84.4896 8.54083C84.5123 8.6163 84.501 8.69176 84.4556 8.76142C84.4159 8.83108 84.3535 8.87172 84.2798 8.88914L82.3349 9.31871C82.1931 9.34774 82.0514 9.26066 82.0117 9.11554C81.9266 8.80206 81.7509 8.53502 81.4673 8.32024C80.9967 7.97193 80.3786 7.87905 79.8116 7.87905C79.2843 7.87905 78.7002 7.96612 78.2523 8.26799C77.9007 8.506 77.7022 8.82528 77.7022 9.26647C77.7022 9.4116 77.7249 9.56253 77.776 9.69024C77.8327 9.82376 77.9291 9.92244 78.0425 10.0095C78.1672 10.1024 78.2976 10.1837 78.428 10.2591C78.5925 10.3404 78.7909 10.3985 78.9667 10.4391C79.1708 10.4855 79.375 10.532 79.5791 10.5726C79.8116 10.6249 80.0441 10.6597 80.2766 10.7003C81.0704 10.8397 82.0911 11.0196 82.8339 11.3447C84.104 11.8962 84.7788 12.8889 84.8525 14.2937C84.8582 14.3924 84.8639 14.4911 84.8639 14.5897C84.8582 15.8088 84.4102 16.8015 83.4803 17.5503ZM100.639 18.0612L100.639 1.70822C100.639 1.55149 100.763 1.42377 100.917 1.42377L103.037 1.42377C103.19 1.42377 103.315 1.55149 103.315 1.70822L103.315 18.0612C103.315 18.2179 103.19 18.3456 103.037 18.3456L100.917 18.3456C100.763 18.3456 100.639 18.2179 100.639 18.0612ZM106.088 18.0612L106.088 1.70822C106.088 1.55149 106.213 1.42377 106.366 1.42377L108.486 1.42377C108.64 1.42377 108.764 1.55149 108.764 1.70822L108.764 18.0612C108.764 18.2179 108.64 18.3456 108.486 18.3456L106.366 18.3456C106.213 18.3456 106.088 18.2179 106.088 18.0612ZM113.437 10.7874L120.434 10.7874C120.218 9.99791 119.833 9.3071 119.198 8.79045C118.534 8.25638 117.757 8.02417 116.918 8.02417C116.079 8.02417 115.296 8.25638 114.639 8.80206C114.021 9.31871 113.635 9.99791 113.437 10.7874ZM113.363 13.0514C113.516 13.8989 113.873 14.6536 114.525 15.2225C115.206 15.8204 116.034 16.0642 116.924 16.0642C117.582 16.0642 118.205 15.9249 118.784 15.5998C119.215 15.356 119.572 15.0367 119.855 14.6478C119.946 14.5201 120.116 14.4969 120.241 14.5897L121.851 15.7914C121.914 15.8378 121.953 15.9017 121.965 15.983C121.976 16.0642 121.959 16.1339 121.908 16.1978C121.534 16.7028 121.08 17.144 120.553 17.5213C119.47 18.2934 118.251 18.6533 116.93 18.6533C115.183 18.6533 113.68 18.0496 112.456 16.7667C111.22 15.4721 110.653 13.8931 110.653 12.0936C110.653 10.9151 110.908 9.78312 111.469 8.74981C112.013 7.75133 112.762 6.96184 113.726 6.38714C114.712 5.80082 115.79 5.53379 116.924 5.53379C118.086 5.53379 119.186 5.80663 120.184 6.42197C121.137 7.00828 121.874 7.80358 122.39 8.80786C122.923 9.84117 123.161 10.9558 123.161 12.1226C123.161 12.349 123.144 12.5754 123.122 12.796C123.105 12.9411 122.991 13.0514 122.844 13.0514L113.363 13.0514ZM89.0372 10.7874L96.0344 10.7874C95.8189 9.99791 95.4333 9.3071 94.7983 8.79045C94.1348 8.25638 93.358 8.02417 92.5188 8.02417C91.6796 8.02417 90.8971 8.25638 90.2393 8.80206C89.6156 9.31871 89.2357 9.99791 89.0372 10.7874ZM88.9635 13.0514C89.1166 13.8989 89.4738 14.6536 90.1259 15.2225C90.8064 15.8204 91.6342 16.0642 92.5245 16.0642C93.1822 16.0642 93.806 15.9249 94.3843 15.5998C94.8096 15.356 95.1668 15.0367 95.456 14.6478C95.5468 14.5201 95.7169 14.4969 95.8416 14.5897L97.452 15.7914C97.5144 15.8378 97.554 15.9017 97.5654 15.983C97.5767 16.0584 97.5597 16.1339 97.5087 16.1978C97.1344 16.7028 96.6808 17.144 96.1535 17.5213C95.0704 18.2934 93.8513 18.6533 92.5301 18.6533C90.7837 18.6533 89.281 18.0496 88.0563 16.7667C86.8201 15.4721 86.2531 13.8931 86.2531 12.0936C86.2531 10.9151 86.5083 9.78312 87.0696 8.74981C87.614 7.75134 88.3624 6.96184 89.3264 6.38714C90.313 5.80082 91.3904 5.53379 92.5245 5.53379C93.6869 5.53379 94.7869 5.80663 95.7849 6.42197C96.7375 7.00828 97.4747 7.80358 97.9907 8.80786C98.518 9.84117 98.7562 10.9558 98.7562 12.1226C98.7562 12.349 98.7391 12.5754 98.7165 12.796C98.6994 12.9411 98.586 13.0514 98.4386 13.0514L88.9635 13.0514Z" fill="white"/>
<defs>
<linearGradient id="paint0_linear" x1="-1.85928e-07" y1="16.9285" x2="20.4315" y2="4.87902" gradientUnits="userSpaceOnUse">
<stop stop-color="#2864FF"/>
<stop offset="1" stop-color="#21C1D4"/>
</linearGradient>
</defs>
</svg>
