<svg width="108" height="26" viewBox="0 0 108 26" fill="none" xmlns="http://www.w3.org/2000/svg">
<g clip-path="url(#clip0)">
<rect width="600" height="418" transform="translate(-218 -107)" fill="white"/>
<path d="M36.7895 18.8384C36.7046 18.9225 36.5597 19.0277 36.3618 19.1574C36.1603 19.2836 35.9023 19.4132 35.5807 19.5394C35.2591 19.6656 34.8668 19.7778 34.4038 19.8689C33.9407 19.9601 33.4071 20.0056 32.8097 20.0056C31.654 20.0056 30.6573 19.8199 29.8126 19.4553C28.9714 19.0873 28.2751 18.5755 27.7273 17.9165C27.1795 17.2575 26.7766 16.4794 26.5185 15.582C26.2605 14.6847 26.1333 13.6962 26.1333 12.6201C26.1333 11.544 26.2711 10.552 26.5504 9.63711C26.8296 8.72574 27.2466 7.93706 27.8015 7.27107C28.3564 6.60507 29.0527 6.08629 29.8868 5.71123C30.7209 5.33617 31.7035 5.15039 32.8274 5.15039C33.3823 5.15039 33.8877 5.19946 34.3366 5.29761C34.7855 5.39576 35.1778 5.51494 35.5135 5.64814C35.8493 5.78134 36.125 5.92505 36.3477 6.07227C36.5668 6.21949 36.7364 6.34568 36.8495 6.44383C36.9768 6.556 37.0863 6.6927 37.1818 6.84693C37.2737 7.00116 37.3196 7.17292 37.3196 7.35519C37.3196 7.63912 37.2136 7.91954 36.998 8.20346C36.7824 8.48739 36.5491 8.74678 36.2911 8.98864C36.1215 8.82039 35.9271 8.64512 35.715 8.46986C35.4994 8.2946 35.2626 8.13686 34.9975 8.00366C34.7325 7.87046 34.4356 7.75479 34.0998 7.66365C33.764 7.57252 33.3894 7.52695 32.9759 7.52695C32.2478 7.52695 31.6399 7.67066 31.1451 7.9616C30.6538 8.25254 30.2579 8.6311 29.9575 9.0973C29.6571 9.5635 29.445 10.0998 29.3142 10.6992C29.187 11.3021 29.1234 11.912 29.1234 12.536C29.1234 13.2019 29.187 13.8364 29.3142 14.4463C29.4415 15.0562 29.6641 15.5925 29.9787 16.0587C30.2933 16.5249 30.7033 16.9 31.2087 17.1839C31.7141 17.4678 32.3467 17.608 33.1031 17.608C33.5025 17.608 33.8701 17.559 34.2058 17.4608C34.5416 17.3627 34.8385 17.2435 35.093 17.0998C35.351 16.9596 35.5736 16.8088 35.768 16.6546C35.9624 16.5004 36.1215 16.3637 36.2487 16.2515C36.3335 16.3497 36.4325 16.4723 36.5491 16.6126C36.6658 16.7563 36.7718 16.9035 36.8707 17.0577C36.9697 17.212 37.0545 17.3697 37.1288 17.5239C37.1994 17.6817 37.2348 17.8219 37.2348 17.9481C37.2348 18.1338 37.1994 18.2881 37.1288 18.4143C37.0581 18.5404 36.945 18.6842 36.7895 18.8384ZM47.8167 17.212C47.8167 18.3371 47.9828 19.1539 48.3115 19.6656C48.0535 19.7638 47.8132 19.8374 47.5905 19.8794C47.3679 19.9215 47.1346 19.9425 46.8907 19.9425C46.3747 19.9425 45.9824 19.8444 45.7173 19.6446C45.4522 19.4448 45.2826 19.1609 45.2119 18.7893C44.8973 19.1188 44.4803 19.3957 43.9643 19.6236C43.4482 19.8514 42.8156 19.9636 42.0698 19.9636C41.681 19.9636 41.2958 19.911 40.907 19.8023C40.5182 19.6972 40.1683 19.5219 39.8502 19.2801C39.5357 19.0382 39.2777 18.7157 39.0762 18.3126C38.8747 17.9095 38.7758 17.4153 38.7758 16.8334C38.7758 16.1113 38.9525 15.5189 39.3024 15.0667C39.6558 14.6111 40.0941 14.2535 40.6278 13.9906C41.158 13.7277 41.7341 13.549 42.349 13.4473C42.9676 13.3492 43.5331 13.2861 44.0491 13.2545C44.2223 13.2405 44.3884 13.2335 44.5545 13.2335H45.0175V12.8444C45.0175 12.2976 44.8691 11.9085 44.5757 11.6772C44.2823 11.4458 43.8052 11.3301 43.1443 11.3301C42.5258 11.3301 41.9779 11.4283 41.4973 11.6281C41.0166 11.8279 40.5465 12.0557 40.087 12.3116C39.8856 12.0698 39.723 11.8034 39.6028 11.5124C39.4827 11.2215 39.419 11.0042 39.419 10.8604C39.419 10.6606 39.5286 10.4679 39.7513 10.2856C39.9739 10.0998 40.2779 9.93506 40.6667 9.78433C41.0555 9.6336 41.4973 9.51443 42.0027 9.41978C42.5046 9.32865 43.0347 9.27957 43.5967 9.27957C44.3707 9.27957 45.0281 9.35669 45.5653 9.51443C46.1026 9.67216 46.5408 9.91402 46.8766 10.24C47.2124 10.5695 47.4527 10.9761 47.5976 11.4668C47.7425 11.9576 47.8132 12.5324 47.8132 13.1844V17.212H47.8167ZM45.0599 14.7337H44.7595C44.657 14.7337 44.558 14.7408 44.4591 14.7548C44.0986 14.7828 43.7451 14.8249 43.3917 14.8845C43.0382 14.9406 42.7272 15.0422 42.4551 15.1824C42.1829 15.3261 41.9603 15.5084 41.7871 15.7362C41.6139 15.9641 41.5291 16.255 41.5291 16.6126C41.5291 17.0122 41.6457 17.3487 41.8719 17.6256C42.1016 17.9025 42.4904 18.0427 43.0347 18.0427C43.3069 18.0427 43.5649 18.0076 43.8087 17.9375C44.0526 17.8674 44.2682 17.7728 44.4555 17.6606C44.6429 17.545 44.7878 17.4223 44.8973 17.2856C45.0034 17.1524 45.0599 17.0262 45.0599 16.9105V14.7337ZM53.1748 10.5274C53.4046 10.2575 53.7616 9.98413 54.2493 9.70721C54.737 9.4303 55.352 9.29009 56.0943 9.29009C56.6244 9.29009 57.1263 9.37772 57.607 9.55649C58.0841 9.73526 58.5118 10.0227 58.8829 10.4223C59.254 10.8219 59.5509 11.3477 59.7735 12.0032C59.9962 12.6586 60.1058 13.4613 60.1058 14.4148C60.1058 15.5259 59.9785 16.4408 59.7205 17.1594C59.4625 17.8779 59.1303 18.4493 58.7238 18.8664C58.3174 19.2871 57.8614 19.5815 57.3596 19.7533C56.8577 19.925 56.3593 20.0091 55.8574 20.0091C55.4439 20.0091 55.0799 19.9636 54.7724 19.8689C54.4649 19.7778 54.2034 19.6726 53.9878 19.5605C53.7722 19.4483 53.6096 19.3326 53.4929 19.2205C53.3798 19.1083 53.3056 19.0277 53.2773 18.9856V24.233H50.3509V9.58804C50.4216 9.57401 50.5099 9.55999 50.6124 9.54597C50.7008 9.53195 50.7997 9.52144 50.9164 9.51443C51.033 9.50742 51.1709 9.50391 51.3299 9.50391C51.807 9.50391 52.2135 9.58103 52.5457 9.73876C52.878 9.8965 53.09 10.1594 53.1748 10.5274ZM57.0485 14.4779C57.0485 14.0502 57.0132 13.6541 56.9425 13.2826C56.8718 12.911 56.7516 12.592 56.5891 12.3221C56.4265 12.0522 56.2038 11.8419 55.9246 11.6912C55.6454 11.5405 55.3061 11.4668 54.9067 11.4668C54.3059 11.4668 53.8888 11.5825 53.6555 11.8069C53.4187 12.0347 53.3021 12.2836 53.3021 12.5535V17.0788C53.4152 17.1944 53.6202 17.3276 53.9135 17.4854C54.2069 17.6431 54.5462 17.7202 54.9314 17.7202C55.6595 17.7202 56.1932 17.4363 56.536 16.8649C56.8789 16.3006 57.0485 15.5014 57.0485 14.4779ZM62.3678 18.1514C62.2653 17.8674 62.2017 17.5695 62.1734 17.254C62.1451 16.942 62.131 16.6266 62.131 16.3146V6.40878C62.2299 6.39475 62.3395 6.38073 62.4526 6.36671C62.5516 6.35269 62.6611 6.34218 62.7742 6.33516C62.8873 6.32815 63.004 6.32465 63.1171 6.32465C63.3468 6.32465 63.5765 6.34568 63.8063 6.38774C64.036 6.42981 64.2445 6.51744 64.4319 6.64363C64.6192 6.77332 64.7676 6.94508 64.8843 7.16591C65.0009 7.38674 65.0574 7.67417 65.0574 8.03171V9.54597H68.0723V11.7017H65.0574V16.255C65.0574 17.247 65.4674 17.7448 66.2839 17.7448C66.4853 17.7448 66.6762 17.7132 66.8529 17.6501C67.0332 17.587 67.1922 17.5169 67.3371 17.4363C67.482 17.3592 67.6057 17.275 67.7153 17.1909C67.8213 17.1068 67.8991 17.0402 67.9415 16.9981C68.1571 17.3101 68.3232 17.5835 68.4363 17.8113C68.5494 18.0392 68.6095 18.2565 68.6095 18.4563C68.6095 18.6421 68.5353 18.8279 68.3833 19.0066C68.2313 19.1854 68.0193 19.3502 67.7471 19.5009C67.475 19.6516 67.1427 19.7743 66.7575 19.8654C66.3687 19.9601 65.9481 20.0056 65.4886 20.0056C64.598 20.0056 63.9052 19.8339 63.4104 19.4939C62.9156 19.1539 62.5657 18.7052 62.3678 18.1514ZM75.4874 17.8709C75.8479 17.8709 76.1625 17.8324 76.4381 17.7518C76.7103 17.6746 76.9577 17.5765 77.1733 17.4643C77.3889 17.3522 77.5762 17.226 77.7353 17.0893C77.8943 16.9526 78.0392 16.8299 78.1665 16.7142C78.3396 16.928 78.5199 17.2014 78.7072 17.5344C78.8945 17.8709 78.9864 18.1443 78.9864 18.3582C78.9864 18.6701 78.8062 18.9576 78.4492 19.2134C78.1488 19.4413 77.7211 19.6376 77.1698 19.8023C76.6184 19.9671 75.9681 20.0477 75.2223 20.0477C74.5473 20.0477 73.8828 19.9636 73.2325 19.7918C72.5786 19.6201 71.999 19.3221 71.49 18.8945C70.9811 18.4668 70.5675 17.8955 70.253 17.1769C69.9384 16.4583 69.7794 15.5505 69.7794 14.4533C69.7794 13.556 69.9207 12.7848 70.2 12.1364C70.4792 11.4879 70.8538 10.9516 71.3204 10.5239C71.7869 10.0963 72.3135 9.78433 72.9038 9.58453C73.4905 9.38473 74.0949 9.28658 74.7134 9.28658C75.5157 9.28658 76.1978 9.41277 76.7598 9.66165C77.3182 9.91052 77.7741 10.247 78.1276 10.6641C78.4775 11.0848 78.732 11.565 78.891 12.1048C79.0501 12.6446 79.1278 13.216 79.1278 13.8119V14.1098C79.1278 14.2255 79.1243 14.3447 79.1172 14.4744C79.1101 14.604 79.1031 14.7267 79.096 14.8494C79.0889 14.9721 79.0783 15.0667 79.0642 15.1368H72.7129C72.7695 15.9185 73.0169 16.5705 73.4481 17.0893C73.8651 17.6151 74.5508 17.8709 75.4874 17.8709ZM76.4664 13.5385C76.4664 12.8549 76.3321 12.3011 76.067 11.8735C75.7984 11.4458 75.3213 11.232 74.6285 11.232C74.0383 11.232 73.5647 11.4353 73.2113 11.8419C72.8578 12.2485 72.6811 12.8129 72.6811 13.5385H76.4664ZM84.2102 10.5835C84.2951 10.4573 84.4117 10.3136 84.5531 10.1594C84.698 10.0052 84.8712 9.86145 85.0797 9.73526C85.2882 9.60907 85.518 9.5004 85.7689 9.41628C86.0199 9.33215 86.2885 9.29009 86.5747 9.29009C86.7479 9.29009 86.9282 9.30411 87.1226 9.33215C87.317 9.36019 87.4972 9.41277 87.6598 9.48989C87.8259 9.567 87.9567 9.67216 88.0592 9.80887C88.1582 9.94207 88.2112 10.1103 88.2112 10.3066C88.2112 10.6186 88.1334 10.9726 87.9744 11.3757C87.8153 11.7788 87.6598 12.1223 87.5008 12.4063C87.2569 12.2065 87.013 12.0557 86.7691 11.9471C86.5253 11.8419 86.239 11.7858 85.9068 11.7858C85.4614 11.7858 85.0903 11.9155 84.7864 12.1714C84.4859 12.4273 84.334 12.7357 84.334 13.0933V20.0056H81.4075V9.58804C81.4782 9.57401 81.5665 9.55999 81.6655 9.54597C81.7503 9.53195 81.8528 9.52144 81.9659 9.51443C82.079 9.50742 82.2169 9.50391 82.3759 9.50391C82.8354 9.50391 83.2348 9.59154 83.5705 9.7668C83.9134 9.94557 84.1254 10.2155 84.2102 10.5835ZM92.5337 10.5835C92.6185 10.4573 92.7352 10.3136 92.8766 10.1594C93.0215 10.0052 93.1946 9.86145 93.4032 9.73526C93.6117 9.60907 93.8414 9.5004 94.0924 9.41628C94.3433 9.33215 94.6119 9.29009 94.8982 9.29009C95.0714 9.29009 95.2517 9.30411 95.446 9.33215C95.6404 9.36019 95.8207 9.41277 95.9833 9.48989C96.1494 9.567 96.2802 9.67216 96.3827 9.80887C96.4816 9.94207 96.5346 10.1103 96.5346 10.3066C96.5346 10.6186 96.4569 10.9726 96.2978 11.3757C96.1388 11.7788 95.9833 12.1223 95.8242 12.4063C95.5804 12.2065 95.3365 12.0557 95.0926 11.9471C94.8487 11.8419 94.5625 11.7858 94.2302 11.7858C93.7849 11.7858 93.4138 11.9155 93.1098 12.1714C92.8094 12.4273 92.6574 12.7357 92.6574 13.0933V20.0056H89.731V9.58804C89.8016 9.57401 89.89 9.55999 89.989 9.54597C90.0738 9.53195 90.1763 9.52144 90.2894 9.51443C90.4025 9.50742 90.5403 9.50391 90.6994 9.50391C91.1588 9.50391 91.5582 9.59154 91.894 9.7668C92.2368 9.94557 92.4489 10.2155 92.5337 10.5835ZM106.505 17.212C106.505 18.3371 106.671 19.1539 107 19.6656C106.742 19.7638 106.502 19.8374 106.279 19.8794C106.056 19.9215 105.823 19.9425 105.579 19.9425C105.063 19.9425 104.671 19.8444 104.406 19.6446C104.141 19.4448 103.971 19.1609 103.9 18.7893C103.586 19.1188 103.169 19.3957 102.653 19.6236C102.137 19.8514 101.504 19.9636 100.758 19.9636C100.369 19.9636 99.9842 19.911 99.5954 19.8023C99.2066 19.6972 98.8567 19.5219 98.5422 19.2801C98.2276 19.0382 97.9696 18.7157 97.7681 18.3126C97.5667 17.9095 97.4677 17.4153 97.4677 16.8334C97.4677 16.1113 97.6444 15.5189 97.9943 15.0667C98.3442 14.6111 98.786 14.2535 99.3197 13.9906C99.8499 13.7277 100.426 13.549 101.041 13.4473C101.659 13.3492 102.225 13.2861 102.741 13.2545C102.914 13.2405 103.08 13.2335 103.246 13.2335H103.709V12.8444C103.709 12.2976 103.561 11.9085 103.268 11.6772C102.974 11.4458 102.497 11.3301 101.836 11.3301C101.218 11.3301 100.67 11.4283 100.189 11.6281C99.7085 11.8279 99.2384 12.0557 98.779 12.3116C98.5775 12.0698 98.4149 11.8034 98.2948 11.5124C98.1746 11.2215 98.111 11.0042 98.111 10.8604C98.111 10.6606 98.2205 10.4679 98.4432 10.2856C98.6659 10.0998 98.9698 9.93506 99.3586 9.78433C99.7474 9.6336 100.189 9.51443 100.695 9.41978C101.196 9.32865 101.727 9.27957 102.289 9.27957C103.063 9.27957 103.72 9.35669 104.257 9.51443C104.794 9.67216 105.233 9.91402 105.569 10.24C105.904 10.5695 106.145 10.9761 106.29 11.4668C106.434 11.9576 106.505 12.5324 106.505 13.1844V17.212ZM103.748 14.7337H103.448C103.345 14.7337 103.246 14.7408 103.147 14.7548C102.787 14.7828 102.434 14.8249 102.08 14.8845C101.727 14.9406 101.416 15.0422 101.143 15.1824C100.871 15.3261 100.649 15.5084 100.475 15.7362C100.302 15.9641 100.217 16.255 100.217 16.6126C100.217 17.0122 100.334 17.3487 100.56 17.6256C100.786 17.9025 101.179 18.0427 101.723 18.0427C101.995 18.0427 102.253 18.0076 102.497 17.9375C102.741 17.8674 102.957 17.7728 103.144 17.6606C103.331 17.545 103.476 17.4223 103.586 17.2856C103.692 17.1524 103.748 17.0262 103.748 16.9105V14.7337Z" fill="#19153E"/>
<path d="M1 9.54191L10.716 9.54541H16.622V3.74072L1 9.54191Z" fill="#FF9D28"/>
<path d="M16.6211 3.7411V24.2328L24.0009 1L16.6211 3.7411Z" fill="#68C5ED"/>
<path d="M16.6208 9.5459H10.7148L16.6208 24.2329V9.5459Z" fill="#044D80"/>
<path d="M1 9.54199L12.2287 13.3136L10.7125 9.5455L1 9.54199Z" fill="#E54747"/>
</g>
<defs>
<clipPath id="clip0">
<rect width="600" height="418" fill="white" transform="translate(-218 -107)"/>
</clipPath>
</defs>
</svg>
