<svg width="68" height="68" viewBox="0 0 68 68" fill="none" xmlns="http://www.w3.org/2000/svg">
<path opacity="0.50086" d="M34 67C33.4983 67 32.9993 66.9888 32.5032 66.9667L32.4587 67.9657C28.9483 67.8091 25.5763 67.1201 22.4216 65.9777L22.7621 65.0374C21.821 64.6966 20.8997 64.3141 20.0006 63.8923L19.5758 64.7976C16.4527 63.3323 13.5889 61.406 11.072 59.1062L11.7466 58.368C11.0104 57.6953 10.3047 56.9896 9.632 56.2534L8.89377 56.928C6.59402 54.4111 4.66768 51.5473 3.20241 48.4242L4.10772 47.9994C3.68587 47.1003 3.30342 46.179 2.96258 45.2379L2.02234 45.5784C0.879867 42.4237 0.190934 39.0517 0.0343143 35.5413L1.03332 35.4968C1.01119 35.0007 1 34.5017 1 34C1 33.4983 1.01119 32.9993 1.03332 32.5032L0.0343143 32.4587C0.190934 28.9483 0.879867 25.5763 2.02234 22.4216L2.96258 22.7621C3.30342 21.821 3.68587 20.8997 4.10772 20.0006L3.20241 19.5758C4.66767 16.4527 6.59402 13.5889 8.89377 11.072L9.63199 11.7466C10.3047 11.0104 11.0104 10.3047 11.7466 9.632L11.072 8.89377C13.5889 6.59402 16.4527 4.66767 19.5758 3.20241L20.0006 4.10772C20.8997 3.68587 21.821 3.30342 22.7621 2.96258L22.4216 2.02234C25.5763 0.879867 28.9483 0.190934 32.4587 0.0343143L32.5032 1.03332C32.9993 1.01119 33.4983 1 34 1C34.5017 1 35.0007 1.01119 35.4968 1.03332L35.5413 0.0343142C39.0517 0.190934 42.4237 0.879867 45.5784 2.02234L45.2379 2.96258C46.179 3.30342 47.1003 3.68587 47.9994 4.10772L48.4242 3.20241C51.5473 4.66767 54.4111 6.59402 56.928 8.89377L56.2534 9.63199C56.9896 10.3047 57.6953 11.0104 58.368 11.7466L59.1062 11.072C61.406 13.5889 63.3323 16.4527 64.7976 19.5758L63.8923 20.0006C64.3141 20.8997 64.6966 21.821 65.0374 22.7621L65.9777 22.4216C67.1201 25.5763 67.8091 28.9483 67.9657 32.4587L66.9667 32.5032C66.9888 32.9993 67 33.4983 67 34C67 34.5017 66.9888 35.0007 66.9667 35.4968L67.9657 35.5413C67.8091 39.0517 67.1201 42.4237 65.9777 45.5784L65.0374 45.2379C64.6966 46.179 64.3141 47.1003 63.8923 47.9994L64.7976 48.4242C63.3323 51.5473 61.406 54.4111 59.1062 56.928L58.368 56.2534C57.6953 56.9896 56.9896 57.6953 56.2534 58.368L56.928 59.1062C54.4111 61.406 51.5473 63.3323 48.4242 64.7976L47.9994 63.8923C47.1003 64.3141 46.179 64.6966 45.2379 65.0374L45.5784 65.9777C42.4237 67.1201 39.0517 67.8091 35.5413 67.9657L35.4968 66.9667C35.0007 66.9888 34.5017 67 34 67Z" stroke="#027BF3" stroke-width="2" stroke-dasharray="3 10"/>
<path d="M33.6259 62.0223C48.8956 62.0223 61.2742 49.6437 61.2742 34.3739C61.2742 19.1042 48.8956 6.72559 33.6259 6.72559C18.3561 6.72559 5.97754 19.1042 5.97754 34.3739C5.97754 49.6437 18.3561 62.0223 33.6259 62.0223Z" fill="#027BF3"/>
<path d="M46.5834 32.3721V41.877C46.5834 42.2023 46.8726 42.4518 47.1945 42.4049C53.2982 41.5148 53.2995 32.6926 47.1899 31.844C46.8693 31.7995 46.5834 32.0485 46.5834 32.3721Z" stroke="white" stroke-width="2"/>
<path d="M21.9732 32.3721V41.877C21.9732 42.2023 21.6841 42.4518 21.3621 42.4049C15.2584 41.5148 15.2572 32.6926 21.3668 31.844C21.6873 31.7995 21.9732 32.0485 21.9732 32.3721Z" stroke="white" stroke-width="2"/>
<path d="M20.4023 31.7596V31.7596C22.7226 15.3279 46.659 15.2582 48.4161 31.7596V31.7596" stroke="white" stroke-width="2"/>
<path d="M46.5835 42.2324V42.2324C45.1615 47.2885 40.7945 50.9624 35.5696 51.4983L34.9291 51.564C34.4409 51.6141 34.0166 51.2311 34.0166 50.7404V49.4602C34.0166 47.9265 35.2599 46.6832 36.7936 46.6832H38.6314C39.7236 46.6832 40.6091 47.5687 40.6091 48.661V49.3013" stroke="white" stroke-width="2"/>
</svg>
