<svg width="167" height="126" viewBox="0 0 167 126" fill="none" xmlns="http://www.w3.org/2000/svg">
<g filter="url(#filter0_d)">
<rect x="3" y="2" width="160" height="118" rx="1.69153" fill="white"/>
<rect x="3.24277" y="2.24277" width="159.514" height="117.514" rx="1.44877" stroke="#DED3EB" stroke-width="0.485533"/>
</g>
<path d="M17.2693 18.0721H16.1394V20.0181H15.5018V15.2078H17.0942C17.6361 15.2078 18.0523 15.3311 18.3431 15.5778C18.636 15.8245 18.7825 16.1835 18.7825 16.6548C18.7825 16.9544 18.701 17.2154 18.538 17.4378C18.3772 17.6603 18.1525 17.8266 17.864 17.9367L18.9939 19.9784V20.0181H18.3133L17.2693 18.0721ZM16.1394 17.5534H17.1141C17.429 17.5534 17.679 17.472 17.864 17.309C18.0512 17.146 18.1448 16.9279 18.1448 16.6548C18.1448 16.3575 18.0556 16.1295 17.8772 15.9709C17.701 15.8124 17.4455 15.732 17.1108 15.7298H16.1394V17.5534ZM21.0621 20.0841C20.5775 20.0841 20.1833 19.9256 19.8793 19.6084C19.5754 19.289 19.4234 18.8628 19.4234 18.3298V18.2175C19.4234 17.8629 19.4906 17.5468 19.6249 17.2693C19.7615 16.9896 19.9509 16.7716 20.1932 16.6152C20.4377 16.4566 20.702 16.3773 20.9861 16.3773C21.4508 16.3773 21.812 16.5304 22.0697 16.8365C22.3274 17.1427 22.4563 17.581 22.4563 18.1514V18.4058H20.0346C20.0434 18.7582 20.1458 19.0435 20.3418 19.2615C20.5401 19.4773 20.7912 19.5853 21.0951 19.5853C21.311 19.5853 21.4938 19.5412 21.6435 19.4531C21.7933 19.365 21.9244 19.2483 22.0367 19.1029L22.41 19.3937C22.1105 19.854 21.6612 20.0841 21.0621 20.0841ZM20.9861 16.8795C20.7394 16.8795 20.5324 16.9698 20.365 17.1504C20.1976 17.3288 20.0941 17.5799 20.0544 17.9036H21.8451V17.8574C21.8274 17.5468 21.7438 17.3068 21.594 17.1372C21.4442 16.9654 21.2416 16.8795 20.9861 16.8795ZM24.2998 19.1888L25.1852 16.4434H25.8096L24.5277 20.0181H24.0619L22.7668 16.4434H23.3912L24.2998 19.1888ZM27.8348 20.0841C27.3503 20.0841 26.956 19.9256 26.6521 19.6084C26.3481 19.289 26.1961 18.8628 26.1961 18.3298V18.2175C26.1961 17.8629 26.2633 17.5468 26.3977 17.2693C26.5342 16.9896 26.7236 16.7716 26.9659 16.6152C27.2104 16.4566 27.4747 16.3773 27.7588 16.3773C28.2236 16.3773 28.5848 16.5304 28.8425 16.8365C29.1002 17.1427 29.229 17.581 29.229 18.1514V18.4058H26.8073C26.8162 18.7582 26.9186 19.0435 27.1146 19.2615C27.3128 19.4773 27.5639 19.5853 27.8679 19.5853C28.0837 19.5853 28.2665 19.5412 28.4163 19.4531C28.5661 19.365 28.6971 19.2483 28.8094 19.1029L29.1828 19.3937C28.8832 19.854 28.4339 20.0841 27.8348 20.0841ZM27.7588 16.8795C27.5121 16.8795 27.3051 16.9698 27.1377 17.1504C26.9703 17.3288 26.8668 17.5799 26.8272 17.9036H28.6178V17.8574C28.6002 17.5468 28.5165 17.3068 28.3667 17.1372C28.217 16.9654 28.0143 16.8795 27.7588 16.8795ZM30.5175 16.4434L30.5373 16.8927C30.8104 16.5491 31.1672 16.3773 31.6077 16.3773C32.3632 16.3773 32.7442 16.8035 32.7508 17.6559V20.0181H32.1396V17.6526C32.1374 17.3949 32.078 17.2043 31.9612 17.081C31.8467 16.9577 31.6672 16.896 31.4227 16.896C31.2245 16.896 31.0505 16.9489 30.9007 17.0546C30.751 17.1603 30.6342 17.2991 30.5505 17.4709V20.0181H29.9393V16.4434H30.5175ZM35.8795 19.6646C35.6416 19.9443 35.2925 20.0841 34.8322 20.0841C34.4512 20.0841 34.1605 19.974 33.96 19.7538C33.7618 19.5313 33.6616 19.2031 33.6594 18.7692V16.4434H34.2706V18.7527C34.2706 19.2945 34.4908 19.5654 34.9313 19.5654C35.3983 19.5654 35.7088 19.3914 35.863 19.0435V16.4434H36.4742V20.0181H35.8927L35.8795 19.6646ZM38.8893 20.0841C38.4047 20.0841 38.0105 19.9256 37.7065 19.6084C37.4026 19.289 37.2506 18.8628 37.2506 18.3298V18.2175C37.2506 17.8629 37.3178 17.5468 37.4521 17.2693C37.5887 16.9896 37.7781 16.7716 38.0204 16.6152C38.2648 16.4566 38.5291 16.3773 38.8133 16.3773C39.278 16.3773 39.6392 16.5304 39.8969 16.8365C40.1546 17.1427 40.2835 17.581 40.2835 18.1514V18.4058H37.8618C37.8706 18.7582 37.973 19.0435 38.169 19.2615C38.3673 19.4773 38.6183 19.5853 38.9223 19.5853C39.1381 19.5853 39.321 19.5412 39.4707 19.4531C39.6205 19.365 39.7515 19.2483 39.8639 19.1029L40.2372 19.3937C39.9377 19.854 39.4883 20.0841 38.8893 20.0841ZM38.8133 16.8795C38.5666 16.8795 38.3596 16.9698 38.1922 17.1504C38.0248 17.3288 37.9213 17.5799 37.8816 17.9036H39.6723V17.8574C39.6546 17.5468 39.5709 17.3068 39.4212 17.1372C39.2714 16.9654 39.0688 16.8795 38.8133 16.8795ZM45.6983 18.2704C45.6983 18.8166 45.5728 19.256 45.3217 19.5886C45.0706 19.919 44.7336 20.0841 44.3108 20.0841C43.8592 20.0841 43.5101 19.9245 43.2635 19.6051L43.2337 20.0181H42.6721V14.9435H43.2833V16.8365C43.53 16.5304 43.8703 16.3773 44.3042 16.3773C44.738 16.3773 45.0783 16.5414 45.325 16.8696C45.5739 17.1977 45.6983 17.6471 45.6983 18.2175V18.2704ZM45.0871 18.201C45.0871 17.7847 45.0068 17.4631 44.846 17.2363C44.6852 17.0094 44.4539 16.896 44.1522 16.896C43.7491 16.896 43.4595 17.0832 43.2833 17.4576V19.0038C43.4705 19.3782 43.7623 19.5654 44.1588 19.5654C44.4517 19.5654 44.6797 19.452 44.8427 19.2252C45.0057 18.9983 45.0871 18.6569 45.0871 18.201ZM48.1993 16.9918C48.1068 16.9764 48.0066 16.9687 47.8987 16.9687C47.4978 16.9687 47.2258 17.1394 47.0826 17.4808V20.0181H46.4714V16.4434H47.0661L47.076 16.8564C47.2765 16.537 47.5606 16.3773 47.9284 16.3773C48.0473 16.3773 48.1376 16.3927 48.1993 16.4236V16.9918ZM50.1816 20.0841C49.697 20.0841 49.3028 19.9256 48.9988 19.6084C48.6949 19.289 48.5429 18.8628 48.5429 18.3298V18.2175C48.5429 17.8629 48.6101 17.5468 48.7444 17.2693C48.881 16.9896 49.0704 16.7716 49.3127 16.6152C49.5572 16.4566 49.8215 16.3773 50.1056 16.3773C50.5703 16.3773 50.9315 16.5304 51.1892 16.8365C51.4469 17.1427 51.5758 17.581 51.5758 18.1514V18.4058H49.1541C49.1629 18.7582 49.2653 19.0435 49.4614 19.2615C49.6596 19.4773 49.9107 19.5853 50.2146 19.5853C50.4305 19.5853 50.6133 19.5412 50.763 19.4531C50.9128 19.365 51.0439 19.2483 51.1562 19.1029L51.5295 19.3937C51.23 19.854 50.7807 20.0841 50.1816 20.0841ZM50.1056 16.8795C49.8589 16.8795 49.6519 16.9698 49.4845 17.1504C49.3171 17.3288 49.2136 17.5799 49.1739 17.9036H50.9646V17.8574C50.9469 17.5468 50.8633 17.3068 50.7135 17.1372C50.5637 16.9654 50.3611 16.8795 50.1056 16.8795ZM54.493 20.0181C54.4578 19.9476 54.4291 19.822 54.4071 19.6414C54.123 19.9366 53.7838 20.0841 53.3895 20.0841C53.0371 20.0841 52.7475 19.985 52.5206 19.7868C52.296 19.5864 52.1837 19.3331 52.1837 19.0269C52.1837 18.6547 52.3246 18.3662 52.6065 18.1613C52.8907 17.9543 53.2893 17.8508 53.8025 17.8508H54.3972V17.57C54.3972 17.3563 54.3333 17.1867 54.2056 17.0612C54.0778 16.9334 53.8895 16.8696 53.6406 16.8696C53.4226 16.8696 53.2398 16.9246 53.0922 17.0348C52.9446 17.1449 52.8708 17.2781 52.8708 17.4345H52.2563C52.2563 17.2561 52.3191 17.0843 52.4447 16.9191C52.5724 16.7517 52.7442 16.6196 52.9601 16.5227C53.1781 16.4258 53.4171 16.3773 53.677 16.3773C54.0888 16.3773 54.4115 16.4808 54.645 16.6879C54.8784 16.8927 54.9996 17.1757 55.0084 17.5369V19.1822C55.0084 19.5104 55.0502 19.7714 55.1339 19.9652V20.0181H54.493ZM53.4787 19.5522C53.6704 19.5522 53.8521 19.5027 54.0239 19.4036C54.1957 19.3045 54.3201 19.1756 54.3972 19.017V18.2836H53.9181C53.1693 18.2836 52.7949 18.5027 52.7949 18.941C52.7949 19.1327 52.8587 19.2824 52.9865 19.3903C53.1142 19.4983 53.2783 19.5522 53.4787 19.5522ZM56.9642 18.3629L56.581 18.7626V20.0181H55.9698V14.9435H56.581V18.0127L56.9081 17.6195L58.0214 16.4434H58.7648L57.3739 17.9367L58.9267 20.0181H58.2098L56.9642 18.3629ZM59.1811 18.201C59.1811 17.6526 59.311 17.2121 59.5709 16.8795C59.8308 16.5447 60.1711 16.3773 60.5918 16.3773C61.0103 16.3773 61.3417 16.5205 61.5862 16.8068V14.9435H62.1974V20.0181H61.6358L61.606 19.6348C61.3616 19.9344 61.0213 20.0841 60.5852 20.0841C60.1711 20.0841 59.833 19.9145 59.5709 19.5754C59.311 19.2362 59.1811 18.7935 59.1811 18.2472V18.201ZM59.7923 18.2704C59.7923 18.6756 59.876 18.9928 60.0434 19.2219C60.2107 19.4509 60.442 19.5654 60.7371 19.5654C61.1248 19.5654 61.4078 19.3914 61.5862 19.0435V17.4015C61.4034 17.0645 61.1226 16.896 60.7438 16.896C60.4442 16.896 60.2107 17.0116 60.0434 17.2429C59.876 17.4742 59.7923 17.8166 59.7923 18.2704ZM62.987 18.1977C62.987 17.8475 63.0553 17.5325 63.1919 17.2528C63.3306 16.9731 63.5222 16.7572 63.7667 16.6053C64.0134 16.4533 64.2942 16.3773 64.6092 16.3773C65.0959 16.3773 65.4891 16.5458 65.7886 16.8828C66.0904 17.2198 66.2412 17.668 66.2412 18.2274V18.2704C66.2412 18.6184 66.1741 18.9311 66.0397 19.2086C65.9076 19.484 65.717 19.6987 65.4682 19.8529C65.2215 20.0071 64.9373 20.0841 64.6158 20.0841C64.1312 20.0841 63.7381 19.9156 63.4363 19.5787C63.1368 19.2417 62.987 18.7957 62.987 18.2406V18.1977ZM63.6015 18.2704C63.6015 18.6668 63.6929 18.9851 63.8757 19.2252C64.0607 19.4652 64.3074 19.5853 64.6158 19.5853C64.9263 19.5853 65.173 19.4641 65.3558 19.2219C65.5386 18.9774 65.63 18.636 65.63 18.1977C65.63 17.8056 65.5364 17.4885 65.3492 17.2462C65.1642 17.0017 64.9175 16.8795 64.6092 16.8795C64.3074 16.8795 64.0641 16.9995 63.879 17.2396C63.694 17.4797 63.6015 17.8233 63.6015 18.2704ZM70.1727 19.1756L70.8599 16.4434H71.4711L70.4304 20.0181H69.9349L69.066 17.309L68.2202 20.0181H67.7246L66.6873 16.4434H67.2951L67.9989 19.1194L68.8314 16.4434H69.3237L70.1727 19.1756ZM72.6737 16.4434L72.6935 16.8927C72.9666 16.5491 73.3234 16.3773 73.7639 16.3773C74.5194 16.3773 74.9004 16.8035 74.9071 17.6559V20.0181H74.2959V17.6526C74.2936 17.3949 74.2342 17.2043 74.1174 17.081C74.0029 16.9577 73.8234 16.896 73.5789 16.896C73.3807 16.896 73.2067 16.9489 73.0569 17.0546C72.9072 17.1603 72.7904 17.2991 72.7067 17.4709V20.0181H72.0955V16.4434H72.6737Z" fill="#323541"/>
<path d="M82.4663 28.0194C76.3895 27.9436 70.426 29.667 65.3301 32.9717C60.2341 36.2763 56.2345 41.0138 53.837 46.585C51.4395 52.1562 50.7518 58.311 51.8609 64.2709C52.97 70.2309 55.8261 75.7284 60.0679 80.0682L65.349 74.9321C62.1252 71.6338 59.9546 67.4557 59.1117 62.9261C58.2687 58.3966 58.7914 53.719 60.6135 49.4848C62.4356 45.2507 65.4753 41.6502 69.3482 39.1387C73.2212 36.6272 77.7534 35.3174 82.3718 35.375L82.4663 28.0194Z" fill="#FFD100"/>
<path d="M82.4663 28.0194C78.4315 27.9691 74.4259 28.712 70.6784 30.2057C66.9309 31.6994 63.5148 33.9147 60.6251 36.7251L65.7725 41.9913C67.9686 39.8554 70.5648 38.1718 73.4129 37.0366C76.2611 35.9014 79.3053 35.3367 82.3718 35.375L82.4663 28.0194Z" fill="#6239B5"/>
<path d="M82.4663 28.0194C78.4315 27.9691 74.4259 28.712 70.6784 30.2057C66.9309 31.6994 63.5148 33.9147 60.6251 36.7251L65.7725 41.9913C67.9686 39.8554 70.5648 38.1718 73.4129 37.0366C76.2611 35.9014 79.3053 35.3367 82.3718 35.375L82.4663 28.0194Z" fill="#FF5119"/>
<path d="M92.2104 87.5987C86.6594 89.5357 80.6682 89.8434 74.9481 88.4853C69.228 87.1272 64.0193 84.1603 59.9402 79.9367L65.2519 74.8321C68.352 78.042 72.3107 80.2969 76.6579 81.3291C81.0052 82.3612 85.5585 82.1274 89.7772 80.6552L92.2104 87.5987Z" fill="#323541"/>
<path d="M92.2104 87.5987C86.6594 89.5357 80.6682 89.8434 74.9481 88.4853C69.228 87.1272 64.0193 84.1603 59.9402 79.9367L65.2519 74.8321C68.352 78.042 72.3107 80.2969 76.6579 81.3291C81.0052 82.3612 85.5585 82.1274 89.7772 80.6552L92.2104 87.5987Z" fill="url(#paint0_linear)" fill-opacity="0.3"/>
<path d="M92.2104 87.5987C86.6594 89.5357 80.6682 89.8434 74.9481 88.4853C69.228 87.1272 64.0193 84.1603 59.9402 79.9367L65.2519 74.8321C68.352 78.042 72.3107 80.2969 76.6579 81.3291C81.0052 82.3612 85.5585 82.1274 89.7772 80.6552L92.2104 87.5987Z" fill="#7E298C"/>
<path d="M76.3889 88.7912C80.5787 89.5765 84.8868 89.4833 89.0392 88.5178C93.1916 87.5522 97.0974 85.7353 100.508 83.1827C103.919 80.63 106.76 77.3974 108.851 73.6905C110.942 69.9836 112.237 65.8835 112.653 61.6509C113.069 57.4184 112.598 53.146 111.269 49.1055C109.94 45.065 107.783 41.3448 104.935 38.1815C102.086 35.0182 98.6086 32.481 94.7233 30.7313C90.8379 28.9816 86.6299 28.0577 82.3666 28.0183L82.266 38.5008C85.0711 38.5267 87.84 39.1347 90.3965 40.2859C92.9529 41.4372 95.2411 43.1066 97.1154 45.188C98.9897 47.2694 100.409 49.7173 101.283 52.3759C102.158 55.0345 102.468 57.8456 102.194 60.6306C101.92 63.4156 101.068 66.1134 99.6923 68.5525C98.3166 70.9916 96.4471 73.1186 94.2029 74.7982C91.9586 76.4778 89.3887 77.6733 86.6565 78.3086C83.9242 78.9439 81.0896 79.0052 78.3327 78.4885L76.3889 88.7912Z" fill="#007EF2"/>
<path d="M76.3889 88.7912C80.5787 89.5765 84.8868 89.4833 89.0392 88.5178C93.1916 87.5522 97.0974 85.7353 100.508 83.1827C103.919 80.63 106.76 77.3974 108.851 73.6905C110.942 69.9836 112.237 65.8835 112.653 61.6509C113.069 57.4184 112.598 53.146 111.269 49.1055C109.94 45.065 107.783 41.3448 104.935 38.1815C102.086 35.0182 98.6086 32.481 94.7233 30.7313C90.8379 28.9816 86.6299 28.0577 82.3666 28.0183L82.266 38.5008C85.0711 38.5267 87.84 39.1347 90.3965 40.2859C92.9529 41.4372 95.2411 43.1066 97.1154 45.188C98.9897 47.2694 100.409 49.7173 101.283 52.3759C102.158 55.0345 102.468 57.8456 102.194 60.6306C101.92 63.4156 101.068 66.1134 99.6923 68.5525C98.3166 70.9916 96.4471 73.1186 94.2029 74.7982C91.9586 76.4778 89.3887 77.6733 86.6565 78.3086C83.9242 78.9439 81.0896 79.0052 78.3327 78.4885L76.3889 88.7912Z" fill="#0097E2"/>
<path d="M26.4842 100.976C26.0762 100.859 25.7788 100.715 25.5922 100.545C25.4072 100.373 25.3146 100.162 25.3146 99.9109C25.3146 99.6268 25.4278 99.3922 25.6541 99.2072C25.8821 99.0205 26.1778 98.9272 26.5412 98.9272C26.789 98.9272 27.0095 98.9751 27.2028 99.0709C27.3977 99.1667 27.548 99.2989 27.6537 99.4674C27.7611 99.6359 27.8148 99.82 27.8148 100.02H27.3366C27.3366 99.8019 27.2672 99.6309 27.1284 99.507C26.9897 99.3815 26.7939 99.3187 26.5412 99.3187C26.3066 99.3187 26.1232 99.3707 25.9911 99.4748C25.8606 99.5772 25.7953 99.7201 25.7953 99.9035C25.7953 100.05 25.8573 100.175 25.9812 100.278C26.1067 100.378 26.319 100.471 26.618 100.555C26.9186 100.639 27.1532 100.733 27.3217 100.835C27.4918 100.936 27.6174 101.054 27.6983 101.189C27.7809 101.325 27.8222 101.484 27.8222 101.668C27.8222 101.96 27.7082 102.195 27.4803 102.371C27.2523 102.546 26.9475 102.634 26.566 102.634C26.3182 102.634 26.0869 102.587 25.8722 102.493C25.6574 102.397 25.4914 102.266 25.3741 102.101C25.2585 101.936 25.2007 101.749 25.2007 101.539H25.6789C25.6789 101.757 25.759 101.929 25.9192 102.057C26.0811 102.182 26.2967 102.245 26.566 102.245C26.817 102.245 27.0095 102.194 27.1433 102.091C27.2771 101.989 27.344 101.849 27.344 101.673C27.344 101.496 27.282 101.36 27.1582 101.264C27.0343 101.166 26.8096 101.071 26.4842 100.976ZM30.0176 102.584C29.9911 102.532 29.9697 102.437 29.9532 102.302C29.7401 102.523 29.4857 102.634 29.19 102.634C28.9257 102.634 28.7085 102.56 28.5383 102.411C28.3698 102.261 28.2856 102.071 28.2856 101.841C28.2856 101.562 28.3913 101.346 28.6027 101.192C28.8158 101.037 29.1148 100.959 29.4997 100.959H29.9457V100.748C29.9457 100.588 29.8978 100.461 29.802 100.367C29.7062 100.271 29.565 100.223 29.3783 100.223C29.2148 100.223 29.0777 100.264 28.967 100.347C28.8563 100.43 28.801 100.53 28.801 100.647H28.3401C28.3401 100.513 28.3872 100.384 28.4813 100.26C28.5771 100.135 28.706 100.036 28.8679 99.9629C29.0314 99.8902 29.2106 99.8539 29.4056 99.8539C29.7145 99.8539 29.9565 99.9315 30.1316 100.087C30.3067 100.24 30.3975 100.453 30.4041 100.724V101.958C30.4041 102.204 30.4355 102.399 30.4983 102.545V102.584H30.0176ZM29.2569 102.235C29.4006 102.235 29.5369 102.198 29.6657 102.124C29.7946 102.049 29.8879 101.953 29.9457 101.834V101.284H29.5864C29.0248 101.284 28.744 101.448 28.744 101.777C28.744 101.92 28.7919 102.033 28.8877 102.114C28.9835 102.195 29.1066 102.235 29.2569 102.235ZM31.6207 102.584H31.1623V98.7785H31.6207V102.584ZM33.4692 102.634C33.1058 102.634 32.8101 102.515 32.5821 102.277C32.3542 102.038 32.2402 101.718 32.2402 101.318V101.234C32.2402 100.968 32.2906 100.731 32.3913 100.523C32.4938 100.313 32.6358 100.15 32.8175 100.032C33.0009 99.9134 33.1991 99.8539 33.4122 99.8539C33.7608 99.8539 34.0317 99.9687 34.2249 100.198C34.4182 100.428 34.5148 100.757 34.5148 101.184V101.375H32.6986C32.7052 101.64 32.782 101.854 32.929 102.017C33.0777 102.179 33.266 102.26 33.494 102.26C33.6559 102.26 33.793 102.227 33.9053 102.161C34.0176 102.095 34.1159 102.007 34.2002 101.898L34.4802 102.116C34.2555 102.461 33.9185 102.634 33.4692 102.634ZM33.4122 100.231C33.2272 100.231 33.0719 100.298 32.9464 100.434C32.8208 100.568 32.7432 100.756 32.7135 100.999H34.0564V100.964C34.0432 100.731 33.9805 100.551 33.8681 100.424C33.7558 100.295 33.6038 100.231 33.4122 100.231ZM36.6086 101.873C36.6086 101.749 36.5615 101.654 36.4674 101.586C36.3749 101.517 36.2122 101.457 35.9792 101.408C35.748 101.358 35.5638 101.298 35.4267 101.229C35.2912 101.16 35.1905 101.077 35.1244 100.981C35.06 100.886 35.0278 100.772 35.0278 100.639C35.0278 100.42 35.1203 100.234 35.3053 100.082C35.4919 99.9299 35.7298 99.8539 36.0189 99.8539C36.3228 99.8539 36.569 99.9324 36.7573 100.089C36.9473 100.246 37.0422 100.447 37.0422 100.691H36.5814C36.5814 100.566 36.5277 100.458 36.4203 100.367C36.3146 100.276 36.1808 100.231 36.0189 100.231C35.852 100.231 35.7215 100.267 35.6274 100.34C35.5332 100.412 35.4862 100.507 35.4862 100.625C35.4862 100.735 35.5299 100.819 35.6175 100.875C35.705 100.931 35.8628 100.985 36.0907 101.036C36.3204 101.087 36.5062 101.148 36.6483 101.219C36.7903 101.29 36.8952 101.376 36.9629 101.477C37.0323 101.576 37.067 101.697 37.067 101.841C37.067 102.081 36.9712 102.273 36.7796 102.418C36.588 102.562 36.3394 102.634 36.0338 102.634C35.819 102.634 35.629 102.596 35.4639 102.52C35.2987 102.444 35.169 102.338 35.0748 102.203C34.9823 102.066 34.9361 101.918 34.9361 101.759H35.3945C35.4027 101.913 35.4639 102.035 35.5778 102.126C35.6935 102.215 35.8454 102.26 36.0338 102.26C36.2072 102.26 36.346 102.225 36.45 102.156C36.5558 102.085 36.6086 101.991 36.6086 101.873Z" fill="#323541"/>
<path d="M56.6894 101.171V102.583H56.2137V98.9758H57.5443C57.9391 98.9758 58.248 99.0765 58.471 99.2781C58.6956 99.4796 58.808 99.7464 58.808 100.078C58.808 100.429 58.6981 100.699 58.4784 100.889C58.2604 101.077 57.9473 101.171 57.5393 101.171H56.6894ZM56.6894 100.782H57.5443C57.7987 100.782 57.9936 100.723 58.129 100.604C58.2645 100.483 58.3322 100.31 58.3322 100.083C58.3322 99.8686 58.2645 99.6968 58.129 99.568C57.9936 99.4391 57.8077 99.3722 57.5715 99.3673H56.6894V100.782ZM60.6391 100.314C60.5697 100.302 60.4945 100.296 60.4136 100.296C60.113 100.296 59.909 100.424 59.8016 100.681V102.583H59.3432V99.9025H59.7892L59.7966 100.212C59.9469 99.9727 60.16 99.8529 60.4359 99.8529C60.5251 99.8529 60.5928 99.8645 60.6391 99.8876V100.314ZM60.8918 101.218C60.8918 100.956 60.943 100.719 61.0455 100.51C61.1495 100.3 61.2932 100.138 61.4766 100.024C61.6616 99.9099 61.8722 99.8529 62.1084 99.8529C62.4735 99.8529 62.7684 99.9793 62.993 100.232C63.2193 100.485 63.3325 100.821 63.3325 101.241V101.273C63.3325 101.534 63.2821 101.768 63.1813 101.976C63.0822 102.183 62.9393 102.344 62.7527 102.46C62.5677 102.575 62.3546 102.633 62.1134 102.633C61.75 102.633 61.4551 102.507 61.2288 102.254C61.0042 102.001 60.8918 101.667 60.8918 101.25V101.218ZM61.3527 101.273C61.3527 101.57 61.4213 101.809 61.5584 101.989C61.6971 102.169 61.8821 102.259 62.1134 102.259C62.3463 102.259 62.5313 102.168 62.6684 101.986C62.8055 101.803 62.8741 101.547 62.8741 101.218C62.8741 100.924 62.8039 100.686 62.6635 100.505C62.5247 100.321 62.3397 100.23 62.1084 100.23C61.8821 100.23 61.6996 100.32 61.5608 100.5C61.4221 100.68 61.3527 100.937 61.3527 101.273ZM64.061 102.583V100.257H63.6373V99.9025H64.061V99.6745C64.061 99.3755 64.146 99.1426 64.3162 98.9758C64.488 98.8089 64.73 98.7255 65.0422 98.7255C65.2272 98.7255 65.461 98.7759 65.7434 98.8767L65.6666 99.2632C65.4601 99.1806 65.2635 99.1393 65.0769 99.1393C64.8803 99.1393 64.7382 99.1839 64.6507 99.2731C64.5648 99.3607 64.5219 99.4928 64.5219 99.6696V99.9025H65.0695V100.257H64.5219V102.583H64.061ZM65.9714 102.583H65.5105V99.9025H65.9714V102.583ZM67.3391 99.2533V99.9025H67.8397V100.257H67.3391V101.919C67.3391 102.027 67.3614 102.108 67.406 102.162C67.4507 102.215 67.5266 102.242 67.634 102.242C67.6869 102.242 67.7596 102.232 67.8521 102.212V102.583C67.7315 102.617 67.6142 102.633 67.5002 102.633C67.2954 102.633 67.1409 102.571 67.0369 102.447C66.9328 102.323 66.8807 102.147 66.8807 101.919V100.257H66.3926V99.9025H66.8807V99.2533H67.3391Z" fill="#323541"/>
<path d="M88.0135 101.642H86.502L86.1625 102.583H85.6719L87.0496 98.9758H87.4659L88.846 102.583H88.3579L88.0135 101.642ZM86.6457 101.25H87.8722L87.2577 99.563L86.6457 101.25ZM89.691 99.9025L89.7034 100.2C89.8999 99.9686 90.1651 99.8529 90.4987 99.8529C90.8737 99.8529 91.1289 99.9966 91.2644 100.284C91.3536 100.155 91.4692 100.051 91.6113 99.9719C91.755 99.8926 91.9243 99.8529 92.1192 99.8529C92.7073 99.8529 93.0063 100.164 93.0162 100.787V102.583H92.5578V100.814C92.5578 100.623 92.514 100.48 92.4265 100.386C92.3389 100.29 92.1919 100.242 91.9854 100.242C91.8153 100.242 91.6741 100.293 91.5617 100.396C91.4494 100.496 91.3842 100.633 91.366 100.804V102.583H90.9051V100.827C90.9051 100.437 90.7143 100.242 90.3327 100.242C90.0321 100.242 89.8264 100.37 89.7157 100.626V102.583H89.2573V99.9025H89.691ZM95.3652 102.583C95.3388 102.531 95.3173 102.436 95.3008 102.301C95.0877 102.522 94.8333 102.633 94.5376 102.633C94.2733 102.633 94.0561 102.559 93.8859 102.41C93.7174 102.26 93.6332 102.07 93.6332 101.84C93.6332 101.561 93.7389 101.345 93.9504 101.191C94.1635 101.036 94.4624 100.958 94.8473 100.958H95.2933V100.747C95.2933 100.587 95.2454 100.46 95.1496 100.366C95.0538 100.27 94.9126 100.222 94.7259 100.222C94.5624 100.222 94.4253 100.263 94.3146 100.346C94.2039 100.429 94.1486 100.529 94.1486 100.646H93.6877C93.6877 100.512 93.7348 100.383 93.8289 100.259C93.9248 100.134 94.0536 100.035 94.2155 99.9619C94.379 99.8893 94.5583 99.8529 94.7532 99.8529C95.0621 99.8529 95.3041 99.9306 95.4792 100.086C95.6543 100.239 95.7451 100.452 95.7517 100.723V101.957C95.7517 102.203 95.7831 102.398 95.8459 102.544V102.583H95.3652ZM94.6045 102.234C94.7482 102.234 94.8845 102.197 95.0134 102.123C95.1422 102.048 95.2355 101.952 95.2933 101.833V101.283H94.9341C94.3724 101.283 94.0916 101.447 94.0916 101.776C94.0916 101.919 94.1395 102.032 94.2353 102.113C94.3311 102.194 94.4542 102.234 94.6045 102.234ZM96.9015 102.209H98.4699V102.583H96.3415V102.247L97.8207 100.282H96.3638V99.9025H98.3956V100.227L96.9015 102.209ZM98.8267 101.218C98.8267 100.956 98.8779 100.719 98.9804 100.51C99.0844 100.3 99.2281 100.138 99.4115 100.024C99.5965 99.9099 99.8071 99.8529 100.043 99.8529C100.408 99.8529 100.703 99.9793 100.928 100.232C101.154 100.485 101.267 100.821 101.267 101.241V101.273C101.267 101.534 101.217 101.768 101.116 101.976C101.017 102.183 100.874 102.344 100.688 102.46C100.503 102.575 100.289 102.633 100.048 102.633C99.6849 102.633 99.39 102.507 99.1637 102.254C98.9391 102.001 98.8267 101.667 98.8267 101.25V101.218ZM99.2876 101.273C99.2876 101.57 99.3562 101.809 99.4933 101.989C99.632 102.169 99.817 102.259 100.048 102.259C100.281 102.259 100.466 102.168 100.603 101.986C100.74 101.803 100.809 101.547 100.809 101.218C100.809 100.924 100.739 100.686 100.598 100.505C100.46 100.321 100.275 100.23 100.043 100.23C99.817 100.23 99.6345 100.32 99.4958 100.5C99.357 100.68 99.2876 100.937 99.2876 101.273ZM102.276 99.9025L102.291 100.239C102.496 99.9818 102.763 99.8529 103.094 99.8529C103.66 99.8529 103.946 100.173 103.951 100.812V102.583H103.492V100.809C103.491 100.616 103.446 100.473 103.359 100.381C103.273 100.288 103.138 100.242 102.955 100.242C102.806 100.242 102.676 100.282 102.563 100.361C102.451 100.44 102.363 100.544 102.301 100.673V102.583H101.842V99.9025H102.276ZM106.126 102.583V100.257H105.703V99.9025H106.126V99.6274C106.126 99.34 106.203 99.1178 106.357 98.9609C106.51 98.804 106.728 98.7255 107.009 98.7255C107.114 98.7255 107.219 98.7396 107.323 98.7676L107.298 99.1393C107.221 99.1244 107.138 99.117 107.051 99.117C106.902 99.117 106.787 99.1608 106.706 99.2483C106.625 99.3342 106.585 99.4581 106.585 99.62V99.9025H107.157V100.257H106.585V102.583H106.126ZM108.718 102.633C108.355 102.633 108.059 102.514 107.831 102.276C107.603 102.037 107.489 101.717 107.489 101.317V101.233C107.489 100.967 107.54 100.73 107.64 100.522C107.743 100.312 107.885 100.149 108.067 100.031C108.25 99.9124 108.448 99.8529 108.661 99.8529C109.01 99.8529 109.281 99.9677 109.474 100.197C109.667 100.427 109.764 100.756 109.764 101.184V101.374H107.948C107.954 101.639 108.031 101.853 108.178 102.016C108.327 102.178 108.515 102.259 108.743 102.259C108.905 102.259 109.042 102.226 109.154 102.16C109.267 102.094 109.365 102.006 109.449 101.897L109.729 102.115C109.505 102.46 109.168 102.633 108.718 102.633ZM108.661 100.23C108.476 100.23 108.321 100.297 108.195 100.433C108.07 100.567 107.992 100.755 107.963 100.998H109.305V100.963C109.292 100.73 109.23 100.55 109.117 100.423C109.005 100.294 108.853 100.23 108.661 100.23ZM111.409 102.633C111.046 102.633 110.75 102.514 110.522 102.276C110.294 102.037 110.18 101.717 110.18 101.317V101.233C110.18 100.967 110.231 100.73 110.331 100.522C110.434 100.312 110.576 100.149 110.758 100.031C110.941 99.9124 111.139 99.8529 111.352 99.8529C111.701 99.8529 111.972 99.9677 112.165 100.197C112.358 100.427 112.455 100.756 112.455 101.184V101.374H110.639C110.645 101.639 110.722 101.853 110.869 102.016C111.018 102.178 111.206 102.259 111.434 102.259C111.596 102.259 111.733 102.226 111.845 102.16C111.958 102.094 112.056 102.006 112.14 101.897L112.42 102.115C112.195 102.46 111.858 102.633 111.409 102.633ZM111.352 100.23C111.167 100.23 111.012 100.297 110.886 100.433C110.761 100.567 110.683 100.755 110.653 100.998H111.996V100.963C111.983 100.73 111.92 100.55 111.808 100.423C111.696 100.294 111.544 100.23 111.352 100.23ZM114.549 101.872C114.549 101.748 114.502 101.653 114.407 101.585C114.315 101.516 114.152 101.456 113.919 101.407C113.688 101.357 113.504 101.298 113.367 101.228C113.231 101.159 113.13 101.076 113.064 100.98C113 100.885 112.968 100.771 112.968 100.638C112.968 100.419 113.06 100.233 113.245 100.081C113.432 99.9289 113.67 99.8529 113.959 99.8529C114.263 99.8529 114.509 99.9314 114.697 100.088C114.887 100.245 114.982 100.446 114.982 100.69H114.521C114.521 100.565 114.468 100.457 114.36 100.366C114.255 100.275 114.121 100.23 113.959 100.23C113.792 100.23 113.662 100.266 113.567 100.339C113.473 100.411 113.426 100.506 113.426 100.624C113.426 100.734 113.47 100.818 113.557 100.874C113.645 100.93 113.803 100.984 114.031 101.035C114.26 101.086 114.446 101.147 114.588 101.218C114.73 101.289 114.835 101.375 114.903 101.476C114.972 101.575 115.007 101.696 115.007 101.84C115.007 102.08 114.911 102.272 114.72 102.417C114.528 102.561 114.279 102.633 113.974 102.633C113.759 102.633 113.569 102.595 113.404 102.519C113.239 102.443 113.109 102.337 113.015 102.202C112.922 102.065 112.876 101.917 112.876 101.758H113.334C113.343 101.912 113.404 102.034 113.518 102.125C113.633 102.214 113.785 102.259 113.974 102.259C114.147 102.259 114.286 102.224 114.39 102.155C114.496 102.084 114.549 101.99 114.549 101.872Z" fill="#323541"/>
<path d="M135.237 101.439C135.192 101.82 135.051 102.115 134.813 102.323C134.577 102.53 134.262 102.633 133.869 102.633C133.443 102.633 133.101 102.48 132.843 102.175C132.587 101.869 132.459 101.46 132.459 100.948V100.601C132.459 100.266 132.519 99.971 132.638 99.7166C132.758 99.4623 132.929 99.2673 133.148 99.1319C133.368 98.9948 133.622 98.9262 133.911 98.9262C134.295 98.9262 134.602 99.0336 134.833 99.2483C135.064 99.4614 135.199 99.7571 135.237 100.135H134.759C134.718 99.848 134.628 99.6398 134.489 99.511C134.352 99.3821 134.159 99.3177 133.911 99.3177C133.607 99.3177 133.369 99.43 133.195 99.6547C133.024 99.8794 132.938 100.199 132.938 100.614V100.963C132.938 101.354 133.019 101.666 133.183 101.897C133.346 102.128 133.575 102.244 133.869 102.244C134.134 102.244 134.336 102.185 134.476 102.066C134.618 101.945 134.713 101.736 134.759 101.439H135.237ZM138.664 100.896C138.664 101.25 138.604 101.558 138.486 101.823C138.367 102.085 138.198 102.286 137.98 102.425C137.762 102.564 137.508 102.633 137.217 102.633C136.933 102.633 136.681 102.564 136.461 102.425C136.241 102.285 136.07 102.085 135.948 101.828C135.828 101.568 135.766 101.269 135.762 100.928V100.668C135.762 100.321 135.823 100.015 135.943 99.7489C136.064 99.4829 136.234 99.2797 136.454 99.1393C136.675 98.9972 136.928 98.9262 137.212 98.9262C137.501 98.9262 137.755 98.9964 137.975 99.1368C138.196 99.2756 138.367 99.4779 138.486 99.7439C138.604 100.008 138.664 100.316 138.664 100.668V100.896ZM138.191 100.663C138.191 100.235 138.105 99.9074 137.933 99.6795C137.761 99.4499 137.521 99.3351 137.212 99.3351C136.911 99.3351 136.674 99.4499 136.501 99.6795C136.329 99.9074 136.241 100.225 136.236 100.631V100.896C136.236 101.311 136.322 101.637 136.496 101.875C136.671 102.111 136.911 102.229 137.217 102.229C137.524 102.229 137.762 102.118 137.93 101.895C138.099 101.67 138.186 101.349 138.191 100.931V100.663ZM142.041 102.11C141.919 102.285 141.748 102.417 141.528 102.504C141.31 102.59 141.056 102.633 140.765 102.633C140.471 102.633 140.21 102.564 139.982 102.427C139.754 102.289 139.577 102.092 139.452 101.838C139.328 101.583 139.264 101.288 139.261 100.953V100.638C139.261 100.095 139.387 99.6737 139.64 99.3747C139.895 99.0757 140.251 98.9262 140.711 98.9262C141.087 98.9262 141.39 99.0228 141.62 99.2161C141.85 99.4077 141.99 99.6803 142.041 100.034H141.565C141.476 99.5564 141.192 99.3177 140.713 99.3177C140.394 99.3177 140.152 99.43 139.987 99.6547C139.824 99.8777 139.741 100.201 139.739 100.626V100.921C139.739 101.326 139.832 101.648 140.017 101.887C140.202 102.125 140.452 102.244 140.768 102.244C140.946 102.244 141.102 102.224 141.236 102.185C141.37 102.145 141.48 102.078 141.568 101.984V101.174H140.733V100.787H142.041V102.11ZM144.326 101.872C144.326 101.748 144.279 101.653 144.185 101.585C144.092 101.516 143.929 101.456 143.696 101.407C143.465 101.357 143.281 101.298 143.144 101.228C143.008 101.159 142.908 101.076 142.842 100.98C142.777 100.885 142.745 100.771 142.745 100.638C142.745 100.419 142.837 100.233 143.022 100.081C143.209 99.9289 143.447 99.8529 143.736 99.8529C144.04 99.8529 144.286 99.9314 144.474 100.088C144.664 100.245 144.759 100.446 144.759 100.69H144.299C144.299 100.565 144.245 100.457 144.137 100.366C144.032 100.275 143.898 100.23 143.736 100.23C143.569 100.23 143.439 100.266 143.345 100.339C143.25 100.411 143.203 100.506 143.203 100.624C143.203 100.734 143.247 100.818 143.335 100.874C143.422 100.93 143.58 100.984 143.808 101.035C144.038 101.086 144.223 101.147 144.365 101.218C144.507 101.289 144.612 101.375 144.68 101.476C144.749 101.575 144.784 101.696 144.784 101.84C144.784 102.08 144.688 102.272 144.497 102.417C144.305 102.561 144.056 102.633 143.751 102.633C143.536 102.633 143.346 102.595 143.181 102.519C143.016 102.443 142.886 102.337 142.792 102.202C142.699 102.065 142.653 101.917 142.653 101.758H143.112C143.12 101.912 143.181 102.034 143.295 102.125C143.411 102.214 143.563 102.259 143.751 102.259C143.924 102.259 144.063 102.224 144.167 102.155C144.273 102.084 144.326 101.99 144.326 101.872Z" fill="#323541"/>
<ellipse cx="128.87" cy="101.34" rx="1.88235" ry="1.87826" fill="#7E298C"/>
<ellipse cx="82.3081" cy="101.34" rx="1.88235" ry="1.87826" fill="#FF5119"/>
<ellipse cx="52.5005" cy="101.34" rx="1.88235" ry="1.87826" fill="#FFD100"/>
<defs>
<filter id="filter0_d" x="0.0398146" y="0.308465" width="166.766" height="124.766" filterUnits="userSpaceOnUse" color-interpolation-filters="sRGB">
<feFlood flood-opacity="0" result="BackgroundImageFix"/>
<feColorMatrix in="SourceAlpha" type="matrix" values="0 0 0 0 0 0 0 0 0 0 0 0 0 0 0 0 0 0 127 0"/>
<feOffset dx="0.422884" dy="1.69153"/>
<feGaussianBlur stdDeviation="1.69153"/>
<feColorMatrix type="matrix" values="0 0 0 0 0 0 0 0 0 0 0 0 0 0 0 0 0 0 0.05 0"/>
<feBlend mode="normal" in2="BackgroundImageFix" result="effect1_dropShadow"/>
<feBlend mode="normal" in="SourceGraphic" in2="effect1_dropShadow" result="shape"/>
</filter>
<linearGradient id="paint0_linear" x1="141.771" y1="43.4081" x2="46.2185" y2="7.9538" gradientUnits="userSpaceOnUse">
<stop stop-color="#326BFF"/>
<stop offset="1" stop-color="#13E3FF"/>
</linearGradient>
</defs>
</svg>
