<svg width="600" height="379" viewBox="0 0 600 379" fill="none" xmlns="http://www.w3.org/2000/svg">
<g clip-path="url(#clip0)">
<path opacity="0.6" d="M667.607 300.664L351.175 345.136C337.514 347.056 323.226 327.998 319.742 303.208C316.258 278.419 324.739 256.161 338.401 254.241L684.432 205.61C691.263 204.65 696.374 199.718 698.338 188.909L720.924 118.324C724.316 109.421 729.137 102.424 735.968 101.464C782.644 94.9042 1165.63 41.0794 1212.3 34.5195C1225.96 32.5996 1240.25 51.6574 1243.74 76.4468C1247.22 101.236 1238.74 123.494 1225.08 125.414L719.143 196.518C712.312 197.478 707.201 202.41 705.237 213.219L681.513 283.964C678.411 294.932 673.299 299.864 667.607 300.664Z" fill="url(#paint0_linear)"/>
<path opacity="0.7" d="M-307.755 383.481L-674.258 434.99C-690.081 437.214 -707.459 409.235 -712.49 373.437C-717.521 337.638 -708.528 305.953 -692.705 303.73L-291.919 247.403C-284.008 246.291 -278.253 239.398 -276.394 223.926L-252.89 123.275C-249.293 110.601 -243.958 100.725 -236.046 99.6135C-181.985 92.0156 261.601 29.6737 315.663 22.0758C331.486 19.8521 348.864 47.8308 353.895 83.629C358.926 119.427 349.933 151.112 334.11 153.336L-251.882 235.692C-259.793 236.804 -265.548 243.697 -267.407 259.168L-292.23 360.004C-295.408 375.662 -301.162 382.555 -307.755 383.481Z" fill="url(#paint1_linear)"/>
<path d="M600.5 290.109L-406.613 428.417C-449.099 434.388 -471.045 413.729 -483.188 327.325C-495.331 240.921 -470.045 154.941 -427.558 148.97L648.609 -2.27501C669.852 -5.26057 685.531 -13.149 691.093 -50.6435L757.847 -294.987C767.961 -325.779 782.628 -349.868 803.872 -352.853C949.035 -373.255 2140.12 -540.651 2285.29 -561.053C2327.77 -567.024 2373.3 -499.996 2385.44 -413.592C2397.59 -327.188 2372.3 -250.209 2329.81 -244.238L756.342 -23.1009C735.099 -20.1154 719.42 -3.22696 713.858 34.2675L643.564 279.109C634.461 317.101 600.5 345.217 600.5 290.109Z" fill="url(#paint2_linear)"/>
<path d="M-206.098 454.702L-230.513 458.069C-235.242 458.736 -240.056 458.46 -244.68 457.259C-249.303 456.057 -253.646 453.953 -257.461 451.066C-265.165 445.235 -270.248 436.571 -271.591 426.978C-272.935 417.386 -270.43 407.651 -264.627 399.916C-258.824 392.181 -250.199 387.079 -240.648 385.732L-174.71 376.503C-170.288 375.992 -166.041 374.48 -162.287 372.08C-158.533 369.679 -155.371 366.454 -153.04 362.647L-115.177 304.219C-112.772 300.395 -109.545 297.161 -105.731 294.755C-101.918 292.349 -97.6159 290.832 -93.1414 290.316C-27.3465 281.281 510.808 202.701 576.603 193.666C581.355 192.949 586.202 193.186 590.864 194.362C595.525 195.538 599.908 197.63 603.76 200.518C607.612 203.406 610.856 207.031 613.304 211.185C615.753 215.339 617.357 219.939 618.025 224.719C618.693 229.499 618.411 234.364 617.195 239.034C615.979 243.703 613.853 248.083 610.941 251.922C608.029 255.761 604.388 258.981 600.229 261.397C596.069 263.814 591.474 265.378 586.708 265.999L-124.648 368.501C-129.068 369.003 -133.316 370.508 -137.07 372.904C-140.824 375.3 -143.985 378.522 -146.314 382.328L-184.089 440.767C-186.52 444.564 -189.75 447.78 -193.553 450.188C-197.355 452.595 -201.638 454.136 -206.098 454.702Z" stroke="url(#paint3_linear)" stroke-width="0.58" stroke-miterlimit="10"/>
</g>
<defs>
<linearGradient id="paint0_linear" x1="333.523" y1="314.407" x2="730.86" y2="231.305" gradientUnits="userSpaceOnUse">
<stop stop-color="#003EDD" stop-opacity="0"/>
<stop offset="0.302083" stop-color="#0041EA"/>
<stop offset="1" stop-color="#21C1D4"/>
</linearGradient>
<linearGradient id="paint1_linear" x1="-614.524" y1="377.509" x2="334.242" y2="344.536" gradientUnits="userSpaceOnUse">
<stop offset="0.213542" stop-color="#21C1D4"/>
<stop offset="0.570315" stop-color="#21C1D4"/>
<stop offset="0.989583" stop-color="#2864FF" stop-opacity="0"/>
</linearGradient>
<linearGradient id="paint2_linear" x1="13.9999" y1="223" x2="801.225" y2="-24.7243" gradientUnits="userSpaceOnUse">
<stop offset="0.0364583" stop-color="#003077"/>
<stop offset="1" stop-color="#2254B5"/>
</linearGradient>
<linearGradient id="paint3_linear" x1="299" y1="341" x2="300.301" y2="294.994" gradientUnits="userSpaceOnUse">
<stop stop-color="#178BD3"/>
<stop offset="0.1" stop-color="#168BD5" stop-opacity="0.97"/>
<stop offset="0.25" stop-color="#148CD9" stop-opacity="0.87"/>
<stop offset="0.43" stop-color="#108EE0" stop-opacity="0.71"/>
<stop offset="0.63" stop-color="#0B90E9" stop-opacity="0.49"/>
<stop offset="0.85" stop-color="#0592F6" stop-opacity="0.22"/>
<stop offset="1" stop-color="#0094FF" stop-opacity="0"/>
</linearGradient>
<clipPath id="clip0">
<rect width="600" height="379" fill="white"/>
</clipPath>
</defs>
</svg>
