<svg width="130" height="130" viewBox="0 0 130 130" fill="none" xmlns="http://www.w3.org/2000/svg">
<path opacity="0.50086" d="M65 129C64.5137 129 64.0286 128.995 63.5449 128.984L63.5226 129.984C60.2012 129.909 56.9413 129.586 53.7607 129.032L53.9325 128.047C52.977 127.88 52.0288 127.692 51.0884 127.484L50.872 128.46C47.6462 127.745 44.5106 126.791 41.4848 125.616L41.8467 124.684C40.9439 124.333 40.0509 123.963 39.1684 123.573L38.7644 124.488C35.7554 123.159 32.8662 121.608 30.1176 119.857L30.6549 119.014C29.8389 118.494 29.0355 117.956 28.2452 117.4L27.6702 118.218C24.9878 116.333 22.4544 114.251 20.0911 111.992L20.7821 111.269C20.0832 110.601 19.3994 109.917 18.7313 109.218L18.0085 109.909C15.7493 107.546 13.6666 105.012 11.7816 102.33L12.5997 101.755C12.0444 100.965 11.5064 100.161 10.9864 99.3451L10.1431 99.8824C8.39161 97.1338 6.84103 94.2446 5.51206 91.2356L6.42681 90.8316C6.03705 89.9491 5.66665 89.0562 5.31615 88.1533L4.38394 88.5152C3.20928 85.4894 2.25466 82.3538 1.53971 79.128L2.51601 78.9116C2.30759 77.9712 2.11984 77.023 1.95329 76.0675L0.968145 76.2393C0.413743 73.0587 0.0905308 69.7988 0.0164584 66.4774L1.01621 66.4551C1.00542 65.9714 1 65.4863 1 65C1 64.5137 1.00542 64.0286 1.01621 63.5449L0.0164582 63.5226C0.0905301 60.2012 0.413742 56.9413 0.968143 53.7607L1.95329 53.9325C2.11984 52.977 2.30759 52.0288 2.51601 51.0884L1.53971 50.872C2.25466 47.6462 3.20928 44.5106 4.38393 41.4848L5.31615 41.8467C5.66665 40.9439 6.03704 40.0509 6.4268 39.1684L5.51205 38.7644C6.84103 35.7554 8.3916 32.8662 10.1431 30.1176L10.9864 30.6549C11.5064 29.8389 12.0444 29.0355 12.5997 28.2452L11.7816 27.6702C13.6666 24.9878 15.7493 22.4544 18.0085 20.0911L18.7313 20.7821C19.3994 20.0832 20.0832 19.3994 20.7821 18.7313L20.0911 18.0085C22.4544 15.7493 24.9878 13.6666 27.6702 11.7816L28.2452 12.5997C29.0355 12.0444 29.8389 11.5064 30.6549 10.9864L30.1176 10.1431C32.8662 8.39161 35.7554 6.84103 38.7644 5.51206L39.1684 6.42681C40.0509 6.03705 40.9438 5.66665 41.8467 5.31615L41.4848 4.38394C44.5106 3.20928 47.6462 2.25466 50.872 1.53971L51.0884 2.51601C52.0288 2.30759 52.977 2.11984 53.9325 1.95329L53.7607 0.968145C56.9413 0.413743 60.2012 0.0905308 63.5226 0.0164584L63.5449 1.01621C64.0286 1.00542 64.5137 1 65 1C65.4863 1 65.9714 1.00542 66.4551 1.01621L66.4774 0.0164583C69.7988 0.0905302 73.0587 0.413742 76.2393 0.968143L76.0675 1.95329C77.023 2.11984 77.9712 2.30758 78.9116 2.51601L79.128 1.53971C82.3538 2.25466 85.4894 3.20928 88.5152 4.38393L88.1533 5.31615C89.0561 5.66665 89.9491 6.03704 90.8316 6.4268L91.2356 5.51205C94.2446 6.84103 97.1337 8.3916 99.8824 10.1431L99.3451 10.9864C100.161 11.5064 100.965 12.0443 101.755 12.5997L102.33 11.7816C105.012 13.6666 107.546 15.7493 109.909 18.0085L109.218 18.7313C109.917 19.3994 110.601 20.0832 111.269 20.7821L111.992 20.0911C114.251 22.4544 116.333 24.9878 118.218 27.6702L117.4 28.2452C117.956 29.0355 118.494 29.8389 119.014 30.6549L119.857 30.1175C121.608 32.8662 123.159 35.7554 124.488 38.7644L123.573 39.1684C123.963 40.0509 124.333 40.9438 124.684 41.8467L125.616 41.4848C126.791 44.5106 127.745 47.6462 128.46 50.872L127.484 51.0884C127.692 52.0288 127.88 52.977 128.047 53.9325L129.032 53.7607C129.586 56.9413 129.909 60.2012 129.984 63.5226L128.984 63.5449C128.995 64.0286 129 64.5137 129 65C129 65.4863 128.995 65.9714 128.984 66.4551L129.984 66.4774C129.909 69.7988 129.586 73.0587 129.032 76.2393L128.047 76.0675C127.88 77.023 127.692 77.9712 127.484 78.9116L128.46 79.128C127.745 82.3538 126.791 85.4894 125.616 88.5152L124.684 88.1533C124.333 89.0562 123.963 89.9491 123.573 90.8316L124.488 91.2356C123.159 94.2446 121.608 97.1338 119.857 99.8824L119.014 99.3451C118.494 100.161 117.956 100.965 117.4 101.755L118.218 102.33C116.333 105.012 114.251 107.546 111.992 109.909L111.269 109.218C110.601 109.917 109.917 110.601 109.218 111.269L109.909 111.992C107.546 114.251 105.012 116.333 102.33 118.218L101.755 117.4C100.965 117.956 100.161 118.494 99.3451 119.014L99.8825 119.857C97.1338 121.608 94.2446 123.159 91.2356 124.488L90.8316 123.573C89.9491 123.963 89.0562 124.333 88.1533 124.684L88.5152 125.616C85.4894 126.791 82.3538 127.745 79.128 128.46L78.9116 127.484C77.9712 127.692 77.023 127.88 76.0675 128.047L76.2393 129.032C73.0587 129.586 69.7988 129.909 66.4774 129.984L66.4551 128.984C65.9714 128.995 65.4863 129 65 129Z" stroke="#027BF3" stroke-width="2" stroke-dasharray="3 10"/>
<path d="M64.2859 118.572C93.4781 118.572 117.143 94.9072 117.143 65.7151C117.143 36.5229 93.4781 12.8579 64.2859 12.8579C35.0937 12.8579 11.4287 36.5229 11.4287 65.7151C11.4287 94.9072 35.0937 118.572 64.2859 118.572Z" fill="#027BF3"/>
<path d="M68.7392 67.3825H77.4083L78.77 58.6302H68.7392V53.8462C68.7392 50.2107 69.935 46.9864 73.3568 46.9864H78.8554V39.3493C77.889 39.2195 75.8457 38.9365 71.9851 38.9365C63.9222 38.9365 59.1957 43.1679 59.1957 52.8091V58.6318H50.9067V67.3842H59.194V91.4407C60.8354 91.6838 62.4986 91.8502 64.2053 91.8502C65.7478 91.8502 67.2535 91.7104 68.7392 91.5106V67.3825Z" fill="white"/>
</svg>
