<svg width="601" height="157" viewBox="0 0 601 157" fill="none" xmlns="http://www.w3.org/2000/svg">
<g clip-path="url(#clip0)">
<path d="M0 84.5L600 0.5V222H300H0V84.5Z" fill="url(#paint0_linear)"/>
<path opacity="0.2" d="M231.16 295.992L-135.953 344.649C-151.803 346.75 -168.379 325.898 -172.421 298.775C-176.463 271.653 -166.623 247.3 -150.774 245.199L250.68 191.99C258.605 190.94 264.365 180.755 266.813 173.718L293.016 96.4889C296.952 86.7478 302.324 79.1213 310.47 78.0415C364.622 70.8642 808.947 11.9729 863.099 4.7956C878.948 2.69492 895.524 23.5466 899.566 50.6693C903.608 77.792 893.768 102.145 877.919 104.246L290.951 182.043C283.026 183.093 278.964 189.402 274.817 200.315L247.293 277.719C243.695 289.721 237.764 295.116 231.16 295.992Z" fill="url(#paint1_linear)"/>
<path d="M-70.7321 271.13L-383.648 312.604C-397.158 314.395 -411.784 293.285 -415.826 266.162C-419.868 239.039 -411.978 214.945 -398.469 213.154L-56.282 167.801C-49.5273 166.905 -44.8206 156.86 -42.8788 149.89L-22.1352 73.385C-18.9794 63.7473 -14.5502 56.2456 -7.60619 55.3252C38.551 49.2075 417.279 -0.98948 463.437 -7.10721C476.946 -8.89776 491.572 12.2124 495.614 39.3351C499.656 66.4578 491.766 90.5522 478.257 92.3428L-22.0562 158.655C-28.811 159.55 -32.1486 165.763 -35.4596 176.565L-57.3289 253.22C-60.1479 265.118 -65.1031 270.384 -70.7321 271.13Z" fill="url(#paint2_linear)"/>
<path opacity="0.3" d="M-22.8645 428.411L-389.978 477.068C-405.828 479.169 -422.782 455.779 -427.278 425.612C-431.773 395.444 -422.312 368.553 -406.463 366.452L-5.00869 313.243C2.91596 312.193 8.52169 300.971 10.8597 293.195L35.8527 207.845C39.6373 197.089 44.8952 188.701 53.0419 187.622C107.194 180.444 551.519 121.553 605.67 114.376C621.52 112.275 638.474 135.664 642.97 165.832C647.465 196 638.004 222.891 622.155 224.991L35.1861 302.789C27.2615 303.839 23.2944 310.783 19.3177 322.837L-6.99616 408.362C-10.4061 421.632 -16.2606 427.535 -22.8645 428.411Z" fill="url(#paint3_linear)"/>
</g>
<defs>
<linearGradient id="paint0_linear" x1="-0.502933" y1="-50.5099" x2="-0.502933" y2="226.989" gradientUnits="userSpaceOnUse">
<stop stop-color="#013178"/>
<stop offset="1" stop-color="#012F73"/>
</linearGradient>
<linearGradient id="paint1_linear" x1="-139.224" y1="380.608" x2="318.781" y2="203.84" gradientUnits="userSpaceOnUse">
<stop stop-color="#21C1D4" stop-opacity="0"/>
<stop offset="0.546404" stop-color="#0075FF"/>
<stop offset="1" stop-color="#2864FF"/>
</linearGradient>
<linearGradient id="paint2_linear" x1="-208.969" y1="343.503" x2="309.196" y2="163.026" gradientUnits="userSpaceOnUse">
<stop offset="0.388085" stop-color="#003077"/>
<stop offset="0.772774" stop-color="#016ECE"/>
<stop offset="1" stop-color="#0067FF" stop-opacity="0"/>
</linearGradient>
<linearGradient id="paint3_linear" x1="-329.414" y1="427.675" x2="51.768" y2="320.653" gradientUnits="userSpaceOnUse">
<stop stop-color="#21C1D4" stop-opacity="0"/>
<stop offset="0.213542" stop-color="#21C1D4"/>
<stop offset="1" stop-color="#2864FF"/>
</linearGradient>
<clipPath id="clip0">
<rect width="601" height="156.639" fill="white"/>
</clipPath>
</defs>
</svg>
