<svg width="600" height="169" viewBox="0 0 600 169" fill="none" xmlns="http://www.w3.org/2000/svg">
<rect width="1039" height="1452" transform="translate(-216 -51)" fill="white"/>
<g clip-path="url(#clip0)" filter="url(#filter0_d)">
<rect width="600" height="1145" transform="translate(0 -1)" fill="white"/>
<path d="M600 -6H0V1007H600V-6Z" fill="url(#paint0_linear)"/>
<path d="M498.944 63.4828C499.623 63.4828 500.174 62.9711 500.174 62.34C500.174 61.7089 499.623 61.1973 498.944 61.1973C498.266 61.1973 497.715 61.7089 497.715 62.34C497.715 62.9711 498.266 63.4828 498.944 63.4828Z" fill="white"/>
<path d="M359.952 53.4514C359.952 54.0809 359.4 54.5941 358.723 54.5941C358.046 54.5941 357.494 54.0809 357.494 53.4514C357.494 52.8218 358.046 52.3086 358.723 52.3086C359.4 52.3086 359.952 52.8218 359.952 53.4514Z" fill="white"/>
<path d="M183.83 50.5959C183.83 51.2294 183.278 51.7387 182.601 51.7387C181.919 51.7387 181.372 51.2254 181.372 50.5959C181.372 49.9664 181.924 49.4531 182.601 49.4531C183.278 49.4491 183.83 49.9624 183.83 50.5959Z" fill="white"/>
<path d="M294.401 58.0257C294.742 58.0257 295.018 57.769 295.018 57.4523C295.018 57.1356 294.742 56.8789 294.401 56.8789C294.06 56.8789 293.784 57.1356 293.784 57.4523C293.784 57.769 294.06 58.0257 294.401 58.0257Z" fill="white"/>
<path d="M46.2617 66.9152C46.2617 67.2319 45.9855 67.4886 45.6448 67.4886C45.304 67.4886 45.0281 67.2319 45.0281 66.9152C45.0281 66.5984 45.304 66.3418 45.6448 66.3418C45.9855 66.3418 46.2617 66.5984 46.2617 66.9152Z" fill="white"/>
<path d="M89.3442 65.7718C89.6849 65.7718 89.9611 65.5151 89.9611 65.1984C89.9611 64.8817 89.6849 64.625 89.3442 64.625C89.0036 64.625 88.7275 64.8817 88.7275 65.1984C88.7275 65.5151 89.0036 65.7718 89.3442 65.7718Z" fill="white"/>
<path d="M547.574 61.7708C547.915 61.7708 548.191 61.5141 548.191 61.1974C548.191 60.8807 547.915 60.624 547.574 60.624C547.234 60.624 546.958 60.8807 546.958 61.1974C546.958 61.5141 547.234 61.7708 547.574 61.7708Z" fill="white"/>
<path d="M460.201 68.9884C460.201 69.3052 459.925 69.5618 459.584 69.5618C459.243 69.5618 458.968 69.3052 458.968 68.9884C458.968 68.6717 459.243 68.415 459.584 68.415C459.925 68.415 460.201 68.6717 460.201 68.9884Z" fill="white"/>
<path d="M418.43 70.1341C418.771 70.1341 419.047 69.8774 419.047 69.5607C419.047 69.244 418.771 68.9873 418.43 68.9873C418.089 68.9873 417.813 69.244 417.813 69.5607C417.813 69.8774 418.089 70.1341 418.43 70.1341Z" fill="white"/>
<path d="M481.738 165.478C481.738 163.898 483.114 162.619 484.814 162.619C486.513 162.619 487.889 163.898 487.889 165.478C487.889 167.058 486.513 168.337 484.814 168.337C483.114 168.337 481.738 167.058 481.738 165.478Z" fill="white"/>
<path d="M75.481 120.188C75.481 118.608 76.8571 117.329 78.5566 117.329C80.2561 117.329 81.632 118.608 81.632 120.188C81.632 121.768 80.2561 123.047 78.5566 123.047C76.8571 123.047 75.481 121.768 75.481 120.188Z" fill="white"/>
<path d="M44.4153 84.6011C44.4153 83.0213 45.7914 81.7422 47.4909 81.7422C49.1904 81.7422 50.5664 83.0213 50.5664 84.6011C50.5664 86.1809 49.1904 87.46 47.4909 87.46C45.7914 87.46 44.4153 86.1809 44.4153 84.6011Z" fill="white"/>
<path d="M266.773 106.695C266.773 105.115 268.149 103.836 269.849 103.836C271.548 103.836 272.924 105.115 272.924 106.695C272.924 108.275 271.548 109.554 269.849 109.554C268.149 109.554 266.773 108.275 266.773 106.695Z" fill="white"/>
<path d="M362.204 110.697C362.883 110.697 363.433 110.185 363.433 109.554C363.433 108.923 362.883 108.411 362.204 108.411C361.525 108.411 360.975 108.923 360.975 109.554C360.975 110.185 361.525 110.697 362.204 110.697Z" fill="white"/>
<path d="M152.743 151.624C153.422 151.624 153.973 151.113 153.973 150.482C153.973 149.851 153.422 149.339 152.743 149.339C152.064 149.339 151.514 149.851 151.514 150.482C151.514 151.113 152.064 151.624 152.743 151.624Z" fill="white"/>
<path d="M170.169 129.602C170.169 128.972 170.722 128.459 171.399 128.459C172.08 128.459 172.628 128.972 172.628 129.602C172.628 130.231 172.076 130.745 171.399 130.745C170.722 130.745 170.169 130.231 170.169 129.602Z" fill="white"/>
<path d="M10.02 132.987C10.02 132.357 10.5722 131.844 11.2494 131.844C11.9309 131.844 12.4788 132.357 12.4788 132.987C12.4788 133.616 11.9266 134.129 11.2494 134.129C10.5722 134.129 10.02 133.616 10.02 132.987Z" fill="white"/>
<path d="M53.6333 154.182C53.6333 153.552 54.1855 153.039 54.8627 153.039C55.5399 153.039 56.092 153.552 56.092 154.182C56.092 154.811 55.5399 155.325 54.8627 155.325C54.1855 155.325 53.6333 154.811 53.6333 154.182Z" fill="white"/>
<path d="M530.347 84.0314C530.347 83.4019 530.899 82.8887 531.576 82.8887C532.253 82.8887 532.805 83.4019 532.805 84.0314C532.805 84.661 532.253 85.1742 531.576 85.1742C530.899 85.1742 530.347 84.661 530.347 84.0314Z" fill="white"/>
<path d="M75.8174 58.5939C75.8174 57.9644 76.3695 57.4512 77.0468 57.4512C77.724 57.4512 78.2759 57.9644 78.2759 58.5939C78.2759 59.2235 77.724 59.7367 77.0468 59.7367C76.3652 59.7367 75.8174 59.2275 75.8174 58.5939Z" fill="white"/>
<path d="M4.74023 99.2609C4.74023 98.6314 5.2924 98.1182 5.96961 98.1182C6.64682 98.1182 7.19898 98.6314 7.19898 99.2609C7.19898 99.8904 6.64682 100.404 5.96961 100.404C5.2924 100.404 4.74023 99.8945 4.74023 99.2609Z" fill="white"/>
<path d="M286.149 167.9C286.149 167.27 286.701 166.757 287.379 166.757C288.056 166.757 288.608 167.27 288.608 167.9C288.608 168.529 288.056 169.042 287.379 169.042C286.701 169.046 286.149 168.533 286.149 167.9Z" fill="white"/>
<path d="M249.248 139.892C249.927 139.892 250.477 139.38 250.477 138.749C250.477 138.118 249.927 137.606 249.248 137.606C248.569 137.606 248.019 138.118 248.019 138.749C248.019 139.38 248.569 139.892 249.248 139.892Z" fill="white"/>
<path d="M203.547 76.5344C203.547 75.9048 204.099 75.3916 204.776 75.3916C205.453 75.3916 206.005 75.9048 206.005 76.5344C206.005 77.1639 205.453 77.6771 204.776 77.6771C204.095 77.6771 203.547 77.1639 203.547 76.5344Z" fill="white"/>
<path d="M424.577 129.603C425.255 129.603 425.806 129.091 425.806 128.46C425.806 127.829 425.255 127.317 424.577 127.317C423.898 127.317 423.347 127.829 423.347 128.46C423.347 129.091 423.898 129.603 424.577 129.603Z" fill="white"/>
<path d="M392.161 70.3439C392.161 69.7144 392.713 69.2012 393.39 69.2012C394.067 69.2012 394.62 69.7144 394.62 70.3439C394.62 70.9735 394.067 71.4867 393.39 71.4867C392.713 71.4867 392.161 70.9735 392.161 70.3439Z" fill="white"/>
<path d="M467.206 117.983C467.547 117.983 467.823 117.726 467.823 117.409C467.823 117.093 467.547 116.836 467.206 116.836C466.866 116.836 466.589 117.093 466.589 117.409C466.589 117.726 466.866 117.983 467.206 117.983Z" fill="white"/>
<path d="M556.473 82.8898C556.473 82.573 556.749 82.3164 557.09 82.3164C557.431 82.3164 557.707 82.573 557.707 82.8898C557.707 83.2066 557.431 83.4632 557.09 83.4632C556.745 83.4592 556.473 83.2025 556.473 82.8898Z" fill="white"/>
<path d="M417.895 161.612C417.895 161.296 418.171 161.039 418.512 161.039C418.853 161.039 419.129 161.296 419.129 161.612C419.129 161.929 418.853 162.186 418.512 162.186C418.171 162.186 417.895 161.929 417.895 161.612Z" fill="white"/>
<path d="M246.177 82.3156C246.177 81.9988 246.453 81.7422 246.793 81.7422C247.134 81.7422 247.41 81.9988 247.41 82.3156C247.41 82.6323 247.134 82.889 246.793 82.889C246.453 82.889 246.177 82.6323 246.177 82.3156Z" fill="white"/>
<path d="M256.654 56.8831C256.995 56.8831 257.271 56.6264 257.271 56.3097C257.271 55.9931 256.995 55.7363 256.654 55.7363C256.313 55.7363 256.037 55.9931 256.037 56.3097C256.037 56.6264 256.313 56.8831 256.654 56.8831Z" fill="white"/>
<path d="M160.688 72.6331C161.029 72.6331 161.305 72.3764 161.305 72.0597C161.305 71.7431 161.029 71.4863 160.688 71.4863C160.348 71.4863 160.072 71.7431 160.072 72.0597C160.072 72.3764 160.348 72.6331 160.688 72.6331Z" fill="white"/>
<path d="M378.367 145.999C378.707 145.999 378.983 145.743 378.983 145.426C378.983 145.109 378.707 144.853 378.367 144.853C378.026 144.853 377.75 145.109 377.75 145.426C377.75 145.743 378.026 145.999 378.367 145.999Z" fill="white"/>
<path d="M338.592 157.161C338.933 157.161 339.209 156.905 339.209 156.588C339.209 156.271 338.933 156.015 338.592 156.015C338.252 156.015 337.976 156.271 337.976 156.588C337.976 156.905 338.252 157.161 338.592 157.161Z" fill="white"/>
<path d="M322.072 94.257C322.072 93.9402 322.348 93.6836 322.689 93.6836C323.029 93.6836 323.305 93.9402 323.305 94.257C323.305 94.5737 323.029 94.8304 322.689 94.8304C322.348 94.8264 322.072 94.5697 322.072 94.257Z" fill="white"/>
<path d="M354.358 81.7464C354.699 81.7464 354.975 81.4897 354.975 81.173C354.975 80.8563 354.699 80.5996 354.358 80.5996C354.017 80.5996 353.741 80.8563 353.741 81.173C353.741 81.4897 354.017 81.7464 354.358 81.7464Z" fill="white"/>
<path d="M435.895 57.4554C436.236 57.4554 436.512 57.1987 436.512 56.882C436.512 56.5653 436.236 56.3086 435.895 56.3086C435.554 56.3086 435.278 56.5653 435.278 56.882C435.278 57.1987 435.554 57.4554 435.895 57.4554Z" fill="white"/>
<path d="M295.993 84.0325C296.334 84.0325 296.61 83.7758 296.61 83.4591C296.61 83.1425 296.334 82.8857 295.993 82.8857C295.652 82.8857 295.376 83.1425 295.376 83.4591C295.376 83.7758 295.652 84.0325 295.993 84.0325Z" fill="white"/>
<path d="M317.905 65.1984C317.905 64.8816 318.181 64.625 318.522 64.625C318.863 64.625 319.139 64.8816 319.139 65.1984C319.139 65.5151 318.863 65.7718 318.522 65.7718C318.181 65.7718 317.905 65.5151 317.905 65.1984Z" fill="white"/>
<path d="M414.073 104.409C414.073 104.093 414.349 103.836 414.69 103.836C415.031 103.836 415.307 104.093 415.307 104.409C415.307 104.726 415.031 104.983 414.69 104.983C414.349 104.979 414.073 104.722 414.073 104.409Z" fill="white"/>
<path d="M495.256 82.3156C495.256 81.9988 495.532 81.7422 495.873 81.7422C496.214 81.7422 496.49 81.9988 496.49 82.3156C496.49 82.6323 496.214 82.889 495.873 82.889C495.532 82.889 495.256 82.6323 495.256 82.3156Z" fill="white"/>
<path d="M218.497 108.985C218.838 108.985 219.114 108.728 219.114 108.411C219.114 108.095 218.838 107.838 218.497 107.838C218.157 107.838 217.881 108.095 217.881 108.411C217.881 108.728 218.157 108.985 218.497 108.985Z" fill="white"/>
<path d="M307.311 123.316C307.652 123.316 307.928 123.059 307.928 122.742C307.928 122.426 307.652 122.169 307.311 122.169C306.971 122.169 306.694 122.426 306.694 122.742C306.694 123.059 306.971 123.316 307.311 123.316Z" fill="white"/>
<path d="M522.862 152.198C523.203 152.198 523.479 151.941 523.479 151.624C523.479 151.307 523.203 151.051 522.862 151.051C522.522 151.051 522.246 151.307 522.246 151.624C522.246 151.941 522.522 152.198 522.862 152.198Z" fill="white"/>
<path d="M512.717 123.886C512.717 123.569 512.993 123.312 513.334 123.312C513.675 123.312 513.951 123.569 513.951 123.886C513.951 124.203 513.675 124.459 513.334 124.459C512.993 124.459 512.717 124.203 512.717 123.886Z" fill="white"/>
<path d="M546.962 119.699C547.303 119.699 547.579 119.442 547.579 119.125C547.579 118.808 547.303 118.552 546.962 118.552C546.621 118.552 546.345 118.808 546.345 119.125C546.345 119.442 546.621 119.699 546.962 119.699Z" fill="white"/>
<path d="M530.347 54.597C530.687 54.597 530.964 54.3403 530.964 54.0236C530.964 53.7069 530.687 53.4502 530.347 53.4502C530.006 53.4502 529.73 53.7069 529.73 54.0236C529.73 54.3403 530.006 54.597 530.347 54.597Z" fill="white"/>
<path d="M486.647 56.3089C486.988 56.3089 487.264 56.0522 487.264 55.7355C487.264 55.4188 486.988 55.1621 486.647 55.1621C486.306 55.1621 486.03 55.4188 486.03 55.7355C486.03 56.0522 486.306 56.3089 486.647 56.3089Z" fill="white"/>
<path d="M27.8044 71.1058C28.1451 71.1058 28.4213 70.8491 28.4213 70.5324C28.4213 70.2157 28.1451 69.959 27.8044 69.959C27.4637 69.959 27.1875 70.2157 27.1875 70.5324C27.1875 70.8491 27.4637 71.1058 27.8044 71.1058Z" fill="white"/>
<path d="M10.0202 51.3772C10.3609 51.3772 10.6371 51.1205 10.6371 50.8039C10.6371 50.4872 10.3609 50.2305 10.0202 50.2305C9.67956 50.2305 9.40332 50.4872 9.40332 50.8039C9.40332 51.1205 9.67956 51.3772 10.0202 51.3772Z" fill="white"/>
<path d="M115.177 119.694C115.177 119.378 115.454 119.121 115.794 119.121C116.135 119.121 116.411 119.378 116.411 119.694C116.411 120.011 116.135 120.268 115.794 120.268C115.454 120.268 115.177 120.011 115.177 119.694Z" fill="white"/>
<path d="M44.3725 119.695C44.7132 119.695 44.9892 119.438 44.9892 119.121C44.9892 118.805 44.7132 118.548 44.3725 118.548C44.0319 118.548 43.7556 118.805 43.7556 119.121C43.7556 119.438 44.0319 119.695 44.3725 119.695Z" fill="white"/>
<path d="M114.561 85.7483C114.901 85.7483 115.177 85.4916 115.177 85.1749C115.177 84.8583 114.901 84.6016 114.561 84.6016C114.22 84.6016 113.944 84.8583 113.944 85.1749C113.944 85.4916 114.22 85.7483 114.561 85.7483Z" fill="white"/>
<path d="M93.6535 147.935C93.9942 147.935 94.2702 147.678 94.2702 147.361C94.2702 147.045 93.9942 146.788 93.6535 146.788C93.3129 146.788 93.0366 147.045 93.0366 147.361C93.0366 147.678 93.3129 147.935 93.6535 147.935Z" fill="white"/>
<path d="M216.656 161.039C216.656 160.722 216.932 160.466 217.272 160.466C217.613 160.466 217.889 160.722 217.889 161.039C217.889 161.356 217.613 161.613 217.272 161.613C216.932 161.613 216.656 161.356 216.656 161.039Z" fill="white"/>
<path d="M211.225 132.991C211.225 132.675 211.501 132.418 211.842 132.418C212.183 132.418 212.458 132.675 212.458 132.991C212.458 133.308 212.183 133.565 211.842 133.565C211.501 133.565 211.225 133.308 211.225 132.991Z" fill="white"/>
<path d="M115.79 51.9474C115.79 51.6306 116.066 51.374 116.407 51.374C116.748 51.374 117.024 51.6306 117.024 51.9474C117.024 52.2642 116.748 52.5208 116.407 52.5208C116.066 52.5208 115.79 52.2642 115.79 51.9474Z" fill="white"/>
<path d="M156.949 51.3771C156.949 51.0603 157.225 50.8037 157.566 50.8037C157.907 50.8037 158.183 51.0603 158.183 51.3771C158.183 51.6939 157.907 51.9505 157.566 51.9505C157.225 51.9505 156.949 51.6939 156.949 51.3771Z" fill="white"/>
<path d="M562.999 158.873C564.019 158.873 564.845 158.104 564.845 157.157C564.845 156.209 564.019 155.44 562.999 155.44C561.98 155.44 561.153 156.209 561.153 157.157C561.153 158.104 561.98 158.873 562.999 158.873Z" fill="white"/>
<path d="M441.546 84.0326C441.546 83.0863 442.374 82.3164 443.392 82.3164C444.41 82.3164 445.238 83.0863 445.238 84.0326C445.238 84.9788 444.41 85.7487 443.392 85.7487C442.374 85.7487 441.546 84.9788 441.546 84.0326Z" fill="white"/>
<path d="M153.874 100.978C153.874 100.032 154.702 99.2617 155.72 99.2617C156.738 99.2617 157.566 100.028 157.566 100.978C157.566 101.924 156.738 102.694 155.72 102.694C154.702 102.694 153.874 101.924 153.874 100.978Z" fill="white"/>
<path d="M451.406 152.755C451.747 152.755 452.023 152.498 452.023 152.182C452.023 151.865 451.747 151.608 451.406 151.608C451.065 151.608 450.789 151.865 450.789 152.182C450.789 152.498 451.065 152.755 451.406 152.755Z" fill="white"/>
<path d="M579.153 143.204C579.832 143.204 580.383 142.692 580.383 142.061C580.383 141.43 579.832 140.918 579.153 140.918C578.474 140.918 577.924 141.43 577.924 142.061C577.924 142.692 578.474 143.204 579.153 143.204Z" fill="white"/>
<path d="M580.301 100.407C580.301 99.7779 580.853 99.2646 581.53 99.2646C582.207 99.2646 582.759 99.7779 582.759 100.407C582.759 101.037 582.207 101.55 581.53 101.55C580.853 101.55 580.301 101.037 580.301 100.407Z" fill="white"/>
<path d="M577.311 59.882C577.311 59.5652 577.587 59.3086 577.928 59.3086C578.269 59.3086 578.545 59.5652 578.545 59.882C578.545 60.1988 578.269 60.4554 577.928 60.4554C577.583 60.4514 577.311 60.1988 577.311 59.882Z" fill="white"/>
<g clip-path="url(#clip1)">
<g clip-path="url(#clip2)">
<path d="M601.08 176.479L-383.033 314.787C-425.519 320.758 -471.044 253.731 -483.188 167.327C-495.331 80.9228 -470.045 53.9433 -427.558 47.9721L648.609 -103.273C669.853 -106.259 685.531 -173.147 691.093 -210.642L757.847 -454.985C767.961 -485.777 782.628 -509.866 803.872 -512.851C949.035 -533.253 2140.12 -700.649 2285.29 -721.051C2327.77 -727.022 2373.3 -659.994 2385.44 -573.59C2397.59 -487.186 2372.3 -410.207 2329.81 -404.236L756.342 -183.099C735.099 -180.113 719.42 -163.225 713.858 -125.731L643.564 119.11C634.461 157.103 618.782 173.991 601.08 176.479Z" fill="#003177"/>
<g opacity="0.3" filter="url(#filter1_d)">
<path d="M153.908 143.351L-173.233 191.928C-187.356 194.026 -202.223 173.905 -205.94 147.663C-209.656 121.42 -200.984 97.8043 -186.86 95.7071L170.882 42.586C177.944 41.5374 183.038 31.654 185.192 24.8314L208.236 -50.0412C211.705 -59.4877 216.463 -66.8927 223.722 -67.9706C271.978 -75.1361 667.923 -133.93 716.179 -141.095C730.302 -143.193 745.169 -123.072 748.886 -96.8296C752.602 -70.5874 743.93 -46.9713 729.806 -44.8741L206.749 32.7946C199.687 33.8432 196.091 39.9672 192.439 50.5492L168.218 125.597C165.059 137.23 159.793 142.477 153.908 143.351Z" fill="url(#paint1_linear)"/>
</g>
<g opacity="0.3" filter="url(#filter2_d)">
<path d="M-258.224 200.335L-624.727 251.844C-640.55 254.067 -657.099 231.994 -661.134 203.282C-665.169 174.57 -655.346 148.79 -639.523 146.567L-238.737 90.2397C-230.825 89.1278 -225.075 78.3461 -222.631 70.8968L-196.471 -10.8572C-192.542 -21.1691 -187.179 -29.2425 -179.046 -30.3856C-124.985 -37.9834 318.601 -100.325 372.663 -107.923C388.485 -110.147 405.034 -88.0735 409.069 -59.3615C413.104 -30.6496 403.281 -4.86984 387.458 -2.64608L-198.534 79.7097C-206.445 80.8216 -210.5 87.5 -214.64 99.0527L-242.118 180.992C-245.711 193.697 -251.631 199.408 -258.224 200.335Z" fill="url(#paint2_linear)"/>
</g>
</g>
</g>
</g>
<defs>
<filter id="filter0_d" x="-50" y="-46" width="700" height="1245" filterUnits="userSpaceOnUse" color-interpolation-filters="sRGB">
<feFlood flood-opacity="0" result="BackgroundImageFix"/>
<feColorMatrix in="SourceAlpha" type="matrix" values="0 0 0 0 0 0 0 0 0 0 0 0 0 0 0 0 0 0 127 0"/>
<feOffset dy="5"/>
<feGaussianBlur stdDeviation="25"/>
<feColorMatrix type="matrix" values="0 0 0 0 0.791667 0 0 0 0 0.906305 0 0 0 0 1 0 0 0 1 0"/>
<feBlend mode="normal" in2="BackgroundImageFix" result="effect1_dropShadow"/>
<feBlend mode="normal" in="SourceGraphic" in2="effect1_dropShadow" result="shape"/>
</filter>
<filter id="filter1_d" x="-306.801" y="-237.245" width="1156.55" height="533.324" filterUnits="userSpaceOnUse" color-interpolation-filters="sRGB">
<feFlood flood-opacity="0" result="BackgroundImageFix"/>
<feColorMatrix in="SourceAlpha" type="matrix" values="0 0 0 0 0 0 0 0 0 0 0 0 0 0 0 0 0 0 127 0"/>
<feOffset dy="4"/>
<feGaussianBlur stdDeviation="50"/>
<feColorMatrix type="matrix" values="0 0 0 0 0 0 0 0 0 0 0 0 0 0 0 0 0 0 0.25 0"/>
<feBlend mode="normal" in2="BackgroundImageFix" result="effect1_dropShadow"/>
<feBlend mode="normal" in="SourceGraphic" in2="effect1_dropShadow" result="shape"/>
</filter>
<filter id="filter2_d" x="-762.041" y="-204.077" width="1272.02" height="560.076" filterUnits="userSpaceOnUse" color-interpolation-filters="sRGB">
<feFlood flood-opacity="0" result="BackgroundImageFix"/>
<feColorMatrix in="SourceAlpha" type="matrix" values="0 0 0 0 0 0 0 0 0 0 0 0 0 0 0 0 0 0 127 0"/>
<feOffset dy="4"/>
<feGaussianBlur stdDeviation="50"/>
<feColorMatrix type="matrix" values="0 0 0 0 0 0 0 0 0 0 0 0 0 0 0 0 0 0 0.25 0"/>
<feBlend mode="normal" in2="BackgroundImageFix" result="effect1_dropShadow"/>
<feBlend mode="normal" in="SourceGraphic" in2="effect1_dropShadow" result="shape"/>
</filter>
<linearGradient id="paint0_linear" x1="-483.769" y1="1048" x2="-43.0428" y2="1447.78" gradientUnits="userSpaceOnUse">
<stop offset="0.388085" stop-color="#003077"/>
<stop offset="0.772774" stop-color="#016ECE"/>
<stop offset="1" stop-color="#0067FF" stop-opacity="0"/>
</linearGradient>
<linearGradient id="paint1_linear" x1="17.5" y1="62.5" x2="514.368" y2="123.695" gradientUnits="userSpaceOnUse">
<stop stop-color="#2864FF"/>
<stop offset="0.25778" stop-color="#2864FF"/>
<stop offset="0.839442" stop-color="#0D49A2"/>
</linearGradient>
<linearGradient id="paint2_linear" x1="-139" y1="91.9998" x2="298.288" y2="103.177" gradientUnits="userSpaceOnUse">
<stop stop-color="#1737E0"/>
<stop offset="1" stop-color="#2864FF" stop-opacity="0"/>
</linearGradient>
<clipPath id="clip0">
<rect width="600" height="1145" fill="white" transform="translate(0 -1)"/>
</clipPath>
<clipPath id="clip1">
<rect width="600" height="276" fill="white" transform="translate(0 4)"/>
</clipPath>
<clipPath id="clip2">
<rect width="600" height="278" fill="white" transform="translate(0 4)"/>
</clipPath>
</defs>
</svg>
